{"glyphs":{"0":{"ha":554,"x_min":64,"x_max":490,"o":"m 276 -17 q 169 10 218 -17 q 92 92 121 36 q 64 238 64 149 l 64 592 q 126 774 64 715 q 279 832 189 832 q 430 773 369 832 q 490 592 490 714 l 490 238 q 463 91 490 147 q 386 9 435 35 q 276 -17 338 -17 m 278 38 q 367 81 332 38 q 403 203 403 124 l 403 611 q 367 733 403 690 q 278 776 331 776 q 188 733 224 776 q 151 611 151 690 l 151 203 q 188 81 151 124 q 278 38 224 38 z "},"1":{"ha":335,"x_min":28,"x_max":247,"o":"m 160 0 l 160 697 l 28 697 l 28 747 l 97 749 q 148 765 132 750 q 174 821 164 781 l 247 821 l 247 0 l 160 0 z "},"2":{"ha":522,"x_min":57,"x_max":482,"o":"m 58 0 q 58 78 58 39 q 58 157 58 117 q 78 267 58 226 q 138 335 99 308 q 232 389 176 361 q 313 440 281 411 q 365 512 346 469 q 383 614 383 554 q 356 722 385 685 q 264 760 328 760 q 176 724 207 760 q 144 613 144 688 l 144 544 l 57 544 l 57 631 q 111 777 57 729 q 265 825 165 825 q 389 801 343 825 q 455 730 435 778 q 475 608 475 682 q 437 452 475 517 q 322 347 399 388 q 245 307 281 328 q 185 256 210 286 q 157 179 161 226 q 151 129 153 156 q 149 74 149 103 l 482 74 l 482 0 l 58 0 z "},"3":{"ha":539,"x_min":50,"x_max":482,"o":"m 265 -10 q 142 16 189 -10 q 72 88 94 42 q 50 193 50 135 l 50 276 l 140 276 l 140 206 q 172 95 140 135 q 265 54 203 56 q 356 92 322 54 q 390 193 390 129 l 390 269 q 351 364 390 332 q 242 399 311 396 l 161 399 l 161 454 l 243 454 q 304 466 275 454 q 351 500 333 478 q 376 540 369 518 q 383 586 383 561 l 383 635 q 356 724 383 688 q 265 761 328 761 q 174 722 201 761 q 146 622 146 683 l 146 574 l 56 574 l 56 635 q 106 775 56 725 q 265 825 157 825 q 427 777 378 825 q 476 640 476 729 l 476 599 q 440 483 476 526 q 346 424 404 439 q 447 366 413 413 q 482 249 482 319 l 482 193 q 461 86 482 132 q 393 15 440 40 q 265 -10 346 -10 z "},"4":{"ha":501,"x_min":21,"x_max":478,"o":"m 308 0 l 308 165 l 21 165 l 21 235 l 318 821 l 396 821 l 396 226 l 478 226 l 478 165 l 396 165 l 396 0 l 308 0 m 96 226 l 308 226 l 308 649 l 96 226 z "},"5":{"ha":544,"x_min":57,"x_max":488,"o":"m 275 -11 q 153 7 201 -11 q 81 73 106 25 q 57 210 57 121 l 57 257 l 146 257 l 146 218 q 176 92 146 129 q 276 56 206 56 q 370 98 343 56 q 397 224 397 140 l 397 342 q 388 418 397 383 q 351 474 378 453 q 272 494 324 494 q 190 468 224 494 q 147 399 157 442 l 61 399 l 61 821 l 464 821 l 464 754 l 149 754 l 149 483 q 207 536 169 517 q 300 556 244 556 q 440 513 392 556 q 488 360 488 471 l 488 218 q 460 74 488 124 q 385 7 433 25 q 275 -11 336 -11 z "},"6":{"ha":553,"x_min":64,"x_max":492,"o":"m 276 -12 q 154 14 201 -12 q 85 89 107 40 q 64 201 64 138 l 64 625 q 123 774 64 722 q 279 825 182 825 q 430 778 376 825 q 483 631 483 731 l 483 578 l 397 578 l 397 642 q 367 737 397 707 q 279 767 336 767 q 187 730 221 767 q 153 638 153 693 l 153 433 q 219 490 178 469 q 310 510 260 510 q 439 463 386 510 q 492 335 492 417 l 492 193 q 469 88 492 135 q 399 14 446 40 q 276 -12 353 -12 m 278 43 q 369 77 333 43 q 404 182 404 111 l 404 324 q 367 418 404 388 q 276 450 331 449 q 190 419 225 450 q 153 335 154 389 l 153 182 q 186 79 153 114 q 278 43 219 44 z "},"7":{"ha":415,"x_min":17,"x_max":382,"o":"m 68 0 l 296 756 l 18 756 l 17 821 l 382 821 l 382 753 l 156 0 l 68 0 z "},"8":{"ha":543,"x_min":57,"x_max":486,"o":"m 272 -11 q 149 15 196 -11 q 79 88 101 42 q 57 194 57 135 l 57 244 q 67 322 57 286 q 101 383 78 358 q 142 413 117 400 q 203 431 167 426 q 147 448 168 436 q 107 478 125 460 q 75 537 85 501 q 65 614 65 572 l 65 642 q 85 742 65 701 q 151 804 106 783 q 272 825 197 825 q 394 804 349 825 q 460 742 439 783 q 481 642 481 701 l 481 614 q 465 528 481 565 q 421 467 450 490 q 350 431 392 443 q 417 406 390 424 q 458 364 443 389 q 480 308 474 339 q 486 243 486 278 l 486 193 q 465 92 486 138 q 398 17 444 46 q 272 -11 351 -11 m 271 43 q 363 78 329 43 q 396 172 396 113 l 396 265 q 363 356 396 324 q 271 392 331 389 q 180 356 214 392 q 146 265 146 321 l 146 172 q 178 80 146 114 q 271 43 211 46 m 271 463 q 356 499 321 463 q 390 594 390 536 l 390 647 q 363 737 390 700 q 271 774 335 774 q 181 736 208 774 q 153 649 153 699 l 153 596 q 169 526 153 556 q 212 479 185 496 q 271 463 239 463 z "},"9":{"ha":550,"x_min":57,"x_max":485,"o":"m 271 -12 q 119 35 172 -12 q 65 182 65 82 l 65 243 l 153 243 l 153 171 q 184 76 153 106 q 269 46 215 46 q 363 83 329 46 q 397 175 397 119 l 397 385 q 331 327 372 347 q 240 307 290 307 q 147 329 189 307 q 81 394 106 351 q 57 501 57 438 l 57 619 q 80 726 57 679 q 151 799 103 772 q 274 825 199 825 q 395 799 349 825 q 463 724 442 772 q 485 611 485 676 l 485 188 q 426 39 485 90 q 271 -12 368 -12 m 272 365 q 360 397 325 365 q 397 482 396 429 l 397 631 q 364 733 397 699 q 272 769 331 768 q 181 735 217 769 q 144 631 144 701 l 144 493 q 182 399 144 431 q 272 365 219 368 z "},"\r":{"ha":833,"x_min":0,"x_max":0,"o":""}," ":{"ha":257,"x_min":0,"x_max":0,"o":""}," ":{"ha":257,"x_min":0,"x_max":0,"o":""},"A":{"ha":515,"x_min":21,"x_max":494,"o":"m 21 0 l 203 821 l 315 821 l 494 0 l 400 0 l 356 190 l 154 190 l 113 0 l 21 0 m 157 239 l 354 239 l 257 714 l 157 239 z "},"А":{"ha":515,"x_min":21,"x_max":494,"o":"m 21 0 l 203 821 l 315 821 l 494 0 l 400 0 l 356 190 l 154 190 l 113 0 l 21 0 m 157 239 l 354 239 l 257 714 l 157 239 z "},"Æ":{"ha":735,"x_min":13,"x_max":700,"o":"m 13 0 l 293 821 l 686 821 l 686 758 l 411 758 l 414 464 l 656 464 l 656 394 l 415 394 l 419 63 l 700 63 l 700 0 l 326 0 l 324 190 l 168 190 l 104 0 l 13 0 m 178 239 l 329 239 l 335 694 l 335 714 l 332 697 l 178 239 z "},"Á":{"ha":515,"x_min":21,"x_max":494,"o":"m 21 0 l 203 821 l 315 821 l 494 0 l 400 0 l 356 190 l 154 190 l 113 0 l 21 0 m 157 239 l 354 239 l 257 714 l 157 239 m 192 881 l 303 996 l 392 996 l 247 881 l 192 881 z "},"Ă":{"ha":515,"x_min":21,"x_max":494,"o":"m 21 0 l 203 821 l 315 821 l 494 0 l 400 0 l 356 190 l 154 190 l 113 0 l 21 0 m 157 239 l 354 239 l 257 714 l 157 239 m 256 875 q 174 896 203 875 q 133 946 144 917 q 119 999 121 975 l 171 999 q 200 940 176 960 q 257 921 224 921 q 315 940 292 921 q 343 999 339 958 l 394 999 q 379 942 393 971 q 335 894 365 914 q 256 875 306 875 z "},"Ắ":{"ha":515,"x_min":21,"x_max":494,"o":"m 21 0 l 203 821 l 315 821 l 494 0 l 400 0 l 356 190 l 154 190 l 113 0 l 21 0 m 157 239 l 354 239 l 257 714 l 157 239 m 257 868 q 194 884 217 868 q 164 922 172 900 q 154 961 156 943 l 206 961 q 222 926 207 938 q 258 914 236 914 q 294 925 279 914 q 310 961 308 936 l 361 961 q 337 897 360 926 q 257 868 314 868 m 215 979 l 271 1074 l 356 1074 l 269 979 l 215 979 z "},"Ặ":{"ha":515,"x_min":21,"x_max":494,"o":"m 21 0 l 203 821 l 315 821 l 494 0 l 400 0 l 356 190 l 154 190 l 113 0 l 21 0 m 157 239 l 354 239 l 257 714 l 157 239 m 257 -150 q 224 -137 238 -150 q 211 -106 211 -124 q 224 -73 211 -86 q 257 -60 238 -60 q 290 -73 276 -60 q 304 -106 304 -86 q 290 -137 304 -124 q 257 -150 276 -150 m 256 875 q 174 896 203 875 q 133 946 144 917 q 119 999 121 975 l 171 999 q 200 940 176 960 q 257 921 224 921 q 315 940 292 921 q 343 999 339 958 l 394 999 q 379 942 393 971 q 335 894 365 914 q 256 875 306 875 z "},"Ằ":{"ha":515,"x_min":21,"x_max":494,"o":"m 21 0 l 203 821 l 315 821 l 494 0 l 400 0 l 356 190 l 154 190 l 113 0 l 21 0 m 157 239 l 354 239 l 257 714 l 157 239 m 257 868 q 194 884 217 868 q 164 922 172 900 q 156 961 156 943 l 206 961 q 223 926 208 938 q 258 914 238 914 q 294 925 279 914 q 311 961 308 936 l 361 961 q 337 897 360 926 q 257 868 314 868 m 250 979 l 163 1074 l 249 1074 l 304 979 l 250 979 z "},"Ẳ":{"ha":515,"x_min":21,"x_max":494,"o":"m 21 0 l 203 821 l 315 821 l 494 0 l 400 0 l 356 190 l 154 190 l 113 0 l 21 0 m 157 239 l 354 239 l 257 714 l 157 239 m 257 868 q 194 884 217 868 q 164 922 172 900 q 154 961 156 943 l 206 961 q 222 926 207 938 q 258 914 236 914 q 294 925 279 914 q 310 961 308 936 l 361 961 q 337 897 360 926 q 257 868 314 868 m 233 981 l 233 994 q 245 1016 233 1008 q 268 1030 257 1024 q 279 1049 279 1036 l 279 1053 q 273 1069 279 1063 q 253 1076 267 1076 q 237 1071 244 1076 q 228 1056 229 1065 l 189 1063 q 208 1098 192 1085 q 256 1111 224 1111 q 310 1097 294 1111 q 326 1054 326 1083 l 326 1050 q 315 1021 326 1029 q 292 1008 304 1013 q 281 992 281 1003 l 281 981 l 233 981 z "},"Ẵ":{"ha":515,"x_min":21,"x_max":494,"o":"m 21 0 l 203 821 l 315 821 l 494 0 l 400 0 l 356 190 l 154 190 l 113 0 l 21 0 m 157 239 l 354 239 l 257 714 l 157 239 m 256 868 q 193 884 215 868 q 163 922 171 900 q 153 961 154 943 l 204 961 q 222 926 207 938 q 257 914 236 914 q 293 925 279 914 q 310 961 307 936 l 360 961 q 335 897 360 926 q 256 868 311 868 m 301 983 q 276 989 286 983 q 250 1003 265 994 q 232 1015 242 1008 q 208 1021 222 1021 q 190 1011 197 1021 q 182 985 183 1001 l 151 985 q 168 1040 153 1018 q 210 1061 183 1061 q 237 1056 225 1061 q 260 1044 249 1051 q 281 1033 272 1038 q 301 1028 290 1028 q 321 1035 314 1028 q 331 1060 328 1043 l 363 1060 q 352 1020 361 1038 q 330 993 343 1003 q 301 983 317 983 z "},"Ǎ":{"ha":515,"x_min":21,"x_max":494,"o":"m 21 0 l 203 821 l 315 821 l 494 0 l 400 0 l 356 190 l 154 190 l 113 0 l 21 0 m 157 239 l 354 239 l 257 714 l 157 239 m 229 874 l 110 989 l 169 989 l 258 917 l 347 989 l 407 989 l 286 874 l 229 874 z "},"Â":{"ha":515,"x_min":21,"x_max":494,"o":"m 21 0 l 203 821 l 315 821 l 494 0 l 400 0 l 356 190 l 154 190 l 113 0 l 21 0 m 157 239 l 354 239 l 257 714 l 157 239 m 103 874 l 228 999 l 286 999 l 411 874 l 351 874 l 257 956 l 164 874 l 103 874 z "},"Ấ":{"ha":515,"x_min":21,"x_max":513,"o":"m 21 0 l 203 821 l 315 821 l 494 0 l 400 0 l 356 190 l 154 190 l 113 0 l 21 0 m 157 239 l 354 239 l 257 714 l 157 239 m 142 869 l 231 965 l 283 965 l 372 869 l 318 869 l 257 925 l 199 869 l 142 869 m 371 931 l 426 1025 l 511 1025 l 425 931 l 371 931 z "},"Ậ":{"ha":515,"x_min":21,"x_max":494,"o":"m 21 0 l 203 821 l 315 821 l 494 0 l 400 0 l 356 190 l 154 190 l 113 0 l 21 0 m 157 239 l 354 239 l 257 714 l 157 239 m 257 -150 q 224 -137 238 -150 q 211 -106 211 -124 q 224 -73 211 -86 q 257 -60 238 -60 q 290 -73 276 -60 q 304 -106 304 -86 q 290 -137 304 -124 q 257 -150 276 -150 m 103 874 l 228 999 l 286 999 l 411 874 l 351 874 l 257 956 l 164 874 l 103 874 z "},"Ầ":{"ha":515,"x_min":21,"x_max":494,"o":"m 21 0 l 203 821 l 315 821 l 494 0 l 400 0 l 356 190 l 154 190 l 113 0 l 21 0 m 157 239 l 354 239 l 257 714 l 157 239 m 142 869 l 231 965 l 283 965 l 372 869 l 318 869 l 257 925 l 199 869 l 142 869 m 406 929 l 318 1024 l 404 1024 l 460 929 l 406 929 z "},"Ẩ":{"ha":515,"x_min":21,"x_max":494,"o":"m 21 0 l 203 821 l 315 821 l 494 0 l 400 0 l 356 190 l 154 190 l 113 0 l 21 0 m 157 239 l 354 239 l 257 714 l 157 239 m 142 869 l 231 965 l 283 965 l 372 869 l 318 869 l 257 925 l 199 869 l 142 869 m 385 928 l 385 943 q 396 964 385 957 q 419 977 407 971 q 431 996 431 983 l 431 1000 q 424 1018 431 1011 q 404 1025 417 1025 q 382 1003 386 1025 l 343 1010 q 362 1045 346 1032 q 408 1058 378 1058 q 462 1046 446 1058 q 478 1003 478 1033 l 478 999 q 467 969 478 978 q 443 956 456 961 q 431 939 431 950 l 431 928 l 385 928 z "},"Ẫ":{"ha":515,"x_min":21,"x_max":494,"o":"m 21 0 l 203 821 l 315 821 l 494 0 l 400 0 l 356 190 l 154 190 l 113 0 l 21 0 m 157 239 l 354 239 l 257 714 l 157 239 m 142 869 l 231 965 l 283 965 l 372 869 l 318 869 l 257 925 l 199 869 l 142 869 m 300 988 q 275 992 286 988 q 251 1007 264 997 q 231 1018 242 1013 q 210 1024 221 1024 q 189 1015 197 1024 q 179 989 181 1006 l 151 989 q 169 1044 153 1025 q 210 1064 185 1064 q 235 1060 224 1064 q 261 1046 247 1056 q 281 1035 271 1039 q 300 1031 292 1031 q 322 1039 314 1031 q 332 1063 331 1047 l 363 1063 q 352 1023 361 1040 q 329 997 343 1006 q 300 988 315 988 z "},"Ä":{"ha":515,"x_min":21,"x_max":494,"o":"m 21 0 l 203 821 l 315 821 l 494 0 l 400 0 l 356 190 l 154 190 l 113 0 l 21 0 m 157 239 l 354 239 l 257 714 l 157 239 m 190 888 q 158 901 171 888 q 144 932 144 914 q 158 963 144 950 q 190 975 171 975 q 222 963 210 975 q 235 932 235 950 q 222 901 235 914 q 190 888 210 888 m 325 888 q 292 901 306 888 q 279 932 279 914 q 292 963 279 950 q 325 975 306 975 q 357 963 344 975 q 369 932 369 950 q 357 901 369 914 q 325 888 344 888 z "},"Ạ":{"ha":515,"x_min":21,"x_max":494,"o":"m 21 0 l 203 821 l 315 821 l 494 0 l 400 0 l 356 190 l 154 190 l 113 0 l 21 0 m 157 239 l 354 239 l 257 714 l 157 239 m 257 -150 q 224 -137 238 -150 q 211 -106 211 -124 q 224 -73 211 -86 q 257 -60 238 -60 q 290 -73 276 -60 q 304 -106 304 -86 q 290 -137 304 -124 q 257 -150 276 -150 z "},"À":{"ha":515,"x_min":21,"x_max":494,"o":"m 21 0 l 203 821 l 315 821 l 494 0 l 400 0 l 356 190 l 154 190 l 113 0 l 21 0 m 157 239 l 354 239 l 257 714 l 157 239 m 263 881 l 124 993 l 214 993 l 324 881 l 263 881 z "},"Ả":{"ha":515,"x_min":21,"x_max":494,"o":"m 21 0 l 203 821 l 315 821 l 494 0 l 400 0 l 356 190 l 154 190 l 113 0 l 21 0 m 157 239 l 354 239 l 257 714 l 157 239 m 232 869 l 232 892 q 248 922 232 913 q 279 942 264 932 q 294 969 294 951 l 294 975 q 285 1001 294 989 q 256 1013 276 1013 q 219 979 226 1013 l 176 988 q 201 1033 181 1017 q 260 1049 222 1049 q 326 1033 304 1049 q 347 975 347 1017 l 347 972 q 331 929 347 942 q 297 910 314 917 q 281 886 281 903 l 281 869 l 232 869 z "},"Ā":{"ha":515,"x_min":21,"x_max":494,"o":"m 21 0 l 203 821 l 315 821 l 494 0 l 400 0 l 356 190 l 154 190 l 113 0 l 21 0 m 157 239 l 354 239 l 257 714 l 157 239 m 129 904 l 129 951 l 388 951 l 388 904 l 129 904 z "},"Ą":{"ha":515,"x_min":21,"x_max":521,"o":"m 21 0 l 203 821 l 315 821 l 494 0 l 400 0 l 356 190 l 154 190 l 113 0 l 21 0 m 157 239 l 354 239 l 257 714 l 157 239 m 454 -187 q 386 -165 414 -187 q 358 -107 358 -142 q 386 -39 358 -68 q 449 1 414 -10 l 493 0 q 438 -43 457 -17 q 418 -96 418 -69 q 436 -136 418 -122 q 472 -150 454 -150 q 494 -147 485 -150 q 507 -142 503 -144 l 521 -171 q 497 -182 513 -176 q 454 -187 481 -187 z "},"Å":{"ha":515,"x_min":21,"x_max":494,"o":"m 21 0 l 203 821 l 315 821 l 494 0 l 400 0 l 356 190 l 154 190 l 113 0 l 21 0 m 157 239 l 354 239 l 257 714 l 157 239 m 263 807 q 184 838 215 807 q 153 911 153 868 q 184 985 153 954 q 263 1015 215 1015 q 343 985 313 1015 q 374 910 374 954 q 340 838 374 868 q 263 807 307 807 m 263 849 q 310 866 293 849 q 328 910 328 883 q 310 957 328 940 q 263 974 293 974 q 215 957 233 974 q 197 910 197 940 q 215 866 197 883 q 263 849 233 849 z "},"Ã":{"ha":515,"x_min":21,"x_max":494,"o":"m 21 0 l 203 821 l 315 821 l 494 0 l 400 0 l 356 190 l 154 190 l 113 0 l 21 0 m 157 239 l 354 239 l 257 714 l 157 239 m 315 889 q 283 895 296 889 q 250 914 269 901 q 223 930 238 921 q 192 939 208 939 q 164 927 175 939 q 150 890 153 915 l 115 890 q 138 958 117 932 q 193 983 158 983 q 228 976 213 983 q 261 957 244 968 q 289 942 276 949 q 315 935 301 935 q 344 946 333 935 q 360 981 356 957 l 396 981 q 383 932 394 953 q 353 900 371 911 q 315 889 336 889 z "},"B":{"ha":572,"x_min":88,"x_max":504,"o":"m 88 0 l 88 821 l 342 821 q 453 788 410 821 q 496 685 496 756 l 496 585 q 485 516 496 546 q 454 468 474 486 q 408 442 435 449 q 363 435 381 436 l 363 438 q 416 431 390 438 q 460 407 442 425 q 492 358 481 388 q 504 288 504 328 l 504 168 q 482 63 504 99 q 420 13 460 26 q 326 0 381 0 l 88 0 m 175 50 l 311 50 q 367 59 343 50 q 403 95 390 68 q 417 175 417 122 l 417 288 q 383 376 417 354 q 299 397 349 397 l 175 397 l 175 50 m 175 456 l 296 456 q 381 486 351 456 q 411 575 411 517 l 411 669 q 384 745 411 721 q 318 769 357 769 l 175 769 l 175 456 z "},"Б":{"ha":535,"x_min":88,"x_max":478,"o":"m 88 0 l 88 821 l 456 821 l 456 757 l 174 757 l 174 604 l 311 604 q 406 586 369 604 q 460 530 443 568 q 478 431 478 492 l 478 204 q 467 107 478 146 q 436 44 457 68 q 383 10 415 21 q 304 0 350 0 l 88 0 m 288 50 q 354 67 332 50 q 384 115 376 85 q 392 183 392 146 l 392 418 q 385 483 392 453 q 356 531 378 513 q 285 549 333 549 l 174 549 l 174 50 l 288 50 z "},"C":{"ha":554,"x_min":74,"x_max":489,"o":"m 282 -17 q 174 -3 221 -17 q 101 55 128 11 q 74 188 74 99 l 74 650 q 101 767 74 728 q 176 819 128 806 q 283 832 224 832 q 390 818 344 832 q 463 765 436 804 q 489 650 489 726 l 489 506 l 401 506 l 401 651 q 386 733 401 706 q 344 768 371 760 q 282 776 317 776 q 220 768 247 776 q 178 733 193 760 q 164 651 164 706 l 164 164 q 178 81 164 108 q 220 46 193 54 q 282 38 247 38 q 344 46 318 38 q 386 81 371 54 q 401 164 401 108 l 401 288 l 489 288 l 489 189 q 463 55 489 99 q 390 -3 436 11 q 282 -17 344 -17 z "},"Ć":{"ha":554,"x_min":74,"x_max":489,"o":"m 282 -17 q 174 -3 221 -17 q 101 55 128 11 q 74 188 74 99 l 74 650 q 101 767 74 728 q 176 819 128 806 q 283 832 224 832 q 390 818 344 832 q 463 765 436 804 q 489 650 489 726 l 489 506 l 401 506 l 401 651 q 386 733 401 706 q 344 768 371 760 q 282 776 317 776 q 220 768 247 776 q 178 733 193 760 q 164 651 164 706 l 164 164 q 178 81 164 108 q 220 46 193 54 q 282 38 247 38 q 344 46 318 38 q 386 81 371 54 q 401 164 401 108 l 401 288 l 489 288 l 489 189 q 463 55 489 99 q 390 -3 436 11 q 282 -17 344 -17 m 211 881 l 322 996 l 411 996 l 267 881 l 211 881 z "},"Č":{"ha":554,"x_min":74,"x_max":489,"o":"m 282 -17 q 174 -3 221 -17 q 101 55 128 11 q 74 188 74 99 l 74 650 q 101 767 74 728 q 176 819 128 806 q 283 832 224 832 q 390 818 344 832 q 463 765 436 804 q 489 650 489 726 l 489 506 l 401 506 l 401 651 q 386 733 401 706 q 344 768 371 760 q 282 776 317 776 q 220 768 247 776 q 178 733 193 760 q 164 651 164 706 l 164 164 q 178 81 164 108 q 220 46 193 54 q 282 38 247 38 q 344 46 318 38 q 386 81 371 54 q 401 164 401 108 l 401 288 l 489 288 l 489 189 q 463 55 489 99 q 390 -3 436 11 q 282 -17 344 -17 m 249 874 l 129 989 l 189 989 l 278 917 l 367 989 l 426 989 l 306 874 l 249 874 z "},"Ç":{"ha":554,"x_min":74,"x_max":489,"o":"m 282 -17 q 174 -3 221 -17 q 101 55 128 11 q 74 188 74 99 l 74 650 q 101 767 74 728 q 176 819 128 806 q 283 832 224 832 q 390 818 344 832 q 463 765 436 804 q 489 650 489 726 l 489 506 l 401 506 l 401 651 q 386 733 401 706 q 344 768 371 760 q 282 776 317 776 q 220 768 247 776 q 178 733 193 760 q 164 651 164 706 l 164 164 q 178 81 164 108 q 220 46 193 54 q 282 38 247 38 q 344 46 318 38 q 386 81 371 54 q 401 164 401 108 l 401 288 l 489 288 l 489 189 q 463 55 489 99 q 390 -3 436 11 q 282 -17 344 -17 m 271 -203 q 233 -195 250 -203 q 204 -182 215 -187 l 217 -149 q 242 -161 225 -156 q 268 -167 258 -167 q 309 -154 296 -167 q 322 -124 322 -142 q 310 -95 322 -106 q 279 -85 299 -85 q 261 -89 271 -85 q 244 -99 251 -93 l 215 -83 l 260 0 l 299 0 l 261 -71 l 253 -68 q 275 -59 263 -62 q 300 -56 288 -56 q 354 -77 335 -56 q 374 -122 374 -99 q 347 -180 374 -157 q 271 -203 321 -203 z "},"Ċ":{"ha":554,"x_min":74,"x_max":489,"o":"m 282 -17 q 174 -3 221 -17 q 101 55 128 11 q 74 188 74 99 l 74 650 q 101 767 74 728 q 176 819 128 806 q 283 832 224 832 q 390 818 344 832 q 463 765 436 804 q 489 650 489 726 l 489 506 l 401 506 l 401 651 q 386 733 401 706 q 344 768 371 760 q 282 776 317 776 q 220 768 247 776 q 178 733 193 760 q 164 651 164 706 l 164 164 q 178 81 164 108 q 220 46 193 54 q 282 38 247 38 q 344 46 318 38 q 386 81 371 54 q 401 164 401 108 l 401 288 l 489 288 l 489 189 q 463 55 489 99 q 390 -3 436 11 q 282 -17 344 -17 m 285 889 q 247 903 263 889 q 232 940 232 918 q 247 976 232 961 q 285 990 263 990 q 322 976 306 990 q 338 940 338 961 q 322 903 338 918 q 285 889 306 889 z "},"Ч":{"ha":506,"x_min":57,"x_max":447,"o":"m 360 0 l 360 232 q 305 202 343 217 q 222 188 267 188 q 115 211 150 188 q 68 277 79 235 q 57 374 57 319 l 57 821 l 143 821 l 143 371 q 165 281 143 311 q 249 250 186 250 q 326 265 300 250 q 360 288 351 279 l 360 821 l 447 821 l 447 0 l 360 0 z "},"D":{"ha":578,"x_min":88,"x_max":503,"o":"m 88 0 l 88 821 l 333 821 q 424 806 386 821 q 483 753 463 790 q 503 653 503 717 l 503 179 q 481 69 503 108 q 417 15 458 31 q 322 0 376 0 l 88 0 m 178 50 l 311 50 q 387 76 358 50 q 415 175 415 101 l 415 642 q 387 742 415 715 q 311 768 358 768 l 178 768 l 178 50 z "},"Ď":{"ha":578,"x_min":88,"x_max":503,"o":"m 88 0 l 88 821 l 333 821 q 424 806 386 821 q 483 753 463 790 q 503 653 503 717 l 503 179 q 481 69 503 108 q 417 15 458 31 q 322 0 376 0 l 88 0 m 178 50 l 311 50 q 387 76 358 50 q 415 175 415 101 l 415 642 q 387 742 415 715 q 311 768 358 768 l 178 768 l 178 50 m 260 874 l 140 989 l 200 989 l 289 917 l 378 989 l 438 989 l 317 874 l 260 874 z "},"Đ":{"ha":604,"x_min":26,"x_max":529,"o":"m 104 0 l 104 821 l 360 821 q 451 806 413 821 q 509 753 489 790 q 529 653 529 717 l 529 179 q 507 69 529 108 q 444 15 485 31 q 349 0 404 0 l 104 0 m 26 374 l 26 429 l 278 429 l 278 374 l 26 374 m 194 50 l 332 50 q 413 76 383 50 q 442 175 442 101 l 442 642 q 413 742 442 715 q 332 768 383 768 l 194 768 l 194 50 z "},"Д":{"ha":774,"x_min":47,"x_max":725,"o":"m 47 -149 l 47 58 l 115 58 q 166 89 146 61 q 192 179 186 117 q 202 301 197 236 q 213 434 207 367 q 224 569 219 501 q 233 701 228 636 q 240 821 238 765 l 603 821 l 603 58 l 725 58 l 725 -149 l 650 -149 l 650 -14 l 122 -14 l 122 -149 l 47 -149 m 243 58 l 515 58 l 515 757 l 324 757 q 303 474 313 614 q 283 192 293 333 q 272 118 279 158 q 243 58 265 78 z "},"Δ":{"ha":732,"x_min":57,"x_max":675,"o":"m 57 0 l 322 813 l 415 813 l 675 0 l 57 0 m 165 72 l 561 72 l 365 701 l 165 72 z "},"Ђ":{"ha":617,"x_min":15,"x_max":560,"o":"m 161 0 l 161 757 l 15 757 l 15 821 l 396 821 l 396 757 l 249 757 l 249 519 q 299 567 263 544 q 394 590 336 590 q 495 569 460 590 q 545 509 531 549 q 560 413 560 469 l 560 239 q 546 112 560 160 q 508 40 532 64 q 449 8 483 15 q 374 0 415 0 q 353 2 364 0 q 335 6 342 4 l 335 50 q 347 50 340 50 q 360 50 354 50 q 447 92 422 50 q 472 219 472 135 l 472 407 q 451 501 472 469 q 364 533 431 533 q 283 508 310 533 q 249 458 257 483 l 249 0 l 161 0 z "},"Ѕ":{"ha":519,"x_min":51,"x_max":467,"o":"m 254 -10 q 147 13 192 -10 q 76 87 101 35 q 51 232 51 139 l 51 278 q 97 278 74 278 q 140 278 119 278 l 140 226 q 155 119 140 157 q 195 65 169 81 q 254 50 221 50 q 342 84 308 50 q 376 206 376 118 q 358 299 376 268 q 303 349 340 331 q 211 390 265 368 q 131 434 167 408 q 76 501 96 460 q 57 607 57 543 q 76 727 57 679 q 140 799 96 775 q 258 822 185 822 q 406 774 354 822 q 458 639 458 726 l 458 549 q 416 549 438 549 q 372 549 394 549 l 372 618 q 344 719 372 685 q 260 753 315 753 q 172 717 199 753 q 144 610 144 682 q 165 524 144 556 q 219 476 186 493 q 290 444 253 458 q 392 395 353 421 q 449 329 431 369 q 467 217 467 289 q 440 83 467 132 q 365 12 413 33 q 254 -10 317 -10 z "},"Џ":{"ha":511,"x_min":58,"x_max":453,"o":"m 224 -137 l 224 0 l 58 0 l 58 821 l 150 821 l 150 63 l 363 63 l 363 821 l 453 821 l 453 0 l 285 0 l 285 -137 l 224 -137 z "},"E":{"ha":475,"x_min":88,"x_max":442,"o":"m 88 0 l 88 821 l 442 821 l 442 758 l 178 758 l 178 464 l 389 464 l 389 394 l 178 394 l 178 63 l 442 63 l 442 0 l 88 0 z "},"É":{"ha":475,"x_min":88,"x_max":442,"o":"m 88 0 l 88 821 l 442 821 l 442 758 l 178 758 l 178 464 l 389 464 l 389 394 l 178 394 l 178 63 l 442 63 l 442 0 l 88 0 m 197 881 l 308 996 l 397 996 l 253 881 l 197 881 z "},"Ě":{"ha":475,"x_min":88,"x_max":442,"o":"m 88 0 l 88 821 l 442 821 l 442 758 l 178 758 l 178 464 l 389 464 l 389 394 l 178 394 l 178 63 l 442 63 l 442 0 l 88 0 m 236 874 l 117 989 l 176 989 l 265 917 l 354 989 l 414 989 l 293 874 l 236 874 z "},"Ê":{"ha":475,"x_min":88,"x_max":442,"o":"m 88 0 l 88 821 l 442 821 l 442 758 l 178 758 l 178 464 l 389 464 l 389 394 l 178 394 l 178 63 l 442 63 l 442 0 l 88 0 m 110 874 l 235 999 l 293 999 l 418 874 l 358 874 l 264 956 l 171 874 l 110 874 z "},"Ế":{"ha":475,"x_min":88,"x_max":519,"o":"m 88 0 l 88 821 l 442 821 l 442 758 l 178 758 l 178 464 l 389 464 l 389 394 l 178 394 l 178 63 l 442 63 l 442 0 l 88 0 m 149 869 l 238 965 l 290 965 l 379 869 l 325 869 l 264 925 l 206 869 l 149 869 m 378 931 l 433 1025 l 518 1025 l 432 931 l 378 931 z "},"Ệ":{"ha":475,"x_min":88,"x_max":442,"o":"m 88 0 l 88 821 l 442 821 l 442 758 l 178 758 l 178 464 l 389 464 l 389 394 l 178 394 l 178 63 l 442 63 l 442 0 l 88 0 m 267 -150 q 234 -137 247 -150 q 221 -106 221 -124 q 234 -73 221 -86 q 267 -60 247 -60 q 300 -73 286 -60 q 314 -106 314 -86 q 300 -137 314 -124 q 267 -150 286 -150 m 110 874 l 235 999 l 293 999 l 418 874 l 358 874 l 264 956 l 171 874 l 110 874 z "},"Ề":{"ha":475,"x_min":88,"x_max":467,"o":"m 88 0 l 88 821 l 442 821 l 442 758 l 178 758 l 178 464 l 389 464 l 389 394 l 178 394 l 178 63 l 442 63 l 442 0 l 88 0 m 149 869 l 238 965 l 290 965 l 379 869 l 325 869 l 264 925 l 206 869 l 149 869 m 413 929 l 325 1024 l 411 1024 l 467 929 l 413 929 z "},"Ể":{"ha":475,"x_min":88,"x_max":485,"o":"m 88 0 l 88 821 l 442 821 l 442 758 l 178 758 l 178 464 l 389 464 l 389 394 l 178 394 l 178 63 l 442 63 l 442 0 l 88 0 m 149 869 l 238 965 l 290 965 l 379 869 l 325 869 l 264 925 l 206 869 l 149 869 m 392 928 l 392 943 q 403 964 392 957 q 426 977 414 971 q 438 996 438 983 l 438 1000 q 431 1018 438 1011 q 411 1025 424 1025 q 389 1003 393 1025 l 350 1010 q 369 1045 353 1032 q 415 1058 385 1058 q 469 1046 453 1058 q 485 1003 485 1033 l 485 999 q 474 969 485 978 q 450 956 463 961 q 438 939 438 950 l 438 928 l 392 928 z "},"Ễ":{"ha":475,"x_min":88,"x_max":442,"o":"m 88 0 l 88 821 l 442 821 l 442 758 l 178 758 l 178 464 l 389 464 l 389 394 l 178 394 l 178 63 l 442 63 l 442 0 l 88 0 m 149 869 l 238 965 l 290 965 l 379 869 l 325 869 l 264 925 l 206 869 l 149 869 m 307 988 q 282 992 293 988 q 258 1007 271 997 q 238 1018 249 1013 q 217 1024 228 1024 q 196 1015 204 1024 q 186 989 188 1006 l 158 989 q 176 1044 160 1025 q 217 1064 192 1064 q 242 1060 231 1064 q 268 1046 254 1056 q 288 1035 278 1039 q 307 1031 299 1031 q 329 1039 321 1031 q 339 1063 338 1047 l 369 1063 q 359 1023 368 1040 q 336 997 350 1006 q 307 988 322 988 z "},"Ë":{"ha":475,"x_min":88,"x_max":442,"o":"m 88 0 l 88 821 l 442 821 l 442 758 l 178 758 l 178 464 l 389 464 l 389 394 l 178 394 l 178 63 l 442 63 l 442 0 l 88 0 m 197 888 q 165 901 178 888 q 151 932 151 914 q 165 963 151 950 q 197 975 178 975 q 229 963 217 975 q 242 932 242 950 q 229 901 242 914 q 197 888 217 888 m 332 888 q 299 901 313 888 q 286 932 286 914 q 299 963 286 950 q 332 975 313 975 q 364 963 351 975 q 376 932 376 950 q 364 901 376 914 q 332 888 351 888 z "},"Ė":{"ha":475,"x_min":88,"x_max":442,"o":"m 88 0 l 88 821 l 442 821 l 442 758 l 178 758 l 178 464 l 389 464 l 389 394 l 178 394 l 178 63 l 442 63 l 442 0 l 88 0 m 272 889 q 235 903 250 889 q 219 940 219 918 q 235 976 219 961 q 272 990 250 990 q 309 976 293 990 q 325 940 325 961 q 309 903 325 918 q 272 889 293 889 z "},"Ẹ":{"ha":475,"x_min":88,"x_max":442,"o":"m 88 0 l 88 821 l 442 821 l 442 758 l 178 758 l 178 464 l 389 464 l 389 394 l 178 394 l 178 63 l 442 63 l 442 0 l 88 0 m 267 -150 q 234 -137 247 -150 q 221 -106 221 -124 q 234 -73 221 -86 q 267 -60 247 -60 q 300 -73 286 -60 q 314 -106 314 -86 q 300 -137 314 -124 q 267 -150 286 -150 z "},"Ф":{"ha":660,"x_min":54,"x_max":606,"o":"m 288 -17 l 288 90 l 254 90 q 103 133 153 90 q 54 278 54 176 l 54 550 q 100 683 54 639 q 244 728 146 728 l 288 728 l 288 821 l 374 821 l 374 728 l 414 728 q 558 685 511 728 q 606 546 606 643 l 606 281 q 555 131 606 171 q 403 90 504 90 l 374 90 l 374 -17 l 288 -17 m 264 139 l 288 139 q 288 408 288 275 q 288 674 288 540 l 265 674 q 174 642 204 674 q 143 540 143 611 l 143 274 q 174 171 143 203 q 264 139 204 139 m 374 139 l 392 139 q 485 168 453 139 q 518 275 518 197 l 518 538 q 485 644 518 615 q 392 674 453 674 l 374 674 q 374 408 374 540 q 374 139 374 275 z "},"È":{"ha":475,"x_min":88,"x_max":442,"o":"m 88 0 l 88 821 l 442 821 l 442 758 l 178 758 l 178 464 l 389 464 l 389 394 l 178 394 l 178 63 l 442 63 l 442 0 l 88 0 m 269 881 l 131 993 l 221 993 l 331 881 l 269 881 z "},"Ẻ":{"ha":475,"x_min":88,"x_max":442,"o":"m 88 0 l 88 821 l 442 821 l 442 758 l 178 758 l 178 464 l 389 464 l 389 394 l 178 394 l 178 63 l 442 63 l 442 0 l 88 0 m 239 869 l 239 892 q 255 922 239 913 q 286 942 271 932 q 301 969 301 951 l 301 975 q 292 1001 301 989 q 263 1013 283 1013 q 226 979 233 1013 l 183 988 q 208 1033 188 1017 q 267 1049 229 1049 q 333 1033 311 1049 q 354 975 354 1017 l 354 972 q 338 929 354 942 q 304 910 321 917 q 288 886 288 903 l 288 869 l 239 869 z "},"Л":{"ha":588,"x_min":22,"x_max":528,"o":"m 22 0 l 22 50 q 68 76 49 50 q 90 153 88 101 l 136 821 l 528 821 l 528 0 l 440 0 l 440 757 l 222 757 l 176 129 q 172 88 175 110 q 158 48 168 67 q 128 15 149 29 q 74 0 108 1 l 22 0 z "},"М":{"ha":736,"x_min":88,"x_max":649,"o":"m 88 0 l 88 821 l 190 821 l 368 153 l 550 821 l 649 821 l 649 0 l 571 0 l 571 664 l 400 0 l 338 0 l 167 664 l 167 0 l 88 0 z "},"Ē":{"ha":475,"x_min":88,"x_max":442,"o":"m 88 0 l 88 821 l 442 821 l 442 758 l 178 758 l 178 464 l 389 464 l 389 394 l 178 394 l 178 63 l 442 63 l 442 0 l 88 0 m 135 904 l 135 951 l 393 951 l 393 904 l 135 904 z "},"Н":{"ha":589,"x_min":88,"x_max":501,"o":"m 88 0 l 88 821 l 175 821 l 175 463 l 415 463 l 415 821 l 501 821 l 501 0 l 415 0 l 415 396 l 175 396 l 175 0 l 88 0 z "},"Ŋ":{"ha":588,"x_min":88,"x_max":501,"o":"m 350 -240 q 324 -240 339 -240 q 296 -239 308 -240 l 296 -176 l 340 -178 q 401 -161 383 -178 q 419 -96 419 -144 l 421 1 l 168 618 l 167 0 l 88 0 l 89 821 l 165 821 l 421 179 l 422 821 l 501 821 l 500 -58 q 488 -167 500 -128 q 444 -224 476 -207 q 350 -240 413 -240 z "},"Ę":{"ha":475,"x_min":88,"x_max":442,"o":"m 88 0 l 88 821 l 442 821 l 442 758 l 178 758 l 178 464 l 389 464 l 389 394 l 178 394 l 178 63 l 442 63 l 442 0 l 88 0 m 336 -187 q 268 -165 296 -187 q 240 -107 240 -142 q 268 -39 240 -68 q 331 1 296 -10 l 375 0 q 319 -43 339 -17 q 300 -96 300 -69 q 318 -136 300 -122 q 354 -150 336 -150 q 376 -147 367 -150 q 389 -142 385 -144 l 403 -171 q 378 -182 394 -176 q 336 -187 363 -187 z "},"Р":{"ha":533,"x_min":88,"x_max":499,"o":"m 88 0 l 88 821 l 342 821 q 456 788 413 821 q 499 685 499 756 l 499 533 q 485 445 499 486 q 433 379 471 404 q 325 354 396 354 l 178 354 l 178 0 l 88 0 m 178 406 l 299 406 q 383 440 354 406 q 411 544 411 474 l 411 651 q 385 741 411 713 q 321 769 358 769 l 178 769 l 178 406 z "},"Э":{"ha":533,"x_min":57,"x_max":475,"o":"m 265 -17 q 156 -3 204 -17 q 83 55 108 11 q 57 189 57 99 l 57 268 l 144 268 l 144 161 q 160 82 144 108 q 203 47 176 56 q 265 38 231 38 q 327 47 300 38 q 369 82 354 56 q 385 161 385 108 l 385 378 l 171 378 l 171 439 l 385 439 l 385 650 q 369 729 385 703 q 328 765 354 756 q 265 774 301 774 q 202 765 229 774 q 160 732 175 757 q 144 653 144 707 l 144 522 l 57 522 l 57 647 q 83 764 57 724 q 156 818 108 804 q 264 832 203 832 q 373 818 325 832 q 448 765 421 804 q 475 647 475 725 l 475 189 q 448 56 475 100 q 374 -3 421 11 q 265 -17 326 -17 z "},"С":{"ha":554,"x_min":74,"x_max":489,"o":"m 282 -17 q 174 -3 221 -17 q 101 55 128 11 q 74 188 74 99 l 74 650 q 101 767 74 728 q 176 819 128 806 q 283 832 224 832 q 390 818 344 832 q 463 765 436 804 q 489 650 489 726 l 489 506 l 401 506 l 401 651 q 386 733 401 706 q 344 768 371 760 q 282 776 317 776 q 220 768 247 776 q 178 733 193 760 q 164 651 164 706 l 164 164 q 178 81 164 108 q 220 46 193 54 q 282 38 247 38 q 344 46 318 38 q 386 81 371 54 q 401 164 401 108 l 401 288 l 489 288 l 489 189 q 463 55 489 99 q 390 -3 436 11 q 282 -17 344 -17 z "},"Ð":{"ha":604,"x_min":26,"x_max":529,"o":"m 104 0 l 104 821 l 360 821 q 451 806 413 821 q 509 753 489 790 q 529 653 529 717 l 529 179 q 507 69 529 108 q 444 15 485 31 q 349 0 404 0 l 104 0 m 26 374 l 26 429 l 278 429 l 278 374 l 26 374 m 194 50 l 332 50 q 413 76 383 50 q 442 175 442 101 l 442 642 q 413 742 442 715 q 332 768 383 768 l 194 768 l 194 50 z "},"Ẽ":{"ha":475,"x_min":88,"x_max":442,"o":"m 88 0 l 88 821 l 442 821 l 442 758 l 178 758 l 178 464 l 389 464 l 389 394 l 178 394 l 178 63 l 442 63 l 442 0 l 88 0 m 322 889 q 290 895 303 889 q 257 914 276 901 q 230 930 244 921 q 199 939 215 939 q 171 927 182 939 q 157 890 160 915 l 122 890 q 144 958 124 932 q 200 983 165 983 q 235 976 219 983 q 268 957 251 968 q 296 942 283 949 q 322 935 308 935 q 351 946 340 935 q 367 981 363 957 l 403 981 q 390 932 401 953 q 360 900 378 911 q 322 889 343 889 z "},"F":{"ha":464,"x_min":88,"x_max":442,"o":"m 88 0 l 88 821 l 442 821 l 442 758 l 178 758 l 178 464 l 389 464 l 389 394 l 178 394 l 178 0 l 88 0 z "},"G":{"ha":558,"x_min":74,"x_max":489,"o":"m 258 -15 q 167 -2 208 -15 q 99 53 125 11 q 74 178 74 94 l 74 649 q 101 765 74 726 q 174 818 128 804 q 282 832 221 832 q 390 817 343 832 q 463 764 436 803 q 489 649 489 725 l 489 544 l 404 544 l 404 650 q 388 732 404 706 q 345 767 372 758 q 282 776 318 776 q 219 767 247 776 q 176 732 192 758 q 161 650 161 706 l 161 164 q 176 81 161 108 q 219 46 192 54 q 282 38 247 38 q 370 70 336 38 q 404 164 404 103 l 404 335 l 297 335 l 297 389 l 489 389 l 489 0 l 424 0 l 419 79 q 409 60 415 69 q 399 44 403 51 q 345 1 379 17 q 258 -15 311 -15 z "},"Ğ":{"ha":558,"x_min":74,"x_max":489,"o":"m 258 -15 q 167 -2 208 -15 q 99 53 125 11 q 74 178 74 94 l 74 649 q 101 765 74 726 q 174 818 128 804 q 282 832 221 832 q 390 817 343 832 q 463 764 436 803 q 489 649 489 725 l 489 544 l 404 544 l 404 650 q 388 732 404 706 q 345 767 372 758 q 282 776 318 776 q 219 767 247 776 q 176 732 192 758 q 161 650 161 706 l 161 164 q 176 81 161 108 q 219 46 192 54 q 282 38 247 38 q 370 70 336 38 q 404 164 404 103 l 404 335 l 297 335 l 297 389 l 489 389 l 489 0 l 424 0 l 419 79 q 409 60 415 69 q 399 44 403 51 q 345 1 379 17 q 258 -15 311 -15 m 278 875 q 196 896 225 875 q 155 946 167 917 q 142 999 143 975 l 193 999 q 222 940 199 960 q 279 921 246 921 q 338 940 314 921 q 365 999 361 958 l 417 999 q 401 942 415 971 q 358 894 388 914 q 278 875 328 875 z "},"Ģ":{"ha":558,"x_min":74,"x_max":489,"o":"m 258 -15 q 167 -2 208 -15 q 99 53 125 11 q 74 178 74 94 l 74 649 q 101 765 74 726 q 174 818 128 804 q 282 832 221 832 q 390 817 343 832 q 463 764 436 803 q 489 649 489 725 l 489 544 l 404 544 l 404 650 q 388 732 404 706 q 345 767 372 758 q 282 776 318 776 q 219 767 247 776 q 176 732 192 758 q 161 650 161 706 l 161 164 q 176 81 161 108 q 219 46 192 54 q 282 38 247 38 q 370 70 336 38 q 404 164 404 103 l 404 335 l 297 335 l 297 389 l 489 389 l 489 0 l 424 0 l 419 79 q 409 60 415 69 q 399 44 403 51 q 345 1 379 17 q 258 -15 311 -15 m 226 -226 q 253 -177 242 -200 q 264 -139 264 -154 q 257 -124 264 -129 q 243 -110 250 -118 q 236 -89 236 -103 q 249 -64 236 -75 q 279 -53 261 -53 q 313 -66 300 -53 q 325 -97 325 -79 q 316 -136 325 -112 q 293 -183 307 -160 q 264 -226 279 -207 l 226 -226 z "},"Ġ":{"ha":558,"x_min":74,"x_max":489,"o":"m 258 -15 q 167 -2 208 -15 q 99 53 125 11 q 74 178 74 94 l 74 649 q 101 765 74 726 q 174 818 128 804 q 282 832 221 832 q 390 817 343 832 q 463 764 436 803 q 489 649 489 725 l 489 544 l 404 544 l 404 650 q 388 732 404 706 q 345 767 372 758 q 282 776 318 776 q 219 767 247 776 q 176 732 192 758 q 161 650 161 706 l 161 164 q 176 81 161 108 q 219 46 192 54 q 282 38 247 38 q 370 70 336 38 q 404 164 404 103 l 404 335 l 297 335 l 297 389 l 489 389 l 489 0 l 424 0 l 419 79 q 409 60 415 69 q 399 44 403 51 q 345 1 379 17 q 258 -15 311 -15 m 288 889 q 250 903 265 889 q 235 940 235 918 q 250 976 235 961 q 288 990 265 990 q 324 976 308 990 q 340 940 340 961 q 324 903 340 918 q 288 889 308 889 z "},"Г":{"ha":439,"x_min":58,"x_max":417,"o":"m 58 0 l 58 821 l 417 821 l 417 757 l 150 757 l 150 0 l 58 0 z "},"ẞ":{"ha":1076,"x_min":81,"x_max":994,"o":"m 781 -10 q 673 13 718 -10 q 604 87 628 35 q 581 232 581 139 l 581 278 q 624 278 601 278 q 668 278 647 278 l 668 226 q 683 119 668 157 q 724 65 697 81 q 783 50 750 50 q 870 84 836 50 q 904 206 904 118 q 885 299 904 268 q 831 349 867 331 q 739 390 794 368 q 660 434 694 408 q 605 501 625 460 q 585 607 585 543 q 604 727 585 679 q 669 799 624 775 q 788 822 714 822 q 934 774 882 822 q 986 639 986 726 l 986 549 q 944 549 965 549 q 901 549 922 549 l 901 618 q 872 719 901 685 q 788 753 843 753 q 699 717 726 753 q 672 610 672 682 q 694 524 672 556 q 749 476 715 493 q 818 444 782 458 q 920 395 882 421 q 976 329 958 369 q 994 217 994 289 q 967 83 994 132 q 892 12 940 33 q 781 -10 844 -10 m 281 -10 q 173 13 218 -10 q 104 87 128 35 q 81 232 81 139 l 81 278 q 125 278 103 278 q 169 278 147 278 l 169 226 q 184 119 169 157 q 224 65 199 81 q 283 50 250 50 q 370 84 336 50 q 404 206 404 118 q 386 299 404 268 q 331 349 368 331 q 240 390 294 368 q 160 434 194 408 q 105 501 125 460 q 85 607 85 543 q 105 727 85 679 q 169 799 125 775 q 288 822 214 822 q 435 774 382 822 q 488 639 488 726 l 488 549 q 444 549 465 549 q 401 549 422 549 l 401 618 q 373 719 401 685 q 288 753 344 753 q 201 717 228 753 q 174 610 174 682 q 194 524 174 556 q 249 476 215 493 q 319 444 282 458 q 421 395 382 421 q 478 329 460 369 q 496 217 496 289 q 468 83 496 132 q 392 12 440 33 q 281 -10 344 -10 z "},"Ѓ":{"ha":439,"x_min":58,"x_max":417,"o":"m 58 0 l 58 821 l 417 821 l 417 757 l 150 757 l 150 0 l 58 0 m 153 881 l 264 996 l 353 996 l 208 881 l 153 881 z "},"H":{"ha":589,"x_min":88,"x_max":501,"o":"m 88 0 l 88 821 l 175 821 l 175 463 l 415 463 l 415 821 l 501 821 l 501 0 l 415 0 l 415 396 l 175 396 l 175 0 l 88 0 z "},"Х":{"ha":444,"x_min":24,"x_max":421,"o":"m 24 0 l 156 418 l 35 821 l 121 821 l 222 475 l 332 821 l 421 821 l 290 417 l 418 0 l 331 0 l 222 346 l 115 0 l 24 0 z "},"Ъ":{"ha":550,"x_min":13,"x_max":492,"o":"m 101 0 l 101 757 l 13 757 l 13 821 l 188 821 l 188 604 l 325 604 q 420 586 383 604 q 474 530 457 568 q 492 431 492 492 l 492 204 q 481 107 492 146 q 450 44 471 68 q 397 10 429 21 q 317 0 364 0 l 101 0 m 188 50 l 301 50 q 368 68 346 50 q 398 122 390 86 q 406 208 406 157 l 406 410 q 399 479 406 447 q 371 530 393 511 q 300 549 349 549 l 188 549 l 188 50 z "},"Ħ":{"ha":589,"x_min":36,"x_max":576,"o":"m 36 658 l 36 703 l 576 703 l 576 658 l 36 658 m 88 0 l 88 821 l 175 821 l 175 463 l 415 463 l 415 821 l 501 821 l 501 0 l 415 0 l 415 396 l 175 396 l 175 0 l 88 0 z "},"I":{"ha":261,"x_min":88,"x_max":175,"o":"m 88 0 l 88 821 l 175 821 l 175 0 l 88 0 z "},"І":{"ha":261,"x_min":88,"x_max":175,"o":"m 88 0 l 88 821 l 175 821 l 175 0 l 88 0 z "},"Я":{"ha":575,"x_min":40,"x_max":488,"o":"m 488 0 l 397 0 l 397 379 l 297 379 q 255 364 271 379 q 228 326 239 349 q 210 276 218 303 l 135 0 l 40 0 l 125 282 q 164 370 142 342 q 231 401 186 399 l 231 400 q 116 442 158 403 q 74 551 74 481 l 74 685 q 117 788 74 756 q 229 821 161 821 l 488 821 l 488 0 m 397 439 l 397 769 l 253 769 q 188 746 215 769 q 160 669 160 722 l 160 558 q 189 466 160 493 q 275 439 218 439 l 397 439 z "},"Í":{"ha":261,"x_min":64,"x_max":264,"o":"m 88 0 l 88 821 l 175 821 l 175 0 l 88 0 m 64 881 l 175 996 l 264 996 l 119 881 l 64 881 z "},"Ǐ":{"ha":261,"x_min":-18,"x_max":279,"o":"m 88 0 l 88 821 l 175 821 l 175 0 l 88 0 m 101 874 l -18 989 l 42 989 l 131 917 l 219 989 l 279 989 l 158 874 l 101 874 z "},"Î":{"ha":261,"x_min":-24,"x_max":285,"o":"m 88 0 l 88 821 l 175 821 l 175 0 l 88 0 m -24 874 l 101 999 l 160 999 l 285 874 l 225 874 l 131 956 l 38 874 l -24 874 z "},"Ï":{"ha":261,"x_min":18,"x_max":243,"o":"m 88 0 l 88 821 l 175 821 l 175 0 l 88 0 m 64 888 q 31 901 44 888 q 18 932 18 914 q 31 963 18 950 q 64 975 44 975 q 96 963 83 975 q 108 932 108 950 q 96 901 108 914 q 64 888 83 888 m 199 888 q 166 901 179 888 q 153 932 153 914 q 166 963 153 950 q 199 975 179 975 q 231 963 218 975 q 243 932 243 950 q 231 901 243 914 q 199 888 218 888 z "},"İ":{"ha":261,"x_min":86,"x_max":192,"o":"m 88 0 l 88 821 l 175 821 l 175 0 l 88 0 m 139 889 q 101 903 117 889 q 86 940 86 918 q 101 976 86 961 q 139 990 117 990 q 176 976 160 990 q 192 940 192 961 q 176 903 192 918 q 139 889 160 889 z "},"Ị":{"ha":261,"x_min":85,"x_max":178,"o":"m 88 0 l 88 821 l 175 821 l 175 0 l 88 0 m 131 -150 q 98 -137 111 -150 q 85 -106 85 -124 q 98 -73 85 -86 q 131 -60 111 -60 q 164 -73 150 -60 q 178 -106 178 -86 q 164 -137 178 -124 q 131 -150 150 -150 z "},"Е":{"ha":475,"x_min":88,"x_max":442,"o":"m 88 0 l 88 821 l 442 821 l 442 758 l 178 758 l 178 464 l 389 464 l 389 394 l 178 394 l 178 63 l 442 63 l 442 0 l 88 0 z "},"Ѐ":{"ha":475,"x_min":88,"x_max":442,"o":"m 88 0 l 88 821 l 442 821 l 442 758 l 178 758 l 178 464 l 389 464 l 389 394 l 178 394 l 178 63 l 442 63 l 442 0 l 88 0 m 274 881 l 135 993 l 225 993 l 335 881 l 274 881 z "},"Ì":{"ha":261,"x_min":-3,"x_max":196,"o":"m 88 0 l 88 821 l 175 821 l 175 0 l 88 0 m 136 881 l -3 993 l 88 993 l 197 881 l 136 881 z "},"Ỉ":{"ha":261,"x_min":49,"x_max":221,"o":"m 88 0 l 88 821 l 175 821 l 175 0 l 88 0 m 106 869 l 106 892 q 122 922 106 913 q 153 942 138 932 q 168 969 168 951 l 168 975 q 159 1001 168 989 q 129 1013 150 1013 q 93 979 100 1013 l 50 988 q 75 1033 54 1017 q 133 1049 96 1049 q 199 1033 178 1049 q 221 975 221 1017 l 221 972 q 204 929 221 942 q 171 910 188 917 q 154 886 154 903 l 154 869 l 106 869 z "},"И":{"ha":533,"x_min":58,"x_max":474,"o":"m 58 0 l 58 821 l 138 821 l 138 179 l 394 821 l 474 821 l 474 0 l 394 0 l 394 619 l 140 0 l 58 0 z "},"Ѝ":{"ha":533,"x_min":58,"x_max":474,"o":"m 58 0 l 58 821 l 138 821 l 138 179 l 394 821 l 474 821 l 474 0 l 394 0 l 394 619 l 140 0 l 58 0 m 271 881 l 132 993 l 222 993 l 332 881 l 271 881 z "},"Й":{"ha":533,"x_min":58,"x_max":474,"o":"m 58 0 l 58 821 l 138 821 l 138 179 l 394 821 l 474 821 l 474 0 l 394 0 l 394 619 l 140 0 l 58 0 m 264 875 q 182 896 211 875 q 141 946 153 917 q 128 999 129 975 l 179 999 q 208 940 185 960 q 265 921 232 921 q 324 940 300 921 q 351 999 347 958 l 403 999 q 388 942 401 971 q 344 894 374 914 q 264 875 314 875 z "},"Ī":{"ha":261,"x_min":1,"x_max":260,"o":"m 88 0 l 88 821 l 175 821 l 175 0 l 88 0 m 1 904 l 1 951 l 260 951 l 260 904 l 1 904 z "},"Ё":{"ha":475,"x_min":88,"x_max":442,"o":"m 88 0 l 88 821 l 442 821 l 442 758 l 178 758 l 178 464 l 389 464 l 389 394 l 178 394 l 178 63 l 442 63 l 442 0 l 88 0 m 203 888 q 170 901 183 888 q 157 932 157 914 q 170 963 157 950 q 203 975 183 975 q 235 963 222 975 q 247 932 247 950 q 235 901 247 914 q 203 888 222 888 m 338 888 q 305 901 318 888 q 292 932 292 914 q 305 963 292 950 q 338 975 318 975 q 369 963 357 975 q 382 932 382 950 q 369 901 382 914 q 338 888 357 888 z "},"Į":{"ha":261,"x_min":39,"x_max":200,"o":"m 88 0 l 88 821 l 175 821 l 175 0 l 88 0 m 135 -187 q 67 -165 94 -187 q 39 -107 39 -142 q 67 -39 39 -68 q 129 1 94 -10 l 174 0 q 118 -43 138 -17 q 99 -96 99 -69 q 117 -136 99 -122 q 153 -150 135 -150 q 174 -147 165 -150 q 188 -142 183 -144 l 201 -171 q 177 -182 193 -176 q 135 -187 161 -187 z "},"Ĩ":{"ha":261,"x_min":-11,"x_max":269,"o":"m 88 0 l 88 821 l 175 821 l 175 0 l 88 0 m 189 889 q 156 895 169 889 q 124 914 143 901 q 97 930 111 921 q 65 939 82 939 q 38 927 49 939 q 24 890 26 915 l -11 890 q 11 958 -10 932 q 67 983 32 983 q 102 976 86 983 q 135 957 118 968 q 163 942 150 949 q 189 935 175 935 q 218 946 207 935 q 233 981 229 957 l 269 981 q 256 932 268 953 q 227 900 244 911 q 189 889 210 889 z "},"Ю":{"ha":817,"x_min":58,"x_max":758,"o":"m 549 -17 q 442 -3 489 -17 q 367 56 394 11 q 339 190 339 100 l 339 396 l 147 396 l 147 0 l 58 0 l 58 821 l 147 821 l 147 463 l 339 463 l 339 647 q 367 766 339 726 q 442 819 394 806 q 550 832 489 832 q 659 818 613 832 q 732 765 706 804 q 758 647 758 725 l 758 190 q 732 55 758 99 q 658 -3 706 11 q 549 -17 611 -17 m 550 38 q 612 46 585 38 q 654 81 639 54 q 669 160 669 107 l 669 654 q 654 733 669 707 q 612 767 639 758 q 550 776 585 776 q 488 767 515 776 q 446 733 461 758 q 431 654 431 707 l 431 160 q 446 81 431 107 q 488 46 461 54 q 550 38 515 38 z "},"J":{"ha":303,"x_min":10,"x_max":222,"o":"m 67 -1 q 39 -1 54 -1 q 10 0 24 -1 l 10 63 l 56 63 q 117 78 100 61 q 135 143 135 96 l 135 821 l 222 821 l 222 181 q 210 71 222 111 q 164 15 197 31 q 67 -1 131 -1 z "},"Ј":{"ha":303,"x_min":10,"x_max":222,"o":"m 67 -1 q 39 -1 54 -1 q 10 0 24 -1 l 10 63 l 56 63 q 117 78 100 61 q 135 143 135 96 l 135 821 l 222 821 l 222 181 q 210 71 222 111 q 164 15 197 31 q 67 -1 131 -1 z "},"K":{"ha":521,"x_min":88,"x_max":503,"o":"m 406 0 l 193 426 l 400 821 l 496 821 l 282 425 l 503 0 l 406 0 m 88 0 l 88 821 l 175 821 l 175 0 l 88 0 z "},"К":{"ha":525,"x_min":58,"x_max":493,"o":"m 58 0 l 58 821 l 146 821 l 146 449 l 197 449 l 390 821 l 488 821 l 279 425 l 493 0 l 394 0 l 203 386 l 146 386 l 146 0 l 58 0 z "},"Ķ":{"ha":521,"x_min":88,"x_max":503,"o":"m 406 0 l 193 426 l 400 821 l 496 821 l 282 425 l 503 0 l 406 0 m 88 0 l 88 821 l 175 821 l 175 0 l 88 0 m 228 -226 q 254 -177 243 -200 q 265 -139 265 -154 q 258 -124 265 -129 q 244 -110 251 -118 q 238 -89 238 -103 q 250 -64 238 -75 q 281 -53 263 -53 q 314 -66 301 -53 q 326 -97 326 -79 q 317 -136 326 -112 q 294 -183 308 -160 q 265 -226 281 -207 l 228 -226 z "},"Ќ":{"ha":525,"x_min":58,"x_max":493,"o":"m 58 0 l 58 821 l 146 821 l 146 449 l 197 449 l 390 821 l 488 821 l 279 425 l 493 0 l 394 0 l 203 386 l 146 386 l 146 0 l 58 0 m 196 881 l 307 996 l 396 996 l 251 881 l 196 881 z "},"L":{"ha":413,"x_min":88,"x_max":403,"o":"m 88 0 l 88 821 l 174 821 l 174 63 l 403 63 l 403 0 l 88 0 z "},"Ĺ":{"ha":413,"x_min":83,"x_max":403,"o":"m 88 0 l 88 821 l 174 821 l 174 63 l 403 63 l 403 0 l 88 0 m 82 881 l 193 996 l 282 996 l 138 881 l 82 881 z "},"Ľ":{"ha":424,"x_min":88,"x_max":403,"o":"m 88 0 l 88 821 l 174 821 l 174 63 l 403 63 l 403 0 l 88 0 m 307 667 l 333 846 l 390 846 l 342 667 l 307 667 z "},"Ļ":{"ha":413,"x_min":88,"x_max":403,"o":"m 88 0 l 88 821 l 174 821 l 174 63 l 403 63 l 403 0 l 88 0 m 189 -226 q 215 -177 204 -200 q 226 -139 226 -154 q 219 -124 226 -129 q 206 -110 213 -118 q 199 -89 199 -103 q 211 -64 199 -75 q 242 -53 224 -53 q 275 -66 263 -53 q 288 -97 288 -79 q 278 -136 288 -112 q 256 -183 269 -160 q 226 -226 242 -207 l 189 -226 z "},"Љ":{"ha":889,"x_min":22,"x_max":829,"o":"m 22 0 l 22 50 q 68 76 49 50 q 90 153 88 101 l 136 821 l 528 821 l 528 0 l 440 0 l 440 757 l 222 757 l 176 129 q 172 88 175 110 q 158 48 168 67 q 128 15 149 29 q 74 0 108 1 l 22 0 m 528 50 l 640 50 q 708 68 686 50 q 738 122 731 86 q 746 208 746 157 l 746 410 q 739 479 746 447 q 710 530 732 511 q 639 549 688 549 l 528 549 l 528 50 m 440 0 l 440 819 l 526 819 l 526 604 l 664 604 q 758 586 722 604 q 812 530 794 568 q 829 431 829 492 l 829 204 q 819 107 829 146 q 789 44 810 68 q 735 10 768 21 q 656 0 701 0 l 440 0 z "},"Ł":{"ha":510,"x_min":54,"x_max":454,"o":"m 139 0 l 139 238 l 54 200 l 54 249 l 139 286 l 139 818 l 225 818 l 225 324 l 358 386 l 358 339 l 225 276 l 225 63 l 454 63 l 454 0 l 139 0 z "},"M":{"ha":736,"x_min":88,"x_max":649,"o":"m 88 0 l 88 821 l 190 821 l 368 153 l 550 821 l 649 821 l 649 0 l 571 0 l 571 664 l 400 0 l 338 0 l 167 664 l 167 0 l 88 0 z "},"N":{"ha":586,"x_min":88,"x_max":500,"o":"m 88 0 l 88 821 l 164 821 l 421 179 l 421 821 l 500 821 l 500 0 l 421 0 l 167 618 l 167 0 l 88 0 z "},"Ń":{"ha":586,"x_min":88,"x_max":500,"o":"m 88 0 l 88 821 l 164 821 l 421 179 l 421 821 l 500 821 l 500 0 l 421 0 l 167 618 l 167 0 l 88 0 m 232 881 l 343 996 l 432 996 l 288 881 l 232 881 z "},"Ň":{"ha":586,"x_min":88,"x_max":500,"o":"m 88 0 l 88 821 l 164 821 l 421 179 l 421 821 l 500 821 l 500 0 l 421 0 l 167 618 l 167 0 l 88 0 m 269 874 l 150 989 l 210 989 l 299 917 l 388 989 l 447 989 l 326 874 l 269 874 z "},"Ņ":{"ha":586,"x_min":88,"x_max":500,"o":"m 88 0 l 88 821 l 164 821 l 421 179 l 421 821 l 500 821 l 500 0 l 421 0 l 167 618 l 167 0 l 88 0 m 239 -226 q 265 -177 254 -200 q 276 -139 276 -154 q 269 -124 276 -129 q 256 -110 263 -118 q 249 -89 249 -103 q 261 -64 249 -75 q 292 -53 274 -53 q 325 -66 313 -53 q 338 -97 338 -79 q 328 -136 338 -112 q 306 -183 319 -160 q 276 -226 292 -207 l 239 -226 z "},"Њ":{"ha":840,"x_min":58,"x_max":778,"o":"m 58 0 l 58 821 l 146 821 l 146 461 l 388 461 l 388 821 l 476 821 l 476 604 l 613 604 q 707 586 671 604 q 760 530 743 568 q 778 431 778 492 l 778 204 q 768 107 778 146 q 738 44 758 68 q 683 10 717 21 q 604 0 650 0 l 388 0 l 388 394 l 146 394 l 146 0 l 58 0 m 476 50 l 588 50 q 656 68 633 50 q 685 122 678 86 q 692 206 692 157 l 692 396 q 685 477 692 443 q 657 530 679 511 q 586 549 635 549 l 476 549 l 476 50 z "},"Ñ":{"ha":586,"x_min":88,"x_max":500,"o":"m 88 0 l 88 821 l 164 821 l 421 179 l 421 821 l 500 821 l 500 0 l 421 0 l 167 618 l 167 0 l 88 0 m 357 889 q 324 895 338 889 q 292 914 311 901 q 265 930 279 921 q 233 939 250 939 q 206 927 217 939 q 192 890 194 915 l 157 890 q 179 958 158 932 q 235 983 200 983 q 270 976 254 983 q 303 957 286 968 q 331 942 318 949 q 357 935 343 935 q 386 946 375 935 q 401 981 397 957 l 438 981 q 424 932 436 953 q 395 900 413 911 q 357 889 378 889 z "},"O":{"ha":564,"x_min":74,"x_max":489,"o":"m 279 -17 q 174 -3 219 -17 q 101 55 128 11 q 74 188 74 99 l 74 650 q 101 767 74 728 q 175 819 128 806 q 282 832 222 832 q 388 818 342 832 q 462 765 435 804 q 489 650 489 726 l 489 189 q 462 55 489 99 q 388 -3 435 11 q 279 -17 342 -17 m 281 38 q 344 47 317 38 q 386 83 371 56 q 401 164 401 110 l 401 650 q 386 731 401 704 q 343 767 371 758 q 281 776 315 776 q 217 767 244 776 q 175 731 190 758 q 160 650 160 704 l 160 164 q 175 83 160 110 q 217 47 190 56 q 281 38 244 38 z "},"О":{"ha":564,"x_min":74,"x_max":489,"o":"m 279 -17 q 174 -3 219 -17 q 101 55 128 11 q 74 188 74 99 l 74 650 q 101 767 74 728 q 175 819 128 806 q 282 832 222 832 q 388 818 342 832 q 462 765 435 804 q 489 650 489 726 l 489 189 q 462 55 489 99 q 388 -3 435 11 q 279 -17 342 -17 m 281 38 q 344 47 317 38 q 386 83 371 56 q 401 164 401 110 l 401 650 q 386 731 401 704 q 343 767 371 758 q 281 776 315 776 q 217 767 244 776 q 175 731 190 758 q 160 650 160 704 l 160 164 q 175 83 160 110 q 217 47 190 56 q 281 38 244 38 z "},"Œ":{"ha":799,"x_min":74,"x_max":765,"o":"m 281 -17 q 174 -3 221 -17 q 101 55 128 11 q 74 188 74 99 l 74 650 q 101 767 74 728 q 175 819 128 806 q 282 832 222 832 q 385 818 340 832 q 456 765 431 804 q 482 650 482 726 l 482 189 q 456 55 482 99 q 385 -3 431 11 q 281 -17 340 -17 m 282 38 q 345 47 318 38 q 388 83 372 56 q 403 164 403 110 l 403 650 q 388 731 403 704 q 344 767 372 758 q 282 776 317 776 q 219 767 246 776 q 176 731 192 758 q 160 650 160 704 l 160 164 q 176 83 160 110 q 219 47 192 56 q 282 38 246 38 m 403 0 l 403 821 l 765 821 l 765 758 l 490 758 l 490 464 l 713 464 l 713 394 l 490 394 l 490 63 l 765 63 l 765 0 l 403 0 z "},"Ó":{"ha":564,"x_min":74,"x_max":489,"o":"m 279 -17 q 174 -3 219 -17 q 101 55 128 11 q 74 188 74 99 l 74 650 q 101 767 74 728 q 175 819 128 806 q 282 832 222 832 q 388 818 342 832 q 462 765 435 804 q 489 650 489 726 l 489 189 q 462 55 489 99 q 388 -3 435 11 q 279 -17 342 -17 m 281 38 q 344 47 317 38 q 386 83 371 56 q 401 164 401 110 l 401 650 q 386 731 401 704 q 343 767 371 758 q 281 776 315 776 q 217 767 244 776 q 175 731 190 758 q 160 650 160 704 l 160 164 q 175 83 160 110 q 217 47 190 56 q 281 38 244 38 m 215 881 l 326 996 l 415 996 l 271 881 l 215 881 z "},"Ǒ":{"ha":564,"x_min":74,"x_max":489,"o":"m 279 -17 q 174 -3 219 -17 q 101 55 128 11 q 74 188 74 99 l 74 650 q 101 767 74 728 q 175 819 128 806 q 282 832 222 832 q 388 818 342 832 q 462 765 435 804 q 489 650 489 726 l 489 189 q 462 55 489 99 q 388 -3 435 11 q 279 -17 342 -17 m 281 38 q 344 47 317 38 q 386 83 371 56 q 401 164 401 110 l 401 650 q 386 731 401 704 q 343 767 371 758 q 281 776 315 776 q 217 767 244 776 q 175 731 190 758 q 160 650 160 704 l 160 164 q 175 83 160 110 q 217 47 190 56 q 281 38 244 38 m 253 874 l 133 989 l 193 989 l 282 917 l 371 989 l 431 989 l 310 874 l 253 874 z "},"Ô":{"ha":564,"x_min":74,"x_max":489,"o":"m 279 -17 q 174 -3 219 -17 q 101 55 128 11 q 74 188 74 99 l 74 650 q 101 767 74 728 q 175 819 128 806 q 282 832 222 832 q 388 818 342 832 q 462 765 435 804 q 489 650 489 726 l 489 189 q 462 55 489 99 q 388 -3 435 11 q 279 -17 342 -17 m 281 38 q 344 47 317 38 q 386 83 371 56 q 401 164 401 110 l 401 650 q 386 731 401 704 q 343 767 371 758 q 281 776 315 776 q 217 767 244 776 q 175 731 190 758 q 160 650 160 704 l 160 164 q 175 83 160 110 q 217 47 190 56 q 281 38 244 38 m 128 874 l 253 999 l 311 999 l 436 874 l 376 874 l 282 956 l 189 874 l 128 874 z "},"Ố":{"ha":564,"x_min":74,"x_max":536,"o":"m 279 -17 q 174 -3 219 -17 q 101 55 128 11 q 74 188 74 99 l 74 650 q 101 767 74 728 q 175 819 128 806 q 282 832 222 832 q 388 818 342 832 q 462 765 435 804 q 489 650 489 726 l 489 189 q 462 55 489 99 q 388 -3 435 11 q 279 -17 342 -17 m 281 38 q 344 47 317 38 q 386 83 371 56 q 401 164 401 110 l 401 650 q 386 731 401 704 q 343 767 371 758 q 281 776 315 776 q 217 767 244 776 q 175 731 190 758 q 160 650 160 704 l 160 164 q 175 83 160 110 q 217 47 190 56 q 281 38 244 38 m 167 869 l 256 965 l 308 965 l 397 869 l 343 869 l 282 925 l 224 869 l 167 869 m 396 931 l 451 1025 l 536 1025 l 450 931 l 396 931 z "},"Ộ":{"ha":564,"x_min":74,"x_max":489,"o":"m 279 -17 q 174 -3 219 -17 q 101 55 128 11 q 74 188 74 99 l 74 650 q 101 767 74 728 q 175 819 128 806 q 282 832 222 832 q 388 818 342 832 q 462 765 435 804 q 489 650 489 726 l 489 189 q 462 55 489 99 q 388 -3 435 11 q 279 -17 342 -17 m 281 38 q 344 47 317 38 q 386 83 371 56 q 401 164 401 110 l 401 650 q 386 731 401 704 q 343 767 371 758 q 281 776 315 776 q 217 767 244 776 q 175 731 190 758 q 160 650 160 704 l 160 164 q 175 83 160 110 q 217 47 190 56 q 281 38 244 38 m 282 -150 q 249 -137 263 -150 q 236 -106 236 -124 q 249 -73 236 -86 q 282 -60 263 -60 q 315 -73 301 -60 q 329 -106 329 -86 q 315 -137 329 -124 q 282 -150 301 -150 m 128 874 l 253 999 l 311 999 l 436 874 l 376 874 l 282 956 l 189 874 l 128 874 z "},"Ồ":{"ha":564,"x_min":74,"x_max":489,"o":"m 279 -17 q 174 -3 219 -17 q 101 55 128 11 q 74 188 74 99 l 74 650 q 101 767 74 728 q 175 819 128 806 q 282 832 222 832 q 388 818 342 832 q 462 765 435 804 q 489 650 489 726 l 489 189 q 462 55 489 99 q 388 -3 435 11 q 279 -17 342 -17 m 281 38 q 344 47 317 38 q 386 83 371 56 q 401 164 401 110 l 401 650 q 386 731 401 704 q 343 767 371 758 q 281 776 315 776 q 217 767 244 776 q 175 731 190 758 q 160 650 160 704 l 160 164 q 175 83 160 110 q 217 47 190 56 q 281 38 244 38 m 167 869 l 256 965 l 308 965 l 397 869 l 343 869 l 282 925 l 224 869 l 167 869 m 431 929 l 343 1024 l 429 1024 l 485 929 l 431 929 z "},"Ổ":{"ha":564,"x_min":74,"x_max":503,"o":"m 279 -17 q 174 -3 219 -17 q 101 55 128 11 q 74 188 74 99 l 74 650 q 101 767 74 728 q 175 819 128 806 q 282 832 222 832 q 388 818 342 832 q 462 765 435 804 q 489 650 489 726 l 489 189 q 462 55 489 99 q 388 -3 435 11 q 279 -17 342 -17 m 281 38 q 344 47 317 38 q 386 83 371 56 q 401 164 401 110 l 401 650 q 386 731 401 704 q 343 767 371 758 q 281 776 315 776 q 217 767 244 776 q 175 731 190 758 q 160 650 160 704 l 160 164 q 175 83 160 110 q 217 47 190 56 q 281 38 244 38 m 167 869 l 256 965 l 308 965 l 397 869 l 343 869 l 282 925 l 224 869 l 167 869 m 410 928 l 410 943 q 421 964 410 957 q 444 977 432 971 q 456 996 456 983 l 456 1000 q 449 1018 456 1011 q 429 1025 442 1025 q 407 1003 411 1025 l 368 1010 q 387 1045 371 1032 q 433 1058 403 1058 q 487 1046 471 1058 q 503 1003 503 1033 l 503 999 q 492 969 503 978 q 468 956 481 961 q 456 939 456 950 l 456 928 l 410 928 z "},"Ỗ":{"ha":564,"x_min":74,"x_max":489,"o":"m 279 -17 q 174 -3 219 -17 q 101 55 128 11 q 74 188 74 99 l 74 650 q 101 767 74 728 q 175 819 128 806 q 282 832 222 832 q 388 818 342 832 q 462 765 435 804 q 489 650 489 726 l 489 189 q 462 55 489 99 q 388 -3 435 11 q 279 -17 342 -17 m 281 38 q 344 47 317 38 q 386 83 371 56 q 401 164 401 110 l 401 650 q 386 731 401 704 q 343 767 371 758 q 281 776 315 776 q 217 767 244 776 q 175 731 190 758 q 160 650 160 704 l 160 164 q 175 83 160 110 q 217 47 190 56 q 281 38 244 38 m 167 869 l 256 965 l 308 965 l 397 869 l 343 869 l 282 925 l 224 869 l 167 869 m 325 988 q 300 992 311 988 q 276 1007 289 997 q 256 1018 267 1013 q 235 1024 246 1024 q 214 1015 222 1024 q 204 989 206 1006 l 176 989 q 194 1044 178 1025 q 235 1064 210 1064 q 260 1060 249 1064 q 286 1046 272 1056 q 306 1035 296 1039 q 325 1031 317 1031 q 347 1039 339 1031 q 357 1063 356 1047 l 388 1063 q 377 1023 386 1040 q 354 997 368 1006 q 325 988 340 988 z "},"Ö":{"ha":564,"x_min":74,"x_max":489,"o":"m 279 -17 q 174 -3 219 -17 q 101 55 128 11 q 74 188 74 99 l 74 650 q 101 767 74 728 q 175 819 128 806 q 282 832 222 832 q 388 818 342 832 q 462 765 435 804 q 489 650 489 726 l 489 189 q 462 55 489 99 q 388 -3 435 11 q 279 -17 342 -17 m 281 38 q 344 47 317 38 q 386 83 371 56 q 401 164 401 110 l 401 650 q 386 731 401 704 q 343 767 371 758 q 281 776 315 776 q 217 767 244 776 q 175 731 190 758 q 160 650 160 704 l 160 164 q 175 83 160 110 q 217 47 190 56 q 281 38 244 38 m 215 888 q 183 901 196 888 q 169 932 169 914 q 183 963 169 950 q 215 975 196 975 q 247 963 235 975 q 260 932 260 950 q 247 901 260 914 q 215 888 235 888 m 350 888 q 317 901 331 888 q 304 932 304 914 q 317 963 304 950 q 350 975 331 975 q 382 963 369 975 q 394 932 394 950 q 382 901 394 914 q 350 888 369 888 z "},"Ọ":{"ha":564,"x_min":74,"x_max":489,"o":"m 279 -17 q 174 -3 219 -17 q 101 55 128 11 q 74 188 74 99 l 74 650 q 101 767 74 728 q 175 819 128 806 q 282 832 222 832 q 388 818 342 832 q 462 765 435 804 q 489 650 489 726 l 489 189 q 462 55 489 99 q 388 -3 435 11 q 279 -17 342 -17 m 281 38 q 344 47 317 38 q 386 83 371 56 q 401 164 401 110 l 401 650 q 386 731 401 704 q 343 767 371 758 q 281 776 315 776 q 217 767 244 776 q 175 731 190 758 q 160 650 160 704 l 160 164 q 175 83 160 110 q 217 47 190 56 q 281 38 244 38 m 282 -150 q 249 -137 263 -150 q 236 -106 236 -124 q 249 -73 236 -86 q 282 -60 263 -60 q 315 -73 301 -60 q 329 -106 329 -86 q 315 -137 329 -124 q 282 -150 301 -150 z "},"Ò":{"ha":564,"x_min":74,"x_max":489,"o":"m 279 -17 q 174 -3 219 -17 q 101 55 128 11 q 74 188 74 99 l 74 650 q 101 767 74 728 q 175 819 128 806 q 282 832 222 832 q 388 818 342 832 q 462 765 435 804 q 489 650 489 726 l 489 189 q 462 55 489 99 q 388 -3 435 11 q 279 -17 342 -17 m 281 38 q 344 47 317 38 q 386 83 371 56 q 401 164 401 110 l 401 650 q 386 731 401 704 q 343 767 371 758 q 281 776 315 776 q 217 767 244 776 q 175 731 190 758 q 160 650 160 704 l 160 164 q 175 83 160 110 q 217 47 190 56 q 281 38 244 38 m 288 881 l 149 993 l 239 993 l 349 881 l 288 881 z "},"Ỏ":{"ha":564,"x_min":74,"x_max":489,"o":"m 279 -17 q 174 -3 219 -17 q 101 55 128 11 q 74 188 74 99 l 74 650 q 101 767 74 728 q 175 819 128 806 q 282 832 222 832 q 388 818 342 832 q 462 765 435 804 q 489 650 489 726 l 489 189 q 462 55 489 99 q 388 -3 435 11 q 279 -17 342 -17 m 281 38 q 344 47 317 38 q 386 83 371 56 q 401 164 401 110 l 401 650 q 386 731 401 704 q 343 767 371 758 q 281 776 315 776 q 217 767 244 776 q 175 731 190 758 q 160 650 160 704 l 160 164 q 175 83 160 110 q 217 47 190 56 q 281 38 244 38 m 256 869 l 256 892 q 272 922 256 913 q 303 942 288 932 q 318 969 318 951 l 318 975 q 309 1001 318 989 q 279 1013 300 1013 q 243 979 250 1013 l 200 988 q 225 1033 204 1017 q 283 1049 246 1049 q 349 1033 328 1049 q 371 975 371 1017 l 371 972 q 354 929 371 942 q 321 910 338 917 q 304 886 304 903 l 304 869 l 256 869 z "},"Ơ":{"ha":564,"x_min":74,"x_max":497,"o":"m 279 -17 q 174 -3 219 -17 q 101 55 128 11 q 74 188 74 99 l 74 650 q 101 767 74 728 q 175 819 128 806 q 282 832 222 832 q 388 818 342 832 q 462 765 435 804 q 489 650 489 726 l 489 189 q 462 55 489 99 q 388 -3 435 11 q 279 -17 342 -17 m 281 38 q 344 47 317 38 q 386 83 371 56 q 401 164 401 110 l 401 650 q 386 731 401 704 q 343 767 371 758 q 281 776 315 776 q 217 767 244 776 q 175 731 190 758 q 160 650 160 704 l 160 164 q 175 83 160 110 q 217 47 190 56 q 281 38 244 38 m 357 778 l 353 821 l 369 821 q 438 883 438 821 l 438 907 l 499 907 l 499 889 q 462 805 499 833 q 357 778 425 776 z "},"Ớ":{"ha":564,"x_min":74,"x_max":497,"o":"m 279 -17 q 174 -3 219 -17 q 101 55 128 11 q 74 188 74 99 l 74 650 q 101 767 74 728 q 175 819 128 806 q 282 832 222 832 q 388 818 342 832 q 462 765 435 804 q 489 650 489 726 l 489 189 q 462 55 489 99 q 388 -3 435 11 q 279 -17 342 -17 m 281 38 q 344 47 317 38 q 386 83 371 56 q 401 164 401 110 l 401 650 q 386 731 401 704 q 343 767 371 758 q 281 776 315 776 q 217 767 244 776 q 175 731 190 758 q 160 650 160 704 l 160 164 q 175 83 160 110 q 217 47 190 56 q 281 38 244 38 m 357 778 l 353 821 l 369 821 q 438 883 438 821 l 438 907 l 499 907 l 499 889 q 462 805 499 833 q 357 778 425 776 m 215 881 l 326 996 l 415 996 l 271 881 l 215 881 z "},"Ợ":{"ha":564,"x_min":74,"x_max":497,"o":"m 279 -17 q 174 -3 219 -17 q 101 55 128 11 q 74 188 74 99 l 74 650 q 101 767 74 728 q 175 819 128 806 q 282 832 222 832 q 388 818 342 832 q 462 765 435 804 q 489 650 489 726 l 489 189 q 462 55 489 99 q 388 -3 435 11 q 279 -17 342 -17 m 281 38 q 344 47 317 38 q 386 83 371 56 q 401 164 401 110 l 401 650 q 386 731 401 704 q 343 767 371 758 q 281 776 315 776 q 217 767 244 776 q 175 731 190 758 q 160 650 160 704 l 160 164 q 175 83 160 110 q 217 47 190 56 q 281 38 244 38 m 357 778 l 353 821 l 369 821 q 438 883 438 821 l 438 907 l 499 907 l 499 889 q 462 805 499 833 q 357 778 425 776 m 282 -150 q 249 -137 263 -150 q 236 -106 236 -124 q 249 -73 236 -86 q 282 -60 263 -60 q 315 -73 301 -60 q 329 -106 329 -86 q 315 -137 329 -124 q 282 -150 301 -150 z "},"Ờ":{"ha":564,"x_min":74,"x_max":497,"o":"m 279 -17 q 174 -3 219 -17 q 101 55 128 11 q 74 188 74 99 l 74 650 q 101 767 74 728 q 175 819 128 806 q 282 832 222 832 q 388 818 342 832 q 462 765 435 804 q 489 650 489 726 l 489 189 q 462 55 489 99 q 388 -3 435 11 q 279 -17 342 -17 m 281 38 q 344 47 317 38 q 386 83 371 56 q 401 164 401 110 l 401 650 q 386 731 401 704 q 343 767 371 758 q 281 776 315 776 q 217 767 244 776 q 175 731 190 758 q 160 650 160 704 l 160 164 q 175 83 160 110 q 217 47 190 56 q 281 38 244 38 m 357 778 l 353 821 l 369 821 q 438 883 438 821 l 438 907 l 499 907 l 499 889 q 462 805 499 833 q 357 778 425 776 m 288 881 l 149 993 l 239 993 l 349 881 l 288 881 z "},"Ở":{"ha":564,"x_min":74,"x_max":497,"o":"m 279 -17 q 174 -3 219 -17 q 101 55 128 11 q 74 188 74 99 l 74 650 q 101 767 74 728 q 175 819 128 806 q 282 832 222 832 q 388 818 342 832 q 462 765 435 804 q 489 650 489 726 l 489 189 q 462 55 489 99 q 388 -3 435 11 q 279 -17 342 -17 m 281 38 q 344 47 317 38 q 386 83 371 56 q 401 164 401 110 l 401 650 q 386 731 401 704 q 343 767 371 758 q 281 776 315 776 q 217 767 244 776 q 175 731 190 758 q 160 650 160 704 l 160 164 q 175 83 160 110 q 217 47 190 56 q 281 38 244 38 m 357 778 l 353 821 l 369 821 q 438 883 438 821 l 438 907 l 499 907 l 499 889 q 462 805 499 833 q 357 778 425 776 m 256 869 l 256 892 q 272 922 256 913 q 303 942 288 932 q 318 969 318 951 l 318 975 q 309 1001 318 989 q 279 1013 300 1013 q 243 979 250 1013 l 200 988 q 225 1033 204 1017 q 283 1049 246 1049 q 349 1033 328 1049 q 371 975 371 1017 l 371 972 q 354 929 371 942 q 321 910 338 917 q 304 886 304 903 l 304 869 l 256 869 z "},"Ỡ":{"ha":564,"x_min":74,"x_max":497,"o":"m 279 -17 q 174 -3 219 -17 q 101 55 128 11 q 74 188 74 99 l 74 650 q 101 767 74 728 q 175 819 128 806 q 282 832 222 832 q 388 818 342 832 q 462 765 435 804 q 489 650 489 726 l 489 189 q 462 55 489 99 q 388 -3 435 11 q 279 -17 342 -17 m 281 38 q 344 47 317 38 q 386 83 371 56 q 401 164 401 110 l 401 650 q 386 731 401 704 q 343 767 371 758 q 281 776 315 776 q 217 767 244 776 q 175 731 190 758 q 160 650 160 704 l 160 164 q 175 83 160 110 q 217 47 190 56 q 281 38 244 38 m 357 778 l 353 821 l 369 821 q 438 883 438 821 l 438 907 l 499 907 l 499 889 q 462 805 499 833 q 357 778 425 776 m 340 889 q 308 895 321 889 q 275 914 294 901 q 248 930 263 921 q 217 939 233 939 q 189 927 200 939 q 175 890 178 915 l 140 890 q 163 958 142 932 q 218 983 183 983 q 253 976 238 983 q 286 957 269 968 q 314 942 301 949 q 340 935 326 935 q 369 946 358 935 q 385 981 381 957 l 421 981 q 408 932 419 953 q 378 900 396 911 q 340 889 361 889 z "},"Ő":{"ha":564,"x_min":74,"x_max":489,"o":"m 279 -17 q 174 -3 219 -17 q 101 55 128 11 q 74 188 74 99 l 74 650 q 101 767 74 728 q 175 819 128 806 q 282 832 222 832 q 388 818 342 832 q 462 765 435 804 q 489 650 489 726 l 489 189 q 462 55 489 99 q 388 -3 435 11 q 279 -17 342 -17 m 281 38 q 344 47 317 38 q 386 83 371 56 q 401 164 401 110 l 401 650 q 386 731 401 704 q 343 767 371 758 q 281 776 315 776 q 217 767 244 776 q 175 731 190 758 q 160 650 160 704 l 160 164 q 175 83 160 110 q 217 47 190 56 q 281 38 244 38 m 201 874 l 240 1001 l 317 1001 l 240 874 l 201 874 m 300 874 l 347 1001 l 422 1001 l 343 874 l 300 874 z "},"Ō":{"ha":564,"x_min":74,"x_max":489,"o":"m 279 -17 q 174 -3 219 -17 q 101 55 128 11 q 74 188 74 99 l 74 650 q 101 767 74 728 q 175 819 128 806 q 282 832 222 832 q 388 818 342 832 q 462 765 435 804 q 489 650 489 726 l 489 189 q 462 55 489 99 q 388 -3 435 11 q 279 -17 342 -17 m 281 38 q 344 47 317 38 q 386 83 371 56 q 401 164 401 110 l 401 650 q 386 731 401 704 q 343 767 371 758 q 281 776 315 776 q 217 767 244 776 q 175 731 190 758 q 160 650 160 704 l 160 164 q 175 83 160 110 q 217 47 190 56 q 281 38 244 38 m 153 904 l 153 951 l 411 951 l 411 904 l 153 904 z "},"Ω":{"ha":833,"x_min":64,"x_max":788,"o":"m 64 0 l 64 69 l 290 64 l 276 72 q 164 193 204 131 q 108 317 124 256 q 92 429 92 378 q 113 574 92 508 q 175 685 133 639 q 280 758 217 732 q 428 783 343 783 q 575 758 513 783 q 678 685 638 732 q 740 575 719 639 q 760 435 760 511 q 743 319 760 381 q 686 195 726 258 q 574 72 646 132 l 560 64 l 788 69 l 788 0 l 475 0 l 475 50 q 575 146 536 97 q 635 243 614 194 q 665 337 657 292 q 672 422 672 382 q 644 581 672 511 q 562 689 617 650 q 426 728 507 728 q 291 688 347 728 q 206 577 235 649 q 178 410 178 506 q 186 333 178 376 q 216 240 194 289 q 276 143 238 192 q 375 50 314 94 l 375 0 l 64 0 z "},"Ø":{"ha":586,"x_min":47,"x_max":519,"o":"m 47 -19 l 469 821 l 519 821 l 97 -19 l 47 -19 m 293 -17 q 185 -3 232 -17 q 111 55 138 11 q 85 188 85 99 l 85 650 q 112 767 85 728 q 187 819 139 806 q 294 832 235 832 q 401 818 356 832 q 474 765 447 804 q 500 650 500 726 l 500 189 q 474 55 500 99 q 401 -3 447 11 q 293 -17 356 -17 m 293 38 q 356 46 329 38 q 397 81 382 54 q 413 164 413 108 l 413 650 q 397 732 413 706 q 355 767 382 758 q 293 776 328 776 q 231 767 258 776 q 189 732 204 758 q 174 650 174 706 l 174 164 q 189 81 174 108 q 231 46 204 54 q 293 38 258 38 z "},"Õ":{"ha":564,"x_min":74,"x_max":489,"o":"m 279 -17 q 174 -3 219 -17 q 101 55 128 11 q 74 188 74 99 l 74 650 q 101 767 74 728 q 175 819 128 806 q 282 832 222 832 q 388 818 342 832 q 462 765 435 804 q 489 650 489 726 l 489 189 q 462 55 489 99 q 388 -3 435 11 q 279 -17 342 -17 m 281 38 q 344 47 317 38 q 386 83 371 56 q 401 164 401 110 l 401 650 q 386 731 401 704 q 343 767 371 758 q 281 776 315 776 q 217 767 244 776 q 175 731 190 758 q 160 650 160 704 l 160 164 q 175 83 160 110 q 217 47 190 56 q 281 38 244 38 m 340 889 q 308 895 321 889 q 275 914 294 901 q 248 930 263 921 q 217 939 233 939 q 189 927 200 939 q 175 890 178 915 l 140 890 q 163 958 142 932 q 218 983 183 983 q 253 976 238 983 q 286 957 269 968 q 314 942 301 949 q 340 935 326 935 q 369 946 358 935 q 385 981 381 957 l 421 981 q 408 932 419 953 q 378 900 396 911 q 340 889 361 889 z "},"P":{"ha":533,"x_min":88,"x_max":499,"o":"m 88 0 l 88 821 l 342 821 q 456 788 413 821 q 499 685 499 756 l 499 533 q 485 445 499 486 q 433 379 471 404 q 325 354 396 354 l 178 354 l 178 0 l 88 0 m 178 406 l 299 406 q 383 440 354 406 q 411 544 411 474 l 411 651 q 385 741 411 713 q 321 769 358 769 l 178 769 l 178 406 z "},"П":{"ha":519,"x_min":58,"x_max":461,"o":"m 58 0 l 58 821 l 461 821 l 461 0 l 368 0 l 368 757 l 150 757 l 150 0 l 58 0 z "},"Q":{"ha":567,"x_min":74,"x_max":492,"o":"m 419 -162 l 333 -12 q 308 -14 321 -12 q 281 -15 296 -15 q 174 -1 221 -15 q 101 56 128 13 q 74 189 74 100 l 74 650 q 101 767 74 728 q 177 819 129 806 q 285 832 225 832 q 393 818 347 832 q 465 765 439 804 q 492 650 492 726 l 492 190 q 469 65 492 107 q 406 7 447 24 l 483 -125 l 419 -162 m 285 39 q 347 48 321 39 q 390 84 374 57 q 406 165 406 111 l 406 650 q 390 732 406 706 q 347 767 374 758 q 285 776 319 776 q 222 767 249 776 q 179 732 194 758 q 164 650 164 706 l 164 165 q 179 84 164 111 q 222 48 194 57 q 285 39 249 39 z "},"R":{"ha":575,"x_min":88,"x_max":535,"o":"m 88 0 l 88 821 l 346 821 q 458 788 415 821 q 501 685 501 756 l 501 551 q 459 442 501 481 q 344 400 417 403 l 344 401 q 411 370 389 399 q 450 282 433 342 l 535 0 l 440 0 l 365 276 q 347 326 358 303 q 320 364 336 349 q 278 379 304 379 l 178 379 l 178 0 l 88 0 m 178 439 l 300 439 q 386 466 357 439 q 415 558 415 493 l 415 669 q 388 746 415 722 q 322 769 360 769 l 178 769 l 178 439 z "},"Ŕ":{"ha":575,"x_min":88,"x_max":535,"o":"m 88 0 l 88 821 l 346 821 q 458 788 415 821 q 501 685 501 756 l 501 551 q 459 442 501 481 q 344 400 417 403 l 344 401 q 411 370 389 399 q 450 282 433 342 l 535 0 l 440 0 l 365 276 q 347 326 358 303 q 320 364 336 349 q 278 379 304 379 l 178 379 l 178 0 l 88 0 m 178 439 l 300 439 q 386 466 357 439 q 415 558 415 493 l 415 669 q 388 746 415 722 q 322 769 360 769 l 178 769 l 178 439 m 221 881 l 332 996 l 421 996 l 276 881 l 221 881 z "},"Ř":{"ha":575,"x_min":88,"x_max":535,"o":"m 88 0 l 88 821 l 346 821 q 458 788 415 821 q 501 685 501 756 l 501 551 q 459 442 501 481 q 344 400 417 403 l 344 401 q 411 370 389 399 q 450 282 433 342 l 535 0 l 440 0 l 365 276 q 347 326 358 303 q 320 364 336 349 q 278 379 304 379 l 178 379 l 178 0 l 88 0 m 178 439 l 300 439 q 386 466 357 439 q 415 558 415 493 l 415 669 q 388 746 415 722 q 322 769 360 769 l 178 769 l 178 439 m 258 874 l 139 989 l 199 989 l 288 917 l 376 989 l 436 989 l 315 874 l 258 874 z "},"Ŗ":{"ha":575,"x_min":88,"x_max":535,"o":"m 88 0 l 88 821 l 346 821 q 458 788 415 821 q 501 685 501 756 l 501 551 q 459 442 501 481 q 344 400 417 403 l 344 401 q 411 370 389 399 q 450 282 433 342 l 535 0 l 440 0 l 365 276 q 347 326 358 303 q 320 364 336 349 q 278 379 304 379 l 178 379 l 178 0 l 88 0 m 178 439 l 300 439 q 386 466 357 439 q 415 558 415 493 l 415 669 q 388 746 415 722 q 322 769 360 769 l 178 769 l 178 439 m 246 -226 q 272 -177 261 -200 q 283 -139 283 -154 q 276 -124 283 -129 q 263 -110 269 -118 q 256 -89 256 -103 q 268 -64 256 -75 q 299 -53 281 -53 q 332 -66 319 -53 q 344 -97 344 -79 q 335 -136 344 -112 q 313 -183 326 -160 q 283 -226 299 -207 l 246 -226 z "},"S":{"ha":519,"x_min":51,"x_max":467,"o":"m 254 -10 q 147 13 192 -10 q 76 87 101 35 q 51 232 51 139 l 51 278 q 97 278 74 278 q 140 278 119 278 l 140 226 q 155 119 140 157 q 195 65 169 81 q 254 50 221 50 q 342 84 308 50 q 376 206 376 118 q 358 299 376 268 q 303 349 340 331 q 211 390 265 368 q 131 434 167 408 q 76 501 96 460 q 57 607 57 543 q 76 727 57 679 q 140 799 96 775 q 258 822 185 822 q 406 774 354 822 q 458 639 458 726 l 458 549 q 416 549 438 549 q 372 549 394 549 l 372 618 q 344 719 372 685 q 260 753 315 753 q 172 717 199 753 q 144 610 144 682 q 165 524 144 556 q 219 476 186 493 q 290 444 253 458 q 392 395 353 421 q 449 329 431 369 q 467 217 467 289 q 440 83 467 132 q 365 12 413 33 q 254 -10 317 -10 z "},"Ś":{"ha":519,"x_min":51,"x_max":467,"o":"m 254 -10 q 147 13 192 -10 q 76 87 101 35 q 51 232 51 139 l 51 278 q 97 278 74 278 q 140 278 119 278 l 140 226 q 155 119 140 157 q 195 65 169 81 q 254 50 221 50 q 342 84 308 50 q 376 206 376 118 q 358 299 376 268 q 303 349 340 331 q 211 390 265 368 q 131 434 167 408 q 76 501 96 460 q 57 607 57 543 q 76 727 57 679 q 140 799 96 775 q 258 822 185 822 q 406 774 354 822 q 458 639 458 726 l 458 549 q 416 549 438 549 q 372 549 394 549 l 372 618 q 344 719 372 685 q 260 753 315 753 q 172 717 199 753 q 144 610 144 682 q 165 524 144 556 q 219 476 186 493 q 290 444 253 458 q 392 395 353 421 q 449 329 431 369 q 467 217 467 289 q 440 83 467 132 q 365 12 413 33 q 254 -10 317 -10 m 193 881 l 304 996 l 393 996 l 249 881 l 193 881 z "},"Š":{"ha":519,"x_min":51,"x_max":467,"o":"m 254 -10 q 147 13 192 -10 q 76 87 101 35 q 51 232 51 139 l 51 278 q 97 278 74 278 q 140 278 119 278 l 140 226 q 155 119 140 157 q 195 65 169 81 q 254 50 221 50 q 342 84 308 50 q 376 206 376 118 q 358 299 376 268 q 303 349 340 331 q 211 390 265 368 q 131 434 167 408 q 76 501 96 460 q 57 607 57 543 q 76 727 57 679 q 140 799 96 775 q 258 822 185 822 q 406 774 354 822 q 458 639 458 726 l 458 549 q 416 549 438 549 q 372 549 394 549 l 372 618 q 344 719 372 685 q 260 753 315 753 q 172 717 199 753 q 144 610 144 682 q 165 524 144 556 q 219 476 186 493 q 290 444 253 458 q 392 395 353 421 q 449 329 431 369 q 467 217 467 289 q 440 83 467 132 q 365 12 413 33 q 254 -10 317 -10 m 231 874 l 111 989 l 171 989 l 260 917 l 349 989 l 408 989 l 288 874 l 231 874 z "},"Ş":{"ha":519,"x_min":51,"x_max":467,"o":"m 254 -10 q 147 13 192 -10 q 76 87 101 35 q 51 232 51 139 l 51 278 q 97 278 74 278 q 140 278 119 278 l 140 226 q 155 119 140 157 q 195 65 169 81 q 254 50 221 50 q 342 84 308 50 q 376 206 376 118 q 358 299 376 268 q 303 349 340 331 q 211 390 265 368 q 131 434 167 408 q 76 501 96 460 q 57 607 57 543 q 76 727 57 679 q 140 799 96 775 q 258 822 185 822 q 406 774 354 822 q 458 639 458 726 l 458 549 q 416 549 438 549 q 372 549 394 549 l 372 618 q 344 719 372 685 q 260 753 315 753 q 172 717 199 753 q 144 610 144 682 q 165 524 144 556 q 219 476 186 493 q 290 444 253 458 q 392 395 353 421 q 449 329 431 369 q 467 217 467 289 q 440 83 467 132 q 365 12 413 33 q 254 -10 317 -10 m 253 -203 q 215 -195 232 -203 q 186 -182 197 -187 l 199 -149 q 224 -161 207 -156 q 250 -167 240 -167 q 291 -154 278 -167 q 304 -124 304 -142 q 292 -95 304 -106 q 261 -85 281 -85 q 243 -89 253 -85 q 226 -99 233 -93 l 197 -83 l 242 0 l 281 0 l 243 -71 l 235 -68 q 257 -59 244 -62 q 282 -56 269 -56 q 336 -77 317 -56 q 356 -122 356 -99 q 329 -180 356 -157 q 253 -203 303 -203 z "},"Ș":{"ha":519,"x_min":51,"x_max":467,"o":"m 254 -10 q 147 13 192 -10 q 76 87 101 35 q 51 232 51 139 l 51 278 q 97 278 74 278 q 140 278 119 278 l 140 226 q 155 119 140 157 q 195 65 169 81 q 254 50 221 50 q 342 84 308 50 q 376 206 376 118 q 358 299 376 268 q 303 349 340 331 q 211 390 265 368 q 131 434 167 408 q 76 501 96 460 q 57 607 57 543 q 76 727 57 679 q 140 799 96 775 q 258 822 185 822 q 406 774 354 822 q 458 639 458 726 l 458 549 q 416 549 438 549 q 372 549 394 549 l 372 618 q 344 719 372 685 q 260 753 315 753 q 172 717 199 753 q 144 610 144 682 q 165 524 144 556 q 219 476 186 493 q 290 444 253 458 q 392 395 353 421 q 449 329 431 369 q 467 217 467 289 q 440 83 467 132 q 365 12 413 33 q 254 -10 317 -10 m 206 -226 q 232 -177 221 -200 q 243 -139 243 -154 q 236 -124 243 -129 q 222 -110 229 -118 q 215 -89 215 -103 q 228 -64 215 -75 q 258 -53 240 -53 q 292 -66 279 -53 q 304 -97 304 -79 q 295 -136 304 -112 q 272 -183 286 -160 q 243 -226 258 -207 l 206 -226 z "},"Ш":{"ha":826,"x_min":58,"x_max":768,"o":"m 58 0 l 58 821 l 150 821 l 150 63 l 368 63 l 368 821 l 458 821 l 458 63 l 678 63 l 678 821 l 768 821 l 768 0 l 58 0 z "},"Щ":{"ha":867,"x_min":58,"x_max":815,"o":"m 742 -114 l 742 0 l 58 0 l 58 821 l 150 821 l 150 63 l 368 63 l 368 821 l 458 821 l 458 63 l 678 63 l 678 821 l 768 821 l 768 46 l 815 46 l 815 -114 l 742 -114 z "},"Ь":{"ha":507,"x_min":58,"x_max":449,"o":"m 58 0 l 58 819 l 144 819 l 144 604 l 282 604 q 378 586 342 604 q 431 530 414 568 q 449 431 449 492 l 449 204 q 439 107 449 146 q 408 44 429 68 q 354 10 388 21 q 275 0 321 0 l 58 0 m 144 50 l 258 50 q 326 68 304 50 q 356 122 349 86 q 363 208 363 157 l 363 410 q 356 479 363 447 q 328 530 350 511 q 256 549 306 549 l 144 549 l 144 50 z "},"T":{"ha":396,"x_min":15,"x_max":381,"o":"m 153 0 l 153 758 l 15 758 l 15 821 l 381 821 l 381 758 l 240 758 l 240 0 l 153 0 z "},"Ŧ":{"ha":418,"x_min":15,"x_max":381,"o":"m 82 563 l 82 614 l 331 614 l 331 563 l 82 563 m 153 0 l 153 758 l 15 758 l 15 821 l 381 821 l 381 758 l 240 758 l 240 0 l 153 0 z "},"Ť":{"ha":396,"x_min":15,"x_max":381,"o":"m 153 0 l 153 758 l 15 758 l 15 821 l 381 821 l 381 758 l 240 758 l 240 0 l 153 0 m 169 874 l 50 989 l 110 989 l 199 917 l 288 989 l 347 989 l 226 874 l 169 874 z "},"Ţ":{"ha":396,"x_min":15,"x_max":381,"o":"m 153 0 l 153 758 l 15 758 l 15 821 l 381 821 l 381 758 l 240 758 l 240 0 l 153 0 m 192 -203 q 153 -195 171 -203 q 125 -182 136 -187 l 138 -149 q 163 -161 146 -156 q 189 -167 179 -167 q 230 -154 217 -167 q 243 -124 243 -142 q 231 -95 243 -106 q 200 -85 219 -85 q 182 -89 192 -85 q 165 -99 172 -93 l 136 -83 l 181 0 l 219 0 l 182 -71 l 174 -68 q 196 -59 183 -62 q 221 -56 208 -56 q 275 -77 256 -56 q 294 -122 294 -99 q 268 -180 294 -157 q 192 -203 242 -203 z "},"Ț":{"ha":396,"x_min":15,"x_max":381,"o":"m 153 0 l 153 758 l 15 758 l 15 821 l 381 821 l 381 758 l 240 758 l 240 0 l 153 0 m 144 -226 q 171 -177 160 -200 q 182 -139 182 -154 q 175 -124 182 -129 q 161 -110 168 -118 q 154 -89 154 -103 q 167 -64 154 -75 q 197 -53 179 -53 q 231 -66 218 -53 q 243 -97 243 -79 q 234 -136 243 -112 q 211 -183 225 -160 q 182 -226 197 -207 l 144 -226 z "},"Т":{"ha":396,"x_min":15,"x_max":381,"o":"m 153 0 l 153 758 l 15 758 l 15 821 l 381 821 l 381 758 l 240 758 l 240 0 l 153 0 z "},"Þ":{"ha":528,"x_min":58,"x_max":469,"o":"m 58 0 l 58 821 l 150 821 l 150 667 l 314 667 q 426 633 383 667 q 469 531 469 600 l 469 379 q 456 291 469 332 q 406 224 443 250 q 296 199 368 199 l 150 199 l 150 0 l 58 0 m 150 250 l 269 250 q 354 284 326 250 q 382 389 382 318 l 382 496 q 356 587 382 558 q 292 615 331 615 l 150 615 l 150 250 z "},"Ц":{"ha":564,"x_min":58,"x_max":510,"o":"m 436 -114 l 436 0 l 58 0 l 58 821 l 150 821 l 150 64 l 371 64 l 371 821 l 463 821 l 463 46 l 510 46 l 510 -114 l 436 -114 z "},"Ћ":{"ha":618,"x_min":22,"x_max":560,"o":"m 168 0 l 168 757 l 22 757 l 22 821 l 403 821 l 403 757 l 256 757 l 256 538 q 305 581 269 560 q 393 601 340 601 q 502 577 467 601 q 549 510 538 553 q 560 415 560 468 l 560 0 l 472 0 l 472 417 q 465 481 472 453 q 434 524 457 508 q 365 540 411 540 q 289 517 315 540 q 256 469 263 493 l 256 0 l 168 0 z "},"U":{"ha":574,"x_min":81,"x_max":493,"o":"m 288 -17 q 207 -10 244 -17 q 141 17 169 -3 q 97 74 113 36 q 81 176 81 113 l 81 821 l 168 821 l 168 158 q 185 83 168 108 q 228 49 201 58 q 288 40 256 40 q 346 49 318 40 q 390 83 374 58 q 407 158 407 108 l 407 821 l 493 821 l 493 176 q 477 74 493 113 q 433 17 461 36 q 367 -10 406 -3 q 288 -17 329 -17 z "},"У":{"ha":443,"x_min":13,"x_max":431,"o":"m 107 -12 q 62 -9 83 -12 q 26 -1 40 -6 l 26 47 q 45 44 33 46 q 71 43 57 43 q 109 49 89 43 q 142 78 129 56 q 157 109 151 92 q 165 151 163 126 l 13 821 l 101 821 l 224 228 l 224 228 l 347 821 l 431 821 l 282 176 q 221 31 258 74 q 107 -12 183 -12 z "},"Ú":{"ha":574,"x_min":81,"x_max":493,"o":"m 288 -17 q 207 -10 244 -17 q 141 17 169 -3 q 97 74 113 36 q 81 176 81 113 l 81 821 l 168 821 l 168 158 q 185 83 168 108 q 228 49 201 58 q 288 40 256 40 q 346 49 318 40 q 390 83 374 58 q 407 158 407 108 l 407 821 l 493 821 l 493 176 q 477 74 493 113 q 433 17 461 36 q 367 -10 406 -3 q 288 -17 329 -17 m 221 881 l 332 996 l 421 996 l 276 881 l 221 881 z "},"Ǔ":{"ha":574,"x_min":81,"x_max":493,"o":"m 288 -17 q 207 -10 244 -17 q 141 17 169 -3 q 97 74 113 36 q 81 176 81 113 l 81 821 l 168 821 l 168 158 q 185 83 168 108 q 228 49 201 58 q 288 40 256 40 q 346 49 318 40 q 390 83 374 58 q 407 158 407 108 l 407 821 l 493 821 l 493 176 q 477 74 493 113 q 433 17 461 36 q 367 -10 406 -3 q 288 -17 329 -17 m 258 874 l 139 989 l 199 989 l 288 917 l 376 989 l 436 989 l 315 874 l 258 874 z "},"Û":{"ha":574,"x_min":81,"x_max":493,"o":"m 288 -17 q 207 -10 244 -17 q 141 17 169 -3 q 97 74 113 36 q 81 176 81 113 l 81 821 l 168 821 l 168 158 q 185 83 168 108 q 228 49 201 58 q 288 40 256 40 q 346 49 318 40 q 390 83 374 58 q 407 158 407 108 l 407 821 l 493 821 l 493 176 q 477 74 493 113 q 433 17 461 36 q 367 -10 406 -3 q 288 -17 329 -17 m 132 874 l 257 999 l 315 999 l 440 874 l 381 874 l 286 956 l 193 874 l 132 874 z "},"Ü":{"ha":574,"x_min":81,"x_max":493,"o":"m 288 -17 q 207 -10 244 -17 q 141 17 169 -3 q 97 74 113 36 q 81 176 81 113 l 81 821 l 168 821 l 168 158 q 185 83 168 108 q 228 49 201 58 q 288 40 256 40 q 346 49 318 40 q 390 83 374 58 q 407 158 407 108 l 407 821 l 493 821 l 493 176 q 477 74 493 113 q 433 17 461 36 q 367 -10 406 -3 q 288 -17 329 -17 m 219 888 q 187 901 200 888 q 174 932 174 914 q 187 963 174 950 q 219 975 200 975 q 251 963 239 975 q 264 932 264 950 q 251 901 264 914 q 219 888 239 888 m 354 888 q 322 901 335 888 q 308 932 308 914 q 322 963 308 950 q 354 975 335 975 q 386 963 374 975 q 399 932 399 950 q 386 901 399 914 q 354 888 374 888 z "},"Ǘ":{"ha":574,"x_min":81,"x_max":493,"o":"m 288 -17 q 207 -10 244 -17 q 141 17 169 -3 q 97 74 113 36 q 81 176 81 113 l 81 821 l 168 821 l 168 158 q 185 83 168 108 q 228 49 201 58 q 288 40 256 40 q 346 49 318 40 q 390 83 374 58 q 407 158 407 108 l 407 821 l 493 821 l 493 176 q 477 74 493 113 q 433 17 461 36 q 367 -10 406 -3 q 288 -17 329 -17 m 219 888 q 187 901 200 888 q 174 932 174 914 q 187 963 174 950 q 219 975 200 975 q 251 963 239 975 q 264 932 264 950 q 251 901 264 914 q 219 888 239 888 m 354 888 q 322 901 335 888 q 308 932 308 914 q 322 963 308 950 q 354 975 335 975 q 386 963 374 975 q 399 932 399 950 q 386 901 399 914 q 354 888 374 888 m 221 1006 l 332 1121 l 421 1121 l 276 1006 l 221 1006 z "},"Ǚ":{"ha":574,"x_min":81,"x_max":493,"o":"m 288 -17 q 207 -10 244 -17 q 141 17 169 -3 q 97 74 113 36 q 81 176 81 113 l 81 821 l 168 821 l 168 158 q 185 83 168 108 q 228 49 201 58 q 288 40 256 40 q 346 49 318 40 q 390 83 374 58 q 407 158 407 108 l 407 821 l 493 821 l 493 176 q 477 74 493 113 q 433 17 461 36 q 367 -10 406 -3 q 288 -17 329 -17 m 219 888 q 187 901 200 888 q 174 932 174 914 q 187 963 174 950 q 219 975 200 975 q 251 963 239 975 q 264 932 264 950 q 251 901 264 914 q 219 888 239 888 m 354 888 q 322 901 335 888 q 308 932 308 914 q 322 963 308 950 q 354 975 335 975 q 386 963 374 975 q 399 932 399 950 q 386 901 399 914 q 354 888 374 888 m 258 999 l 139 1114 l 199 1114 l 288 1042 l 376 1114 l 436 1114 l 315 999 l 258 999 z "},"Ǜ":{"ha":574,"x_min":81,"x_max":493,"o":"m 288 -17 q 207 -10 244 -17 q 141 17 169 -3 q 97 74 113 36 q 81 176 81 113 l 81 821 l 168 821 l 168 158 q 185 83 168 108 q 228 49 201 58 q 288 40 256 40 q 346 49 318 40 q 390 83 374 58 q 407 158 407 108 l 407 821 l 493 821 l 493 176 q 477 74 493 113 q 433 17 461 36 q 367 -10 406 -3 q 288 -17 329 -17 m 219 888 q 187 901 200 888 q 174 932 174 914 q 187 963 174 950 q 219 975 200 975 q 251 963 239 975 q 264 932 264 950 q 251 901 264 914 q 219 888 239 888 m 354 888 q 322 901 335 888 q 308 932 308 914 q 322 963 308 950 q 354 975 335 975 q 386 963 374 975 q 399 932 399 950 q 386 901 399 914 q 354 888 374 888 m 292 1006 l 153 1118 l 243 1118 l 353 1006 l 292 1006 z "},"Ǖ":{"ha":574,"x_min":81,"x_max":493,"o":"m 288 -17 q 207 -10 244 -17 q 141 17 169 -3 q 97 74 113 36 q 81 176 81 113 l 81 821 l 168 821 l 168 158 q 185 83 168 108 q 228 49 201 58 q 288 40 256 40 q 346 49 318 40 q 390 83 374 58 q 407 158 407 108 l 407 821 l 493 821 l 493 176 q 477 74 493 113 q 433 17 461 36 q 367 -10 406 -3 q 288 -17 329 -17 m 219 888 q 187 901 200 888 q 174 932 174 914 q 187 963 174 950 q 219 975 200 975 q 251 963 239 975 q 264 932 264 950 q 251 901 264 914 q 219 888 239 888 m 354 888 q 322 901 335 888 q 308 932 308 914 q 322 963 308 950 q 354 975 335 975 q 386 963 374 975 q 399 932 399 950 q 386 901 399 914 q 354 888 374 888 m 157 1029 l 157 1076 l 415 1076 l 415 1029 l 157 1029 z "},"Ụ":{"ha":574,"x_min":81,"x_max":493,"o":"m 288 -17 q 207 -10 244 -17 q 141 17 169 -3 q 97 74 113 36 q 81 176 81 113 l 81 821 l 168 821 l 168 158 q 185 83 168 108 q 228 49 201 58 q 288 40 256 40 q 346 49 318 40 q 390 83 374 58 q 407 158 407 108 l 407 821 l 493 821 l 493 176 q 477 74 493 113 q 433 17 461 36 q 367 -10 406 -3 q 288 -17 329 -17 m 286 -150 q 253 -137 267 -150 q 240 -106 240 -124 q 253 -73 240 -86 q 286 -60 267 -60 q 319 -73 306 -60 q 333 -106 333 -86 q 319 -137 333 -124 q 286 -150 306 -150 z "},"Ù":{"ha":574,"x_min":81,"x_max":493,"o":"m 288 -17 q 207 -10 244 -17 q 141 17 169 -3 q 97 74 113 36 q 81 176 81 113 l 81 821 l 168 821 l 168 158 q 185 83 168 108 q 228 49 201 58 q 288 40 256 40 q 346 49 318 40 q 390 83 374 58 q 407 158 407 108 l 407 821 l 493 821 l 493 176 q 477 74 493 113 q 433 17 461 36 q 367 -10 406 -3 q 288 -17 329 -17 m 292 881 l 153 993 l 243 993 l 353 881 l 292 881 z "},"Ủ":{"ha":574,"x_min":81,"x_max":493,"o":"m 288 -17 q 207 -10 244 -17 q 141 17 169 -3 q 97 74 113 36 q 81 176 81 113 l 81 821 l 168 821 l 168 158 q 185 83 168 108 q 228 49 201 58 q 288 40 256 40 q 346 49 318 40 q 390 83 374 58 q 407 158 407 108 l 407 821 l 493 821 l 493 176 q 477 74 493 113 q 433 17 461 36 q 367 -10 406 -3 q 288 -17 329 -17 m 261 869 l 261 892 q 277 922 261 913 q 308 942 293 932 q 324 969 324 951 l 324 975 q 315 1001 324 989 q 285 1013 306 1013 q 249 979 256 1013 l 206 988 q 231 1033 210 1017 q 289 1049 251 1049 q 355 1033 333 1049 q 376 975 376 1017 l 376 972 q 360 929 376 942 q 326 910 343 917 q 310 886 310 903 l 310 869 l 261 869 z "},"Ư":{"ha":574,"x_min":81,"x_max":565,"o":"m 288 -17 q 207 -10 244 -17 q 141 17 169 -3 q 97 74 113 36 q 81 176 81 113 l 81 821 l 168 821 l 168 158 q 185 83 168 108 q 228 49 201 58 q 288 40 256 40 q 346 49 318 40 q 390 83 374 58 q 407 158 407 108 l 407 821 l 493 821 l 493 176 q 477 74 493 113 q 433 17 461 36 q 367 -10 406 -3 q 288 -17 329 -17 m 424 778 l 419 821 l 436 821 q 504 883 504 821 l 504 907 l 565 907 l 565 889 q 528 805 565 833 q 424 778 492 776 z "},"Ứ":{"ha":574,"x_min":81,"x_max":565,"o":"m 288 -17 q 207 -10 244 -17 q 141 17 169 -3 q 97 74 113 36 q 81 176 81 113 l 81 821 l 168 821 l 168 158 q 185 83 168 108 q 228 49 201 58 q 288 40 256 40 q 346 49 318 40 q 390 83 374 58 q 407 158 407 108 l 407 821 l 493 821 l 493 176 q 477 74 493 113 q 433 17 461 36 q 367 -10 406 -3 q 288 -17 329 -17 m 424 778 l 419 821 l 436 821 q 504 883 504 821 l 504 907 l 565 907 l 565 889 q 528 805 565 833 q 424 778 492 776 m 221 881 l 332 996 l 421 996 l 276 881 l 221 881 z "},"Ự":{"ha":574,"x_min":81,"x_max":565,"o":"m 288 -17 q 207 -10 244 -17 q 141 17 169 -3 q 97 74 113 36 q 81 176 81 113 l 81 821 l 168 821 l 168 158 q 185 83 168 108 q 228 49 201 58 q 288 40 256 40 q 346 49 318 40 q 390 83 374 58 q 407 158 407 108 l 407 821 l 493 821 l 493 176 q 477 74 493 113 q 433 17 461 36 q 367 -10 406 -3 q 288 -17 329 -17 m 424 778 l 419 821 l 436 821 q 504 883 504 821 l 504 907 l 565 907 l 565 889 q 528 805 565 833 q 424 778 492 776 m 286 -150 q 253 -137 267 -150 q 240 -106 240 -124 q 253 -73 240 -86 q 286 -60 267 -60 q 319 -73 306 -60 q 333 -106 333 -86 q 319 -137 333 -124 q 286 -150 306 -150 z "},"Ừ":{"ha":574,"x_min":81,"x_max":565,"o":"m 288 -17 q 207 -10 244 -17 q 141 17 169 -3 q 97 74 113 36 q 81 176 81 113 l 81 821 l 168 821 l 168 158 q 185 83 168 108 q 228 49 201 58 q 288 40 256 40 q 346 49 318 40 q 390 83 374 58 q 407 158 407 108 l 407 821 l 493 821 l 493 176 q 477 74 493 113 q 433 17 461 36 q 367 -10 406 -3 q 288 -17 329 -17 m 424 778 l 419 821 l 436 821 q 504 883 504 821 l 504 907 l 565 907 l 565 889 q 528 805 565 833 q 424 778 492 776 m 292 881 l 153 993 l 243 993 l 353 881 l 292 881 z "},"Ử":{"ha":574,"x_min":81,"x_max":565,"o":"m 288 -17 q 207 -10 244 -17 q 141 17 169 -3 q 97 74 113 36 q 81 176 81 113 l 81 821 l 168 821 l 168 158 q 185 83 168 108 q 228 49 201 58 q 288 40 256 40 q 346 49 318 40 q 390 83 374 58 q 407 158 407 108 l 407 821 l 493 821 l 493 176 q 477 74 493 113 q 433 17 461 36 q 367 -10 406 -3 q 288 -17 329 -17 m 424 778 l 419 821 l 436 821 q 504 883 504 821 l 504 907 l 565 907 l 565 889 q 528 805 565 833 q 424 778 492 776 m 261 869 l 261 892 q 277 922 261 913 q 308 942 293 932 q 324 969 324 951 l 324 975 q 315 1001 324 989 q 285 1013 306 1013 q 249 979 256 1013 l 206 988 q 231 1033 210 1017 q 289 1049 251 1049 q 355 1033 333 1049 q 376 975 376 1017 l 376 972 q 360 929 376 942 q 326 910 343 917 q 310 886 310 903 l 310 869 l 261 869 z "},"Ữ":{"ha":574,"x_min":81,"x_max":565,"o":"m 288 -17 q 207 -10 244 -17 q 141 17 169 -3 q 97 74 113 36 q 81 176 81 113 l 81 821 l 168 821 l 168 158 q 185 83 168 108 q 228 49 201 58 q 288 40 256 40 q 346 49 318 40 q 390 83 374 58 q 407 158 407 108 l 407 821 l 493 821 l 493 176 q 477 74 493 113 q 433 17 461 36 q 367 -10 406 -3 q 288 -17 329 -17 m 424 778 l 419 821 l 436 821 q 504 883 504 821 l 504 907 l 565 907 l 565 889 q 528 805 565 833 q 424 778 492 776 m 344 889 q 312 895 325 889 q 279 914 299 901 q 252 930 267 921 q 221 939 238 939 q 193 927 204 939 q 179 890 182 915 l 144 890 q 167 958 146 932 q 222 983 188 983 q 258 976 242 983 q 290 957 274 968 q 318 942 306 949 q 344 935 331 935 q 374 946 363 935 q 389 981 385 957 l 425 981 q 412 932 424 953 q 383 900 400 911 q 344 889 365 889 z "},"Ű":{"ha":574,"x_min":81,"x_max":493,"o":"m 288 -17 q 207 -10 244 -17 q 141 17 169 -3 q 97 74 113 36 q 81 176 81 113 l 81 821 l 168 821 l 168 158 q 185 83 168 108 q 228 49 201 58 q 288 40 256 40 q 346 49 318 40 q 390 83 374 58 q 407 158 407 108 l 407 821 l 493 821 l 493 176 q 477 74 493 113 q 433 17 461 36 q 367 -10 406 -3 q 288 -17 329 -17 m 207 874 l 246 1001 l 322 1001 l 246 874 l 207 874 m 306 874 l 353 1001 l 428 1001 l 349 874 l 306 874 z "},"Ū":{"ha":574,"x_min":81,"x_max":493,"o":"m 288 -17 q 207 -10 244 -17 q 141 17 169 -3 q 97 74 113 36 q 81 176 81 113 l 81 821 l 168 821 l 168 158 q 185 83 168 108 q 228 49 201 58 q 288 40 256 40 q 346 49 318 40 q 390 83 374 58 q 407 158 407 108 l 407 821 l 493 821 l 493 176 q 477 74 493 113 q 433 17 461 36 q 367 -10 406 -3 q 288 -17 329 -17 m 157 904 l 157 951 l 415 951 l 415 904 l 157 904 z "},"Ų":{"ha":574,"x_min":81,"x_max":493,"o":"m 288 -17 q 207 -10 244 -17 q 141 17 169 -3 q 97 74 113 36 q 81 176 81 113 l 81 821 l 168 821 l 168 158 q 185 83 168 108 q 228 49 201 58 q 288 40 256 40 q 346 49 318 40 q 390 83 374 58 q 407 158 407 108 l 407 821 l 493 821 l 493 176 q 477 74 493 113 q 433 17 461 36 q 367 -10 406 -3 q 288 -17 329 -17 m 303 -187 q 235 -165 263 -187 q 207 -107 207 -142 q 235 -39 207 -68 q 297 1 263 -10 l 342 0 q 286 -43 306 -17 q 267 -96 267 -69 q 285 -136 267 -122 q 321 -150 303 -150 q 342 -147 333 -150 q 356 -142 351 -144 l 369 -171 q 345 -182 361 -176 q 303 -187 329 -187 z "},"Ů":{"ha":574,"x_min":81,"x_max":493,"o":"m 288 -17 q 207 -10 244 -17 q 141 17 169 -3 q 97 74 113 36 q 81 176 81 113 l 81 821 l 168 821 l 168 158 q 185 83 168 108 q 228 49 201 58 q 288 40 256 40 q 346 49 318 40 q 390 83 374 58 q 407 158 407 108 l 407 821 l 493 821 l 493 176 q 477 74 493 113 q 433 17 461 36 q 367 -10 406 -3 q 288 -17 329 -17 m 286 853 q 208 883 239 853 q 176 957 176 914 q 208 1031 176 1000 q 286 1061 239 1061 q 367 1031 336 1061 q 397 956 397 1000 q 364 883 397 914 q 286 853 331 853 m 286 894 q 334 912 317 894 q 351 956 351 929 q 334 1003 351 986 q 286 1019 317 1019 q 239 1003 257 1019 q 221 956 221 986 q 239 912 221 929 q 286 894 257 894 z "},"Ў":{"ha":443,"x_min":13,"x_max":431,"o":"m 107 -12 q 62 -9 83 -12 q 26 -1 40 -6 l 26 47 q 45 44 33 46 q 71 43 57 43 q 109 49 89 43 q 142 78 129 56 q 157 109 151 92 q 165 151 163 126 l 13 821 l 101 821 l 224 228 l 224 228 l 347 821 l 431 821 l 282 176 q 221 31 258 74 q 107 -12 183 -12 m 219 875 q 138 896 167 875 q 97 946 108 917 q 83 999 85 975 l 135 999 q 164 940 140 960 q 221 921 188 921 q 279 940 256 921 q 307 999 303 958 l 358 999 q 343 942 357 971 q 299 894 329 914 q 219 875 269 875 z "},"Ũ":{"ha":574,"x_min":81,"x_max":493,"o":"m 288 -17 q 207 -10 244 -17 q 141 17 169 -3 q 97 74 113 36 q 81 176 81 113 l 81 821 l 168 821 l 168 158 q 185 83 168 108 q 228 49 201 58 q 288 40 256 40 q 346 49 318 40 q 390 83 374 58 q 407 158 407 108 l 407 821 l 493 821 l 493 176 q 477 74 493 113 q 433 17 461 36 q 367 -10 406 -3 q 288 -17 329 -17 m 344 889 q 312 895 325 889 q 279 914 299 901 q 252 930 267 921 q 221 939 238 939 q 193 927 204 939 q 179 890 182 915 l 144 890 q 167 958 146 932 q 222 983 188 983 q 258 976 242 983 q 290 957 274 968 q 318 942 306 949 q 344 935 331 935 q 374 946 363 935 q 389 981 385 957 l 425 981 q 412 932 424 953 q 383 900 400 911 q 344 889 365 889 z "},"V":{"ha":474,"x_min":28,"x_max":447,"o":"m 181 0 l 28 821 l 115 821 l 240 114 l 236 114 l 361 821 l 447 821 l 292 0 l 181 0 z "},"В":{"ha":572,"x_min":88,"x_max":504,"o":"m 88 0 l 88 821 l 342 821 q 453 788 410 821 q 496 685 496 756 l 496 585 q 485 516 496 546 q 454 468 474 486 q 408 442 435 449 q 363 435 381 436 l 363 438 q 416 431 390 438 q 460 407 442 425 q 492 358 481 388 q 504 288 504 328 l 504 168 q 482 63 504 99 q 420 13 460 26 q 326 0 381 0 l 88 0 m 175 50 l 311 50 q 367 59 343 50 q 403 95 390 68 q 417 175 417 122 l 417 288 q 383 376 417 354 q 299 397 349 397 l 175 397 l 175 50 m 175 456 l 296 456 q 381 486 351 456 q 411 575 411 517 l 411 669 q 384 745 411 721 q 318 769 357 769 l 175 769 l 175 456 z "},"W":{"ha":763,"x_min":28,"x_max":735,"o":"m 157 0 l 28 821 l 115 821 l 219 121 l 346 821 l 417 821 l 540 122 l 646 821 l 735 821 l 604 0 l 504 0 l 382 624 l 260 0 l 157 0 z "},"Ẃ":{"ha":763,"x_min":28,"x_max":735,"o":"m 157 0 l 28 821 l 115 821 l 219 121 l 346 821 l 417 821 l 540 122 l 646 821 l 735 821 l 604 0 l 504 0 l 382 624 l 260 0 l 157 0 m 315 881 l 426 996 l 515 996 l 371 881 l 315 881 z "},"Ŵ":{"ha":763,"x_min":28,"x_max":735,"o":"m 157 0 l 28 821 l 115 821 l 219 121 l 346 821 l 417 821 l 540 122 l 646 821 l 735 821 l 604 0 l 504 0 l 382 624 l 260 0 l 157 0 m 226 874 l 351 999 l 410 999 l 535 874 l 475 874 l 381 956 l 288 874 l 226 874 z "},"Ẅ":{"ha":763,"x_min":28,"x_max":735,"o":"m 157 0 l 28 821 l 115 821 l 219 121 l 346 821 l 417 821 l 540 122 l 646 821 l 735 821 l 604 0 l 504 0 l 382 624 l 260 0 l 157 0 m 315 888 q 283 901 296 888 q 269 932 269 914 q 283 963 269 950 q 315 975 296 975 q 347 963 335 975 q 360 932 360 950 q 347 901 360 914 q 315 888 335 888 m 450 888 q 417 901 431 888 q 404 932 404 914 q 417 963 404 950 q 450 975 431 975 q 482 963 469 975 q 494 932 494 950 q 482 901 494 914 q 450 888 469 888 z "},"Ẁ":{"ha":763,"x_min":28,"x_max":735,"o":"m 157 0 l 28 821 l 115 821 l 219 121 l 346 821 l 417 821 l 540 122 l 646 821 l 735 821 l 604 0 l 504 0 l 382 624 l 260 0 l 157 0 m 386 881 l 247 993 l 338 993 l 447 881 l 386 881 z "},"X":{"ha":444,"x_min":24,"x_max":421,"o":"m 24 0 l 156 418 l 35 821 l 121 821 l 222 475 l 332 821 l 421 821 l 290 417 l 418 0 l 331 0 l 222 346 l 115 0 l 24 0 z "},"Y":{"ha":450,"x_min":22,"x_max":426,"o":"m 175 0 l 175 360 l 22 821 l 113 821 l 218 483 l 224 456 l 229 483 l 343 821 l 426 821 l 263 356 l 263 0 l 175 0 z "},"Ý":{"ha":450,"x_min":22,"x_max":426,"o":"m 175 0 l 175 360 l 22 821 l 113 821 l 218 483 l 224 456 l 229 483 l 343 821 l 426 821 l 263 356 l 263 0 l 175 0 m 161 881 l 272 996 l 361 996 l 217 881 l 161 881 z "},"Ѣ":{"ha":571,"x_min":21,"x_max":511,"o":"m 121 0 l 121 819 l 207 819 l 207 604 l 344 604 q 440 586 403 604 q 494 530 476 568 q 511 431 511 492 l 511 204 q 501 107 511 146 q 471 44 492 68 q 417 10 450 21 q 336 0 383 0 l 121 0 m 207 50 l 321 50 q 388 68 365 50 q 418 122 411 86 q 425 208 425 157 l 425 410 q 419 479 425 447 q 390 530 413 511 q 318 549 368 549 l 207 549 l 207 50 m 21 706 l 21 756 l 428 756 l 428 706 l 21 706 z "},"Ŷ":{"ha":450,"x_min":22,"x_max":426,"o":"m 175 0 l 175 360 l 22 821 l 113 821 l 218 483 l 224 456 l 229 483 l 343 821 l 426 821 l 263 356 l 263 0 l 175 0 m 72 874 l 197 999 l 256 999 l 381 874 l 321 874 l 226 956 l 133 874 l 72 874 z "},"Ÿ":{"ha":450,"x_min":22,"x_max":426,"o":"m 175 0 l 175 360 l 22 821 l 113 821 l 218 483 l 224 456 l 229 483 l 343 821 l 426 821 l 263 356 l 263 0 l 175 0 m 161 888 q 128 901 142 888 q 115 932 115 914 q 128 963 115 950 q 161 975 142 975 q 193 963 181 975 q 206 932 206 950 q 193 901 206 914 q 161 888 181 888 m 296 888 q 263 901 276 888 q 250 932 250 914 q 263 963 250 950 q 296 975 276 975 q 328 963 315 975 q 340 932 340 950 q 328 901 340 914 q 296 888 315 888 z "},"Ỵ":{"ha":450,"x_min":22,"x_max":426,"o":"m 175 0 l 175 360 l 22 821 l 113 821 l 218 483 l 224 456 l 229 483 l 343 821 l 426 821 l 263 356 l 263 0 l 175 0 m 224 -150 q 191 -137 204 -150 q 178 -106 178 -124 q 191 -73 178 -86 q 224 -60 204 -60 q 257 -73 243 -60 q 271 -106 271 -86 q 257 -137 271 -124 q 224 -150 243 -150 z "},"Ы":{"ha":692,"x_min":58,"x_max":632,"o":"m 58 0 l 58 819 l 144 819 l 144 604 l 282 604 q 378 586 342 604 q 431 530 414 568 q 449 431 449 492 l 449 204 q 439 107 449 146 q 408 44 429 68 q 354 10 388 21 q 275 0 321 0 l 58 0 m 144 50 l 258 50 q 326 68 304 50 q 356 122 349 86 q 363 208 363 157 l 363 410 q 356 479 363 447 q 328 530 350 511 q 256 549 306 549 l 144 549 l 144 50 m 544 0 l 544 821 l 632 821 l 632 0 l 544 0 z "},"Ỳ":{"ha":450,"x_min":22,"x_max":426,"o":"m 175 0 l 175 360 l 22 821 l 113 821 l 218 483 l 224 456 l 229 483 l 343 821 l 426 821 l 263 356 l 263 0 l 175 0 m 232 881 l 93 993 l 183 993 l 293 881 l 232 881 z "},"Ỷ":{"ha":450,"x_min":22,"x_max":426,"o":"m 175 0 l 175 360 l 22 821 l 113 821 l 218 483 l 224 456 l 229 483 l 343 821 l 426 821 l 263 356 l 263 0 l 175 0 m 201 869 l 201 892 q 217 922 201 913 q 249 942 233 932 q 264 969 264 951 l 264 975 q 255 1001 264 989 q 225 1013 246 1013 q 189 979 196 1013 l 146 988 q 171 1033 150 1017 q 229 1049 192 1049 q 295 1033 274 1049 q 317 975 317 1017 l 317 972 q 300 929 317 942 q 267 910 283 917 q 250 886 250 903 l 250 869 l 201 869 z "},"Ї":{"ha":261,"x_min":18,"x_max":243,"o":"m 88 0 l 88 821 l 175 821 l 175 0 l 88 0 m 64 888 q 31 901 44 888 q 18 932 18 914 q 31 963 18 950 q 64 975 44 975 q 96 963 83 975 q 108 932 108 950 q 96 901 108 914 q 64 888 83 888 m 199 888 q 166 901 179 888 q 153 932 153 914 q 166 963 153 950 q 199 975 179 975 q 231 963 218 975 q 243 932 243 950 q 231 901 243 914 q 199 888 218 888 z "},"Ỹ":{"ha":450,"x_min":22,"x_max":426,"o":"m 175 0 l 175 360 l 22 821 l 113 821 l 218 483 l 224 456 l 229 483 l 343 821 l 426 821 l 263 356 l 263 0 l 175 0 m 285 889 q 252 895 265 889 q 219 914 239 901 q 192 930 207 921 q 161 939 178 939 q 133 927 144 939 q 119 890 122 915 l 85 890 q 107 958 86 932 q 163 983 128 983 q 198 976 182 983 q 231 957 214 968 q 258 942 246 949 q 285 935 271 935 q 314 946 303 935 q 329 981 325 957 l 365 981 q 352 932 364 953 q 323 900 340 911 q 285 889 306 889 z "},"Ѫ":{"ha":914,"x_min":33,"x_max":878,"o":"m 54 0 l 140 325 q 165 388 150 357 q 206 437 181 418 q 271 456 231 456 l 375 457 l 33 758 l 33 821 l 878 821 l 878 758 l 536 457 l 642 456 q 710 437 685 456 q 750 388 736 418 q 774 325 764 358 l 860 0 l 764 0 l 688 310 q 660 384 678 350 q 603 426 642 418 l 501 426 l 501 0 l 413 0 l 413 426 l 311 426 q 254 385 272 418 q 226 313 236 351 l 150 0 l 54 0 m 456 482 l 774 758 l 138 758 l 456 482 z "},"Z":{"ha":385,"x_min":26,"x_max":361,"o":"m 26 0 l 26 61 l 260 758 l 42 758 l 42 821 l 361 821 l 361 769 l 118 63 l 361 63 l 361 0 l 26 0 z "},"Ź":{"ha":385,"x_min":26,"x_max":361,"o":"m 26 0 l 26 61 l 260 758 l 42 758 l 42 821 l 361 821 l 361 769 l 118 63 l 361 63 l 361 0 l 26 0 m 143 881 l 254 996 l 343 996 l 199 881 l 143 881 z "},"Ž":{"ha":385,"x_min":26,"x_max":361,"o":"m 26 0 l 26 61 l 260 758 l 42 758 l 42 821 l 361 821 l 361 769 l 118 63 l 361 63 l 361 0 l 26 0 m 181 874 l 61 989 l 121 989 l 210 917 l 299 989 l 358 989 l 238 874 l 181 874 z "},"Ż":{"ha":385,"x_min":26,"x_max":361,"o":"m 26 0 l 26 61 l 260 758 l 42 758 l 42 821 l 361 821 l 361 769 l 118 63 l 361 63 l 361 0 l 26 0 m 217 889 q 179 903 194 889 q 164 940 164 918 q 179 976 164 961 q 217 990 194 990 q 253 976 238 990 q 269 940 269 961 q 253 903 269 918 q 217 889 238 889 z "},"З":{"ha":549,"x_min":50,"x_max":482,"o":"m 265 -10 q 142 16 189 -10 q 72 88 94 42 q 50 193 50 135 l 50 276 l 140 276 l 140 206 q 172 95 140 135 q 265 54 203 56 q 356 92 322 54 q 390 193 390 129 l 390 269 q 351 364 390 332 q 242 399 311 396 l 161 399 l 161 454 l 243 454 q 304 466 275 454 q 351 500 333 478 q 376 540 369 518 q 383 586 383 561 l 383 635 q 356 724 383 688 q 265 761 328 761 q 174 722 201 761 q 146 622 146 683 l 146 574 l 56 574 l 56 635 q 106 775 56 725 q 265 825 157 825 q 427 777 378 825 q 476 640 476 729 l 476 599 q 440 483 476 526 q 346 424 404 439 q 447 366 413 413 q 482 249 482 319 l 482 193 q 461 86 482 132 q 393 15 440 40 q 265 -10 346 -10 z "},"Ж":{"ha":860,"x_min":53,"x_max":808,"o":"m 53 0 l 269 425 l 60 821 l 160 821 l 346 450 l 386 450 l 386 819 l 475 819 l 475 450 l 515 450 l 700 821 l 801 821 l 592 425 l 808 0 l 708 0 l 517 397 l 475 397 l 475 0 l 386 0 l 386 397 l 344 397 l 151 0 l 53 0 z "},"a":{"ha":499,"x_min":56,"x_max":438,"o":"m 199 -10 q 134 -1 167 -10 q 78 41 101 8 q 56 143 56 74 l 56 210 q 98 322 56 279 q 214 397 140 364 q 291 439 261 421 q 336 479 321 457 q 351 539 351 501 l 351 568 q 338 619 351 601 q 301 644 324 638 q 253 651 278 651 q 171 617 190 651 q 151 517 151 583 l 151 458 l 72 458 l 72 525 q 86 616 72 576 q 139 678 100 656 q 253 701 178 701 q 372 683 332 701 q 424 632 411 665 q 438 553 438 599 l 438 0 l 353 0 l 351 86 q 292 15 335 39 q 199 -10 249 -10 m 231 49 q 322 93 293 49 q 350 211 350 138 l 350 431 q 304 390 336 408 q 239 354 272 372 q 166 297 192 326 q 140 214 140 267 l 140 160 q 154 86 140 110 q 189 56 168 63 q 231 49 210 49 z "},"а":{"ha":499,"x_min":56,"x_max":438,"o":"m 199 -10 q 134 -1 167 -10 q 78 41 101 8 q 56 143 56 74 l 56 210 q 98 322 56 279 q 214 397 140 364 q 291 439 261 421 q 336 479 321 457 q 351 539 351 501 l 351 568 q 338 619 351 601 q 301 644 324 638 q 253 651 278 651 q 171 617 190 651 q 151 517 151 583 l 151 458 l 72 458 l 72 525 q 86 616 72 576 q 139 678 100 656 q 253 701 178 701 q 372 683 332 701 q 424 632 411 665 q 438 553 438 599 l 438 0 l 353 0 l 351 86 q 292 15 335 39 q 199 -10 249 -10 m 231 49 q 322 93 293 49 q 350 211 350 138 l 350 431 q 304 390 336 408 q 239 354 272 372 q 166 297 192 326 q 140 214 140 267 l 140 160 q 154 86 140 110 q 189 56 168 63 q 231 49 210 49 z "},"á":{"ha":499,"x_min":56,"x_max":438,"o":"m 199 -10 q 134 -1 167 -10 q 78 41 101 8 q 56 143 56 74 l 56 210 q 98 322 56 279 q 214 397 140 364 q 291 439 261 421 q 336 479 321 457 q 351 539 351 501 l 351 568 q 338 619 351 601 q 301 644 324 638 q 253 651 278 651 q 171 617 190 651 q 151 517 151 583 l 151 458 l 72 458 l 72 525 q 86 616 72 576 q 139 678 100 656 q 253 701 178 701 q 372 683 332 701 q 424 632 411 665 q 438 553 438 599 l 438 0 l 353 0 l 351 86 q 292 15 335 39 q 199 -10 249 -10 m 231 49 q 322 93 293 49 q 350 211 350 138 l 350 431 q 304 390 336 408 q 239 354 272 372 q 166 297 192 326 q 140 214 140 267 l 140 160 q 154 86 140 110 q 189 56 168 63 q 231 49 210 49 m 204 758 l 283 886 l 372 886 l 258 758 l 204 758 z "},"ă":{"ha":499,"x_min":56,"x_max":438,"o":"m 199 -10 q 134 -1 167 -10 q 78 41 101 8 q 56 143 56 74 l 56 210 q 98 322 56 279 q 214 397 140 364 q 291 439 261 421 q 336 479 321 457 q 351 539 351 501 l 351 568 q 338 619 351 601 q 301 644 324 638 q 253 651 278 651 q 171 617 190 651 q 151 517 151 583 l 151 458 l 72 458 l 72 525 q 86 616 72 576 q 139 678 100 656 q 253 701 178 701 q 372 683 332 701 q 424 632 411 665 q 438 553 438 599 l 438 0 l 353 0 l 351 86 q 292 15 335 39 q 199 -10 249 -10 m 231 49 q 322 93 293 49 q 350 211 350 138 l 350 431 q 304 390 336 408 q 239 354 272 372 q 166 297 192 326 q 140 214 140 267 l 140 160 q 154 86 140 110 q 189 56 168 63 q 231 49 210 49 m 254 757 q 172 778 201 757 q 131 828 143 799 q 118 881 119 857 l 169 881 q 199 822 175 842 q 256 803 222 803 q 314 822 290 803 q 342 881 338 840 l 393 881 q 378 824 392 853 q 334 776 364 796 q 254 757 304 757 z "},"ắ":{"ha":499,"x_min":56,"x_max":438,"o":"m 199 -10 q 134 -1 167 -10 q 78 41 101 8 q 56 143 56 74 l 56 210 q 98 322 56 279 q 214 397 140 364 q 291 439 261 421 q 336 479 321 457 q 351 539 351 501 l 351 568 q 338 619 351 601 q 301 644 324 638 q 253 651 278 651 q 171 617 190 651 q 151 517 151 583 l 151 458 l 72 458 l 72 525 q 86 616 72 576 q 139 678 100 656 q 253 701 178 701 q 372 683 332 701 q 424 632 411 665 q 438 553 438 599 l 438 0 l 353 0 l 351 86 q 292 15 335 39 q 199 -10 249 -10 m 231 49 q 322 93 293 49 q 350 211 350 138 l 350 431 q 304 390 336 408 q 239 354 272 372 q 166 297 192 326 q 140 214 140 267 l 140 160 q 154 86 140 110 q 189 56 168 63 q 231 49 210 49 m 254 757 q 172 778 201 757 q 131 828 143 799 q 118 881 119 857 l 169 881 q 199 822 175 842 q 256 803 222 803 q 314 822 290 803 q 342 881 338 840 l 393 881 q 378 824 392 853 q 334 776 364 796 q 254 757 304 757 m 204 904 l 283 1032 l 372 1032 l 258 904 l 204 904 z "},"ặ":{"ha":499,"x_min":56,"x_max":438,"o":"m 199 -10 q 134 -1 167 -10 q 78 41 101 8 q 56 143 56 74 l 56 210 q 98 322 56 279 q 214 397 140 364 q 291 439 261 421 q 336 479 321 457 q 351 539 351 501 l 351 568 q 338 619 351 601 q 301 644 324 638 q 253 651 278 651 q 171 617 190 651 q 151 517 151 583 l 151 458 l 72 458 l 72 525 q 86 616 72 576 q 139 678 100 656 q 253 701 178 701 q 372 683 332 701 q 424 632 411 665 q 438 553 438 599 l 438 0 l 353 0 l 351 86 q 292 15 335 39 q 199 -10 249 -10 m 231 49 q 322 93 293 49 q 350 211 350 138 l 350 431 q 304 390 336 408 q 239 354 272 372 q 166 297 192 326 q 140 214 140 267 l 140 160 q 154 86 140 110 q 189 56 168 63 q 231 49 210 49 m 249 -150 q 216 -137 229 -150 q 203 -106 203 -124 q 216 -73 203 -86 q 249 -60 229 -60 q 282 -73 268 -60 q 296 -106 296 -86 q 282 -137 296 -124 q 249 -150 268 -150 m 254 757 q 172 778 201 757 q 131 828 143 799 q 118 881 119 857 l 169 881 q 199 822 175 842 q 256 803 222 803 q 314 822 290 803 q 342 881 338 840 l 393 881 q 378 824 392 853 q 334 776 364 796 q 254 757 304 757 z "},"ằ":{"ha":499,"x_min":56,"x_max":438,"o":"m 199 -10 q 134 -1 167 -10 q 78 41 101 8 q 56 143 56 74 l 56 210 q 98 322 56 279 q 214 397 140 364 q 291 439 261 421 q 336 479 321 457 q 351 539 351 501 l 351 568 q 338 619 351 601 q 301 644 324 638 q 253 651 278 651 q 171 617 190 651 q 151 517 151 583 l 151 458 l 72 458 l 72 525 q 86 616 72 576 q 139 678 100 656 q 253 701 178 701 q 372 683 332 701 q 424 632 411 665 q 438 553 438 599 l 438 0 l 353 0 l 351 86 q 292 15 335 39 q 199 -10 249 -10 m 231 49 q 322 93 293 49 q 350 211 350 138 l 350 431 q 304 390 336 408 q 239 354 272 372 q 166 297 192 326 q 140 214 140 267 l 140 160 q 154 86 140 110 q 189 56 168 63 q 231 49 210 49 m 254 757 q 172 778 201 757 q 131 828 143 799 q 118 881 119 857 l 169 881 q 199 822 175 842 q 256 803 222 803 q 314 822 290 803 q 342 881 338 840 l 393 881 q 378 824 392 853 q 334 776 364 796 q 254 757 304 757 m 258 904 l 143 1032 l 233 1032 l 311 904 l 258 904 z "},"ẳ":{"ha":499,"x_min":56,"x_max":438,"o":"m 199 -10 q 134 -1 167 -10 q 78 41 101 8 q 56 143 56 74 l 56 210 q 98 322 56 279 q 214 397 140 364 q 291 439 261 421 q 336 479 321 457 q 351 539 351 501 l 351 568 q 338 619 351 601 q 301 644 324 638 q 253 651 278 651 q 171 617 190 651 q 151 517 151 583 l 151 458 l 72 458 l 72 525 q 86 616 72 576 q 139 678 100 656 q 253 701 178 701 q 372 683 332 701 q 424 632 411 665 q 438 553 438 599 l 438 0 l 353 0 l 351 86 q 292 15 335 39 q 199 -10 249 -10 m 231 49 q 322 93 293 49 q 350 211 350 138 l 350 431 q 304 390 336 408 q 239 354 272 372 q 166 297 192 326 q 140 214 140 267 l 140 160 q 154 86 140 110 q 189 56 168 63 q 231 49 210 49 m 254 757 q 172 778 201 757 q 131 828 143 799 q 118 881 119 857 l 169 881 q 199 822 175 842 q 256 803 222 803 q 314 822 290 803 q 342 881 338 840 l 393 881 q 378 824 392 853 q 334 776 364 796 q 254 757 304 757 m 232 906 l 232 928 q 248 958 232 949 q 279 978 264 968 q 294 1006 294 988 l 294 1011 q 285 1037 294 1025 q 256 1049 276 1049 q 219 1015 226 1049 l 176 1024 q 201 1069 181 1053 q 260 1085 222 1085 q 326 1069 304 1085 q 347 1011 347 1053 l 347 1008 q 331 965 347 978 q 297 946 314 953 q 281 922 281 939 l 281 906 l 232 906 z "},"ẵ":{"ha":499,"x_min":56,"x_max":438,"o":"m 199 -10 q 134 -1 167 -10 q 78 41 101 8 q 56 143 56 74 l 56 210 q 98 322 56 279 q 214 397 140 364 q 291 439 261 421 q 336 479 321 457 q 351 539 351 501 l 351 568 q 338 619 351 601 q 301 644 324 638 q 253 651 278 651 q 171 617 190 651 q 151 517 151 583 l 151 458 l 72 458 l 72 525 q 86 616 72 576 q 139 678 100 656 q 253 701 178 701 q 372 683 332 701 q 424 632 411 665 q 438 553 438 599 l 438 0 l 353 0 l 351 86 q 292 15 335 39 q 199 -10 249 -10 m 231 49 q 322 93 293 49 q 350 211 350 138 l 350 431 q 304 390 336 408 q 239 354 272 372 q 166 297 192 326 q 140 214 140 267 l 140 160 q 154 86 140 110 q 189 56 168 63 q 231 49 210 49 m 254 757 q 172 778 201 757 q 131 828 143 799 q 118 881 119 857 l 169 881 q 199 822 175 842 q 256 803 222 803 q 314 822 290 803 q 342 881 338 840 l 393 881 q 378 824 392 853 q 334 776 364 796 q 254 757 304 757 m 317 915 q 284 922 297 915 q 251 940 271 928 q 224 956 239 947 q 193 965 210 965 q 165 953 176 965 q 151 917 154 942 l 117 917 q 139 984 118 958 q 194 1010 160 1010 q 230 1002 214 1010 q 263 983 246 994 q 290 968 278 975 q 317 961 303 961 q 346 972 335 961 q 361 1007 357 983 l 397 1007 q 384 958 396 979 q 355 926 372 938 q 317 915 338 915 z "},"ǎ":{"ha":499,"x_min":56,"x_max":438,"o":"m 199 -10 q 134 -1 167 -10 q 78 41 101 8 q 56 143 56 74 l 56 210 q 98 322 56 279 q 214 397 140 364 q 291 439 261 421 q 336 479 321 457 q 351 539 351 501 l 351 568 q 338 619 351 601 q 301 644 324 638 q 253 651 278 651 q 171 617 190 651 q 151 517 151 583 l 151 458 l 72 458 l 72 525 q 86 616 72 576 q 139 678 100 656 q 253 701 178 701 q 372 683 332 701 q 424 632 411 665 q 438 553 438 599 l 438 0 l 353 0 l 351 86 q 292 15 335 39 q 199 -10 249 -10 m 231 49 q 322 93 293 49 q 350 211 350 138 l 350 431 q 304 390 336 408 q 239 354 272 372 q 166 297 192 326 q 140 214 140 267 l 140 160 q 154 86 140 110 q 189 56 168 63 q 231 49 210 49 m 226 758 l 103 886 l 163 886 l 256 801 l 353 886 l 408 886 l 285 758 l 226 758 z "},"â":{"ha":499,"x_min":56,"x_max":438,"o":"m 199 -10 q 134 -1 167 -10 q 78 41 101 8 q 56 143 56 74 l 56 210 q 98 322 56 279 q 214 397 140 364 q 291 439 261 421 q 336 479 321 457 q 351 539 351 501 l 351 568 q 338 619 351 601 q 301 644 324 638 q 253 651 278 651 q 171 617 190 651 q 151 517 151 583 l 151 458 l 72 458 l 72 525 q 86 616 72 576 q 139 678 100 656 q 253 701 178 701 q 372 683 332 701 q 424 632 411 665 q 438 553 438 599 l 438 0 l 353 0 l 351 86 q 292 15 335 39 q 199 -10 249 -10 m 231 49 q 322 93 293 49 q 350 211 350 138 l 350 431 q 304 390 336 408 q 239 354 272 372 q 166 297 192 326 q 140 214 140 267 l 140 160 q 154 86 140 110 q 189 56 168 63 q 231 49 210 49 m 104 758 l 228 886 l 286 886 l 410 758 l 353 758 l 257 844 l 163 758 l 104 758 z "},"ấ":{"ha":499,"x_min":56,"x_max":574,"o":"m 199 -10 q 134 -1 167 -10 q 78 41 101 8 q 56 143 56 74 l 56 210 q 98 322 56 279 q 214 397 140 364 q 291 439 261 421 q 336 479 321 457 q 351 539 351 501 l 351 568 q 338 619 351 601 q 301 644 324 638 q 253 651 278 651 q 171 617 190 651 q 151 517 151 583 l 151 458 l 72 458 l 72 525 q 86 616 72 576 q 139 678 100 656 q 253 701 178 701 q 372 683 332 701 q 424 632 411 665 q 438 553 438 599 l 438 0 l 353 0 l 351 86 q 292 15 335 39 q 199 -10 249 -10 m 231 49 q 322 93 293 49 q 350 211 350 138 l 350 431 q 304 390 336 408 q 239 354 272 372 q 166 297 192 326 q 140 214 140 267 l 140 160 q 154 86 140 110 q 189 56 168 63 q 231 49 210 49 m 104 758 l 228 886 l 286 886 l 410 758 l 353 758 l 257 844 l 163 758 l 104 758 m 406 832 l 485 960 l 574 960 l 460 832 l 406 832 z "},"ậ":{"ha":499,"x_min":56,"x_max":438,"o":"m 199 -10 q 134 -1 167 -10 q 78 41 101 8 q 56 143 56 74 l 56 210 q 98 322 56 279 q 214 397 140 364 q 291 439 261 421 q 336 479 321 457 q 351 539 351 501 l 351 568 q 338 619 351 601 q 301 644 324 638 q 253 651 278 651 q 171 617 190 651 q 151 517 151 583 l 151 458 l 72 458 l 72 525 q 86 616 72 576 q 139 678 100 656 q 253 701 178 701 q 372 683 332 701 q 424 632 411 665 q 438 553 438 599 l 438 0 l 353 0 l 351 86 q 292 15 335 39 q 199 -10 249 -10 m 231 49 q 322 93 293 49 q 350 211 350 138 l 350 431 q 304 390 336 408 q 239 354 272 372 q 166 297 192 326 q 140 214 140 267 l 140 160 q 154 86 140 110 q 189 56 168 63 q 231 49 210 49 m 249 -150 q 216 -137 229 -150 q 203 -106 203 -124 q 216 -73 203 -86 q 249 -60 229 -60 q 282 -73 268 -60 q 296 -106 296 -86 q 282 -137 296 -124 q 249 -150 268 -150 m 104 758 l 228 886 l 286 886 l 410 758 l 353 758 l 257 844 l 163 758 l 104 758 z "},"ầ":{"ha":499,"x_min":56,"x_max":513,"o":"m 199 -10 q 134 -1 167 -10 q 78 41 101 8 q 56 143 56 74 l 56 210 q 98 322 56 279 q 214 397 140 364 q 291 439 261 421 q 336 479 321 457 q 351 539 351 501 l 351 568 q 338 619 351 601 q 301 644 324 638 q 253 651 278 651 q 171 617 190 651 q 151 517 151 583 l 151 458 l 72 458 l 72 525 q 86 616 72 576 q 139 678 100 656 q 253 701 178 701 q 372 683 332 701 q 424 632 411 665 q 438 553 438 599 l 438 0 l 353 0 l 351 86 q 292 15 335 39 q 199 -10 249 -10 m 231 49 q 322 93 293 49 q 350 211 350 138 l 350 431 q 304 390 336 408 q 239 354 272 372 q 166 297 192 326 q 140 214 140 267 l 140 160 q 154 86 140 110 q 189 56 168 63 q 231 49 210 49 m 104 758 l 228 886 l 286 886 l 410 758 l 353 758 l 257 844 l 163 758 l 104 758 m 460 832 l 344 960 l 435 960 l 513 832 l 460 832 z "},"ẩ":{"ha":499,"x_min":56,"x_max":549,"o":"m 199 -10 q 134 -1 167 -10 q 78 41 101 8 q 56 143 56 74 l 56 210 q 98 322 56 279 q 214 397 140 364 q 291 439 261 421 q 336 479 321 457 q 351 539 351 501 l 351 568 q 338 619 351 601 q 301 644 324 638 q 253 651 278 651 q 171 617 190 651 q 151 517 151 583 l 151 458 l 72 458 l 72 525 q 86 616 72 576 q 139 678 100 656 q 253 701 178 701 q 372 683 332 701 q 424 632 411 665 q 438 553 438 599 l 438 0 l 353 0 l 351 86 q 292 15 335 39 q 199 -10 249 -10 m 231 49 q 322 93 293 49 q 350 211 350 138 l 350 431 q 304 390 336 408 q 239 354 272 372 q 166 297 192 326 q 140 214 140 267 l 140 160 q 154 86 140 110 q 189 56 168 63 q 231 49 210 49 m 104 758 l 228 886 l 286 886 l 410 758 l 353 758 l 257 844 l 163 758 l 104 758 m 433 833 l 433 856 q 449 886 433 876 q 481 906 465 896 q 496 933 496 915 l 496 939 q 487 965 496 953 q 457 976 478 976 q 421 943 428 976 l 378 951 q 403 997 382 981 q 461 1013 424 1013 q 527 997 506 1013 q 549 939 549 981 l 549 936 q 532 893 549 906 q 499 874 515 881 q 482 850 482 867 l 482 833 l 433 833 z "},"ẫ":{"ha":499,"x_min":56,"x_max":438,"o":"m 199 -10 q 134 -1 167 -10 q 78 41 101 8 q 56 143 56 74 l 56 210 q 98 322 56 279 q 214 397 140 364 q 291 439 261 421 q 336 479 321 457 q 351 539 351 501 l 351 568 q 338 619 351 601 q 301 644 324 638 q 253 651 278 651 q 171 617 190 651 q 151 517 151 583 l 151 458 l 72 458 l 72 525 q 86 616 72 576 q 139 678 100 656 q 253 701 178 701 q 372 683 332 701 q 424 632 411 665 q 438 553 438 599 l 438 0 l 353 0 l 351 86 q 292 15 335 39 q 199 -10 249 -10 m 231 49 q 322 93 293 49 q 350 211 350 138 l 350 431 q 304 390 336 408 q 239 354 272 372 q 166 297 192 326 q 140 214 140 267 l 140 160 q 154 86 140 110 q 189 56 168 63 q 231 49 210 49 m 104 758 l 228 886 l 286 886 l 410 758 l 353 758 l 257 844 l 163 758 l 104 758 m 315 918 q 283 924 296 918 q 250 943 269 931 q 223 959 238 950 q 192 968 208 968 q 164 956 175 968 q 150 919 153 944 l 115 919 q 138 987 117 961 q 193 1013 158 1013 q 228 1005 213 1013 q 261 986 244 997 q 289 971 276 978 q 315 964 301 964 q 344 975 333 964 q 360 1010 356 986 l 396 1010 q 383 961 394 982 q 353 929 371 940 q 315 918 336 918 z "},"´":{"ha":193,"x_min":0,"x_max":168,"o":"m 0 758 l 79 886 l 168 886 l 54 758 l 0 758 z "},"́":{"ha":0,"x_min":0,"x_max":168,"o":"m 0 758 l 79 886 l 168 886 l 54 758 l 0 758 z "},"ä":{"ha":499,"x_min":56,"x_max":438,"o":"m 199 -10 q 134 -1 167 -10 q 78 41 101 8 q 56 143 56 74 l 56 210 q 98 322 56 279 q 214 397 140 364 q 291 439 261 421 q 336 479 321 457 q 351 539 351 501 l 351 568 q 338 619 351 601 q 301 644 324 638 q 253 651 278 651 q 171 617 190 651 q 151 517 151 583 l 151 458 l 72 458 l 72 525 q 86 616 72 576 q 139 678 100 656 q 253 701 178 701 q 372 683 332 701 q 424 632 411 665 q 438 553 438 599 l 438 0 l 353 0 l 351 86 q 292 15 335 39 q 199 -10 249 -10 m 231 49 q 322 93 293 49 q 350 211 350 138 l 350 431 q 304 390 336 408 q 239 354 272 372 q 166 297 192 326 q 140 214 140 267 l 140 160 q 154 86 140 110 q 189 56 168 63 q 231 49 210 49 m 190 772 q 158 785 171 772 q 144 817 144 799 q 158 847 144 835 q 190 860 171 860 q 222 847 210 860 q 235 817 235 835 q 222 785 235 799 q 190 772 210 772 m 325 772 q 292 785 306 772 q 279 817 279 799 q 292 847 279 835 q 325 860 306 860 q 357 847 344 860 q 369 817 369 835 q 357 785 369 799 q 325 772 344 772 z "},"ạ":{"ha":499,"x_min":56,"x_max":438,"o":"m 199 -10 q 134 -1 167 -10 q 78 41 101 8 q 56 143 56 74 l 56 210 q 98 322 56 279 q 214 397 140 364 q 291 439 261 421 q 336 479 321 457 q 351 539 351 501 l 351 568 q 338 619 351 601 q 301 644 324 638 q 253 651 278 651 q 171 617 190 651 q 151 517 151 583 l 151 458 l 72 458 l 72 525 q 86 616 72 576 q 139 678 100 656 q 253 701 178 701 q 372 683 332 701 q 424 632 411 665 q 438 553 438 599 l 438 0 l 353 0 l 351 86 q 292 15 335 39 q 199 -10 249 -10 m 231 49 q 322 93 293 49 q 350 211 350 138 l 350 431 q 304 390 336 408 q 239 354 272 372 q 166 297 192 326 q 140 214 140 267 l 140 160 q 154 86 140 110 q 189 56 168 63 q 231 49 210 49 m 249 -150 q 216 -137 229 -150 q 203 -106 203 -124 q 216 -73 203 -86 q 249 -60 229 -60 q 282 -73 268 -60 q 296 -106 296 -86 q 282 -137 296 -124 q 249 -150 268 -150 z "},"æ":{"ha":778,"x_min":56,"x_max":729,"o":"m 199 -6 q 155 -2 179 -6 q 108 15 131 1 q 71 60 86 29 q 56 147 56 92 l 56 214 q 97 322 56 282 q 204 393 139 363 q 287 436 254 417 q 335 477 319 456 q 351 528 351 499 l 351 568 q 338 619 351 601 q 301 644 324 638 q 253 651 278 651 q 171 617 190 651 q 151 517 151 583 l 151 458 l 72 458 l 72 525 q 86 616 72 576 q 139 678 100 656 q 253 701 178 701 q 361 682 325 701 q 409 629 397 663 q 421 553 421 596 l 421 57 l 369 117 q 302 22 349 49 q 199 -6 256 -6 m 231 53 q 322 95 293 53 q 350 211 350 138 l 350 431 q 303 389 336 407 q 235 350 269 371 q 165 295 189 324 q 140 218 140 267 l 140 164 q 154 90 140 114 q 189 59 168 65 q 231 53 210 53 m 540 -3 q 459 4 493 -3 q 403 30 425 11 q 371 87 381 49 q 361 186 361 125 l 361 531 q 403 660 361 619 q 540 700 446 700 q 685 664 642 700 q 729 531 729 628 l 729 353 l 439 353 l 439 157 q 447 88 439 113 q 477 54 456 64 q 540 44 499 44 q 603 55 581 44 q 633 92 625 65 q 642 164 642 118 l 642 246 l 729 246 l 729 193 q 718 92 729 131 q 684 33 707 54 q 626 5 661 13 q 540 -3 590 -3 m 439 397 l 642 397 l 642 538 q 622 624 642 597 q 540 651 603 651 q 460 624 481 651 q 439 538 439 597 l 439 397 z "},"à":{"ha":499,"x_min":56,"x_max":438,"o":"m 199 -10 q 134 -1 167 -10 q 78 41 101 8 q 56 143 56 74 l 56 210 q 98 322 56 279 q 214 397 140 364 q 291 439 261 421 q 336 479 321 457 q 351 539 351 501 l 351 568 q 338 619 351 601 q 301 644 324 638 q 253 651 278 651 q 171 617 190 651 q 151 517 151 583 l 151 458 l 72 458 l 72 525 q 86 616 72 576 q 139 678 100 656 q 253 701 178 701 q 372 683 332 701 q 424 632 411 665 q 438 553 438 599 l 438 0 l 353 0 l 351 86 q 292 15 335 39 q 199 -10 249 -10 m 231 49 q 322 93 293 49 q 350 211 350 138 l 350 431 q 304 390 336 408 q 239 354 272 372 q 166 297 192 326 q 140 214 140 267 l 140 160 q 154 86 140 110 q 189 56 168 63 q 231 49 210 49 m 258 758 l 143 886 l 233 886 l 311 758 l 258 758 z "},"ả":{"ha":499,"x_min":56,"x_max":438,"o":"m 199 -10 q 134 -1 167 -10 q 78 41 101 8 q 56 143 56 74 l 56 210 q 98 322 56 279 q 214 397 140 364 q 291 439 261 421 q 336 479 321 457 q 351 539 351 501 l 351 568 q 338 619 351 601 q 301 644 324 638 q 253 651 278 651 q 171 617 190 651 q 151 517 151 583 l 151 458 l 72 458 l 72 525 q 86 616 72 576 q 139 678 100 656 q 253 701 178 701 q 372 683 332 701 q 424 632 411 665 q 438 553 438 599 l 438 0 l 353 0 l 351 86 q 292 15 335 39 q 199 -10 249 -10 m 231 49 q 322 93 293 49 q 350 211 350 138 l 350 431 q 304 390 336 408 q 239 354 272 372 q 166 297 192 326 q 140 214 140 267 l 140 160 q 154 86 140 110 q 189 56 168 63 q 231 49 210 49 m 232 760 l 232 782 q 248 813 232 803 q 279 832 264 822 q 294 860 294 842 l 294 865 q 285 891 294 879 q 256 903 276 903 q 219 869 226 903 l 176 878 q 201 923 181 907 q 260 939 222 939 q 326 923 304 939 q 347 865 347 907 l 347 863 q 331 819 347 832 q 297 800 314 807 q 281 776 281 793 l 281 760 l 232 760 z "},"ā":{"ha":499,"x_min":56,"x_max":438,"o":"m 199 -10 q 134 -1 167 -10 q 78 41 101 8 q 56 143 56 74 l 56 210 q 98 322 56 279 q 214 397 140 364 q 291 439 261 421 q 336 479 321 457 q 351 539 351 501 l 351 568 q 338 619 351 601 q 301 644 324 638 q 253 651 278 651 q 171 617 190 651 q 151 517 151 583 l 151 458 l 72 458 l 72 525 q 86 616 72 576 q 139 678 100 656 q 253 701 178 701 q 372 683 332 701 q 424 632 411 665 q 438 553 438 599 l 438 0 l 353 0 l 351 86 q 292 15 335 39 q 199 -10 249 -10 m 231 49 q 322 93 293 49 q 350 211 350 138 l 350 431 q 304 390 336 408 q 239 354 272 372 q 166 297 192 326 q 140 214 140 267 l 140 160 q 154 86 140 110 q 189 56 168 63 q 231 49 210 49 m 128 786 l 128 833 l 386 833 l 386 786 l 128 786 z "},"&":{"ha":667,"x_min":57,"x_max":611,"o":"m 264 -10 q 143 19 189 -10 q 77 100 97 49 q 57 219 57 151 q 89 355 57 303 q 183 425 121 407 q 158 476 169 443 q 146 553 146 508 q 190 664 149 624 q 317 704 231 704 q 395 699 360 704 q 456 685 431 693 q 490 672 481 678 l 490 606 q 462 615 485 608 q 406 627 439 621 q 336 633 372 633 q 265 615 290 633 q 233 569 240 597 q 232 509 225 540 q 256 450 239 478 q 278 420 261 440 q 315 375 294 400 q 356 326 335 350 q 392 283 376 301 q 415 257 408 265 l 417 406 l 611 406 l 611 347 l 479 347 q 479 281 479 307 q 478 238 479 256 q 476 201 478 221 q 553 126 517 160 q 611 81 589 93 l 611 -3 q 544 35 589 0 q 450 119 500 71 q 406 39 436 67 q 339 1 376 11 q 264 -10 301 -10 m 267 53 q 359 84 325 53 q 397 168 393 115 q 296 280 346 225 q 218 372 246 335 q 153 326 178 360 q 129 224 129 292 q 166 96 128 139 q 267 53 204 53 z "},"ą":{"ha":499,"x_min":56,"x_max":465,"o":"m 199 -10 q 134 -1 167 -10 q 78 41 101 8 q 56 143 56 74 l 56 210 q 98 322 56 279 q 214 397 140 364 q 291 439 261 421 q 336 479 321 457 q 351 539 351 501 l 351 568 q 338 619 351 601 q 301 644 324 638 q 253 651 278 651 q 171 617 190 651 q 151 517 151 583 l 151 458 l 72 458 l 72 525 q 86 616 72 576 q 139 678 100 656 q 253 701 178 701 q 372 683 332 701 q 424 632 411 665 q 438 553 438 599 l 438 0 l 353 0 l 351 86 q 292 15 335 39 q 199 -10 249 -10 m 231 49 q 322 93 293 49 q 350 211 350 138 l 350 431 q 304 390 336 408 q 239 354 272 372 q 166 297 192 326 q 140 214 140 267 l 140 160 q 154 86 140 110 q 189 56 168 63 q 231 49 210 49 m 399 -187 q 331 -165 358 -187 q 303 -107 303 -142 q 331 -39 303 -68 q 393 1 358 -10 l 438 0 q 382 -43 401 -17 q 363 -96 363 -69 q 381 -136 363 -122 q 417 -150 399 -150 q 438 -147 429 -150 q 451 -142 447 -144 l 465 -171 q 441 -182 457 -176 q 399 -187 425 -187 z "},"≈":{"ha":675,"x_min":61,"x_max":614,"o":"m 469 450 q 381 465 424 450 q 294 493 338 479 q 200 508 250 507 q 139 490 163 510 q 114 447 115 471 l 61 447 q 84 514 64 488 q 136 555 104 540 q 206 568 168 569 q 293 554 251 568 q 379 527 335 540 q 474 514 424 514 q 532 530 511 513 q 556 569 553 547 l 614 569 q 588 494 611 521 q 533 458 565 467 q 469 450 501 449 m 469 160 q 381 176 424 161 q 294 205 338 190 q 200 219 250 219 q 139 201 163 221 q 114 158 115 182 l 61 158 q 84 225 64 199 q 136 266 104 251 q 206 279 168 281 q 293 265 251 279 q 379 238 335 251 q 474 225 424 225 q 532 241 511 224 q 556 281 553 258 l 614 281 q 588 205 611 232 q 533 169 565 178 q 469 160 501 160 z "},"å":{"ha":499,"x_min":56,"x_max":438,"o":"m 199 -10 q 134 -1 167 -10 q 78 41 101 8 q 56 143 56 74 l 56 210 q 98 322 56 279 q 214 397 140 364 q 291 439 261 421 q 336 479 321 457 q 351 539 351 501 l 351 568 q 338 619 351 601 q 301 644 324 638 q 253 651 278 651 q 171 617 190 651 q 151 517 151 583 l 151 458 l 72 458 l 72 525 q 86 616 72 576 q 139 678 100 656 q 253 701 178 701 q 372 683 332 701 q 424 632 411 665 q 438 553 438 599 l 438 0 l 353 0 l 351 86 q 292 15 335 39 q 199 -10 249 -10 m 231 49 q 322 93 293 49 q 350 211 350 138 l 350 431 q 304 390 336 408 q 239 354 272 372 q 166 297 192 326 q 140 214 140 267 l 140 160 q 154 86 140 110 q 189 56 168 63 q 231 49 210 49 m 256 754 q 177 785 208 754 q 146 858 146 815 q 177 932 146 901 q 256 963 208 963 q 336 932 306 963 q 367 857 367 901 q 333 785 367 815 q 256 754 300 754 m 256 796 q 303 813 286 796 q 321 857 321 831 q 303 904 321 888 q 256 921 286 921 q 208 904 226 921 q 190 857 190 888 q 208 813 190 831 q 256 796 226 796 z "},"^":{"ha":547,"x_min":61,"x_max":486,"o":"m 61 688 l 250 942 l 299 942 l 486 688 l 408 688 l 272 865 l 142 688 l 61 688 z "},"~":{"ha":675,"x_min":61,"x_max":614,"o":"m 469 707 q 381 722 424 708 q 294 751 338 736 q 200 765 250 765 q 139 748 163 767 q 114 706 115 729 l 61 706 q 84 773 64 746 q 136 814 104 800 q 206 826 168 828 q 293 813 251 826 q 379 785 335 799 q 474 771 424 771 q 532 788 511 769 q 556 826 553 806 l 614 826 q 588 752 611 778 q 533 717 565 726 q 469 707 501 707 z "},"*":{"ha":767,"x_min":64,"x_max":688,"o":"m 232 142 l 154 197 l 351 415 l 64 469 l 96 568 l 361 442 l 326 732 l 425 732 l 392 442 l 657 565 l 688 474 l 401 415 l 599 199 l 521 143 l 378 396 l 232 142 z "},"@":{"ha":993,"x_min":68,"x_max":922,"o":"m 486 -90 q 234 -40 325 -90 q 106 110 143 11 q 68 349 68 208 q 168 699 68 574 q 490 824 268 824 q 712 782 614 824 q 866 649 810 740 q 922 411 922 558 q 901 251 922 322 q 840 139 881 181 q 739 97 800 97 q 667 120 696 97 q 626 176 639 143 q 610 240 613 210 l 633 242 q 560 153 607 179 q 457 128 514 128 q 353 158 392 128 q 314 265 314 188 q 328 334 314 306 q 381 385 343 363 q 490 429 418 408 q 547 449 524 438 q 583 472 571 461 q 597 493 593 482 q 600 518 600 504 q 577 572 600 553 q 501 592 554 592 q 417 569 442 592 q 393 503 393 547 l 393 461 l 328 461 l 328 504 q 343 578 328 549 q 397 623 358 608 q 503 638 435 638 q 606 622 569 638 q 658 575 643 607 q 672 494 672 543 l 672 247 q 694 165 672 190 q 751 139 717 139 q 809 165 782 139 q 852 250 836 192 q 868 404 868 308 q 828 603 868 518 q 707 735 789 688 q 499 782 625 782 q 290 740 374 782 q 165 603 207 699 q 122 346 122 507 q 149 146 122 224 q 226 26 176 68 q 344 -31 276 -15 q 494 -49 413 -47 q 564 -44 521 -49 q 654 -33 607 -40 q 745 -14 701 -25 q 817 13 789 -3 l 817 -35 q 743 -58 790 -44 q 631 -81 696 -72 q 486 -90 565 -90 m 478 179 q 547 197 518 179 q 590 240 575 215 q 604 286 604 264 l 604 422 q 555 406 585 415 q 496 385 525 396 q 429 353 454 368 q 393 317 404 338 q 382 264 382 297 q 404 199 382 219 q 478 179 426 179 z "},"ã":{"ha":499,"x_min":56,"x_max":438,"o":"m 199 -10 q 134 -1 167 -10 q 78 41 101 8 q 56 143 56 74 l 56 210 q 98 322 56 279 q 214 397 140 364 q 291 439 261 421 q 336 479 321 457 q 351 539 351 501 l 351 568 q 338 619 351 601 q 301 644 324 638 q 253 651 278 651 q 171 617 190 651 q 151 517 151 583 l 151 458 l 72 458 l 72 525 q 86 616 72 576 q 139 678 100 656 q 253 701 178 701 q 372 683 332 701 q 424 632 411 665 q 438 553 438 599 l 438 0 l 353 0 l 351 86 q 292 15 335 39 q 199 -10 249 -10 m 231 49 q 322 93 293 49 q 350 211 350 138 l 350 431 q 304 390 336 408 q 239 354 272 372 q 166 297 192 326 q 140 214 140 267 l 140 160 q 154 86 140 110 q 189 56 168 63 q 231 49 210 49 m 317 769 q 284 776 297 769 q 251 794 271 782 q 224 810 239 801 q 193 819 210 819 q 165 808 176 819 q 151 771 154 796 l 117 771 q 139 838 118 813 q 194 864 160 864 q 230 856 214 864 q 263 838 246 849 q 290 822 278 829 q 317 815 303 815 q 346 826 335 815 q 361 861 357 838 l 397 861 q 384 813 396 833 q 355 781 372 792 q 317 769 338 769 z "},"b":{"ha":507,"x_min":74,"x_max":451,"o":"m 278 -10 q 181 13 213 -10 q 139 64 150 36 l 135 0 l 74 0 l 74 875 l 158 875 l 158 631 q 208 682 175 665 q 290 699 240 699 q 390 676 356 699 q 438 615 425 654 q 451 525 451 576 l 451 185 q 444 103 451 139 q 417 42 436 67 q 365 3 399 17 q 278 -10 331 -10 m 263 50 q 324 61 303 50 q 353 92 344 72 q 364 135 363 111 q 365 183 365 158 l 365 511 q 364 559 365 536 q 353 601 363 582 q 322 631 343 619 q 263 642 301 642 q 182 613 204 642 q 160 528 160 585 l 160 213 q 161 156 160 185 q 172 103 163 128 q 201 65 181 79 q 263 50 222 50 z "},"\\":{"ha":707,"x_min":61,"x_max":606,"o":"m 539 -62 l 61 876 l 131 876 l 606 -62 l 539 -62 z "},"|":{"ha":317,"x_min":119,"x_max":197,"o":"m 119 -337 l 119 876 l 197 876 l 197 -337 l 119 -337 z "},"б":{"ha":503,"x_min":57,"x_max":446,"o":"m 249 -10 q 140 10 182 -10 q 77 71 97 29 q 57 176 57 113 l 57 678 q 74 785 57 746 q 128 840 92 824 q 217 857 164 857 q 274 860 244 857 q 328 869 303 864 q 370 882 353 875 q 394 894 388 889 l 394 850 q 367 819 394 836 q 282 801 339 803 l 261 801 q 195 792 221 801 q 156 756 169 782 q 142 685 143 731 l 142 581 q 188 625 154 606 q 279 644 222 644 q 375 626 339 644 q 428 568 411 607 q 446 468 446 529 l 446 196 q 436 99 446 139 q 404 35 426 60 q 344 1 382 11 q 249 -10 306 -10 m 251 44 q 323 63 300 44 q 353 112 346 81 q 361 179 361 143 l 361 458 q 354 522 361 493 q 325 569 347 551 q 253 586 303 586 q 190 575 213 586 q 156 547 167 564 q 144 510 146 529 q 142 475 142 492 l 142 179 q 149 112 142 143 q 179 63 156 81 q 251 44 203 44 z "},"{":{"ha":428,"x_min":78,"x_max":333,"o":"m 333 -190 q 210 -158 257 -183 q 140 -94 163 -133 q 118 -4 118 -54 q 132 72 118 38 q 163 136 146 106 q 194 197 181 167 q 208 260 208 226 q 190 310 208 289 q 141 343 171 331 q 78 357 111 356 l 78 385 q 138 398 108 386 q 188 432 168 410 q 207 485 207 454 q 193 546 207 517 q 163 604 179 575 q 132 667 146 633 q 118 742 118 701 q 139 832 118 794 q 207 892 160 869 q 333 922 254 915 l 333 869 q 270 853 299 864 q 226 817 242 843 q 210 742 210 792 q 221 669 210 701 q 247 609 232 638 q 274 550 263 581 q 285 481 285 519 q 275 438 285 460 q 242 398 265 415 q 182 371 219 381 q 260 329 233 357 q 286 263 286 301 q 275 195 286 225 q 249 137 264 165 q 224 76 235 108 q 214 3 214 44 q 231 -77 214 -47 q 276 -120 249 -107 q 333 -137 304 -133 l 333 -190 z "},"}":{"ha":428,"x_min":94,"x_max":350,"o":"m 94 -190 l 94 -137 q 152 -120 125 -133 q 197 -77 179 -107 q 214 3 214 -47 q 203 76 214 44 q 178 137 193 108 q 153 195 164 165 q 142 263 142 225 q 169 329 142 301 q 246 371 196 357 q 186 398 210 381 q 153 438 163 415 q 143 481 143 460 q 154 550 143 519 q 181 609 165 581 q 207 669 196 638 q 218 742 218 701 q 202 817 218 792 q 158 853 186 843 q 94 869 131 864 l 94 922 q 221 892 174 915 q 289 832 268 869 q 310 742 310 794 q 297 667 310 701 q 266 604 283 633 q 235 546 249 575 q 221 485 221 517 q 240 432 221 454 q 290 398 260 410 q 350 385 319 386 l 350 357 q 288 343 318 356 q 239 310 258 331 q 219 260 219 289 q 233 197 219 226 q 265 136 247 167 q 296 72 282 106 q 310 -4 310 38 q 288 -94 310 -54 q 219 -158 267 -133 q 94 -190 171 -183 z "},"[":{"ha":399,"x_min":65,"x_max":333,"o":"m 65 -79 l 65 875 l 333 875 l 333 825 l 146 825 l 146 -29 l 333 -29 l 333 -79 l 65 -79 z "},"]":{"ha":399,"x_min":65,"x_max":333,"o":"m 65 -79 l 65 -29 l 253 -29 l 253 825 l 65 825 l 65 875 l 333 875 l 333 -79 l 65 -79 z "},"˘":{"ha":317,"x_min":17,"x_max":292,"o":"m 153 760 q 71 781 100 760 q 30 831 42 801 q 17 883 18 860 l 68 883 q 97 825 74 844 q 154 806 121 806 q 213 824 189 806 q 240 883 236 843 l 292 883 q 276 827 290 856 q 233 779 263 799 q 153 760 203 760 z "},"̆":{"ha":0,"x_min":17,"x_max":292,"o":"m 153 760 q 71 781 100 760 q 30 831 42 801 q 17 883 18 860 l 68 883 q 97 825 74 844 q 154 806 121 806 q 213 824 189 806 q 240 883 236 843 l 292 883 q 276 827 290 856 q 233 779 263 799 q 153 760 203 760 z "},"¦":{"ha":311,"x_min":118,"x_max":194,"o":"m 118 -235 l 118 238 l 194 238 l 194 -235 l 118 -235 m 118 379 l 118 813 l 194 813 l 194 379 l 118 379 z "},"•":{"ha":547,"x_min":85,"x_max":464,"o":"m 275 199 q 179 224 222 199 q 110 293 136 250 q 85 389 85 336 q 110 484 85 442 q 179 552 136 526 q 275 578 222 578 q 370 552 328 578 q 438 484 413 526 q 464 389 464 442 q 438 293 464 336 q 370 224 413 250 q 275 199 328 199 z "},"c":{"ha":482,"x_min":57,"x_max":432,"o":"m 250 -12 q 139 3 182 -12 q 76 62 96 19 q 57 186 57 104 l 57 525 q 101 663 57 626 q 246 700 144 700 q 388 664 344 700 q 432 531 432 628 l 432 440 l 346 440 l 346 533 q 326 620 346 593 q 246 647 307 647 q 164 620 185 647 q 143 533 143 593 l 143 164 q 164 70 143 97 q 249 43 185 43 q 326 69 307 43 q 346 164 346 96 l 346 257 l 432 257 l 432 186 q 413 64 432 107 q 353 4 393 21 q 250 -12 313 -12 z "},"ć":{"ha":482,"x_min":57,"x_max":432,"o":"m 250 -12 q 139 3 182 -12 q 76 62 96 19 q 57 186 57 104 l 57 525 q 101 663 57 626 q 246 700 144 700 q 388 664 344 700 q 432 531 432 628 l 432 440 l 346 440 l 346 533 q 326 620 346 593 q 246 647 307 647 q 164 620 185 647 q 143 533 143 593 l 143 164 q 164 70 143 97 q 249 43 185 43 q 326 69 307 43 q 346 164 346 96 l 346 257 l 432 257 l 432 186 q 413 64 432 107 q 353 4 393 21 q 250 -12 313 -12 m 189 758 l 268 886 l 357 886 l 243 758 l 189 758 z "},"ˇ":{"ha":338,"x_min":8,"x_max":314,"o":"m 132 758 l 8 886 l 68 886 l 161 801 l 258 886 l 314 886 l 190 758 l 132 758 z "},"̌":{"ha":0,"x_min":8,"x_max":314,"o":"m 132 758 l 8 886 l 68 886 l 161 801 l 258 886 l 314 886 l 190 758 l 132 758 z "},"č":{"ha":482,"x_min":57,"x_max":432,"o":"m 250 -12 q 139 3 182 -12 q 76 62 96 19 q 57 186 57 104 l 57 525 q 101 663 57 626 q 246 700 144 700 q 388 664 344 700 q 432 531 432 628 l 432 440 l 346 440 l 346 533 q 326 620 346 593 q 246 647 307 647 q 164 620 185 647 q 143 533 143 593 l 143 164 q 164 70 143 97 q 249 43 185 43 q 326 69 307 43 q 346 164 346 96 l 346 257 l 432 257 l 432 186 q 413 64 432 107 q 353 4 393 21 q 250 -12 313 -12 m 211 758 l 88 886 l 147 886 l 240 801 l 338 886 l 393 886 l 269 758 l 211 758 z "},"ç":{"ha":482,"x_min":57,"x_max":432,"o":"m 250 -12 q 139 3 182 -12 q 76 62 96 19 q 57 186 57 104 l 57 525 q 101 663 57 626 q 246 700 144 700 q 388 664 344 700 q 432 531 432 628 l 432 440 l 346 440 l 346 533 q 326 620 346 593 q 246 647 307 647 q 164 620 185 647 q 143 533 143 593 l 143 164 q 164 70 143 97 q 249 43 185 43 q 326 69 307 43 q 346 164 346 96 l 346 257 l 432 257 l 432 186 q 413 64 432 107 q 353 4 393 21 q 250 -12 313 -12 m 233 -203 q 195 -195 213 -203 q 167 -182 178 -187 l 179 -149 q 204 -161 188 -156 q 231 -167 221 -167 q 272 -154 258 -167 q 285 -124 285 -142 q 273 -95 285 -106 q 242 -85 261 -85 q 224 -89 233 -85 q 207 -99 214 -93 l 178 -83 l 222 0 l 261 0 l 224 -71 l 215 -68 q 238 -59 225 -62 q 263 -56 250 -56 q 317 -77 297 -56 q 336 -122 336 -99 q 310 -180 336 -157 q 233 -203 283 -203 z "},"ċ":{"ha":482,"x_min":57,"x_max":432,"o":"m 250 -12 q 139 3 182 -12 q 76 62 96 19 q 57 186 57 104 l 57 525 q 101 663 57 626 q 246 700 144 700 q 388 664 344 700 q 432 531 432 628 l 432 440 l 346 440 l 346 533 q 326 620 346 593 q 246 647 307 647 q 164 620 185 647 q 143 533 143 593 l 143 164 q 164 70 143 97 q 249 43 185 43 q 326 69 307 43 q 346 164 346 96 l 346 257 l 432 257 l 432 186 q 413 64 432 107 q 353 4 393 21 q 250 -12 313 -12 m 242 772 q 204 787 219 772 q 189 824 189 801 q 204 859 189 844 q 242 874 219 874 q 278 859 263 874 q 294 824 294 844 q 278 787 294 801 q 242 772 263 772 z "},"¸":{"ha":211,"x_min":0,"x_max":169,"o":"m 67 -203 q 28 -195 46 -203 q 0 -182 11 -187 l 13 -149 q 38 -161 21 -156 q 64 -167 54 -167 q 105 -154 92 -167 q 118 -124 118 -142 q 106 -95 118 -106 q 75 -85 94 -85 q 57 -89 67 -85 q 40 -99 47 -93 l 11 -83 l 56 0 l 94 0 l 57 -71 l 49 -68 q 71 -59 58 -62 q 96 -56 83 -56 q 150 -77 131 -56 q 169 -122 169 -99 q 143 -180 169 -157 q 67 -203 117 -203 z "},"̧":{"ha":0,"x_min":0,"x_max":169,"o":"m 67 -203 q 28 -195 46 -203 q 0 -182 11 -187 l 13 -149 q 38 -161 21 -156 q 64 -167 54 -167 q 105 -154 92 -167 q 118 -124 118 -142 q 106 -95 118 -106 q 75 -85 94 -85 q 57 -89 67 -85 q 40 -99 47 -93 l 11 -83 l 56 0 l 94 0 l 57 -71 l 49 -68 q 71 -59 58 -62 q 96 -56 83 -56 q 150 -77 131 -56 q 169 -122 169 -99 q 143 -180 169 -157 q 67 -203 117 -203 z "},"¢":{"ha":482,"x_min":61,"x_max":421,"o":"m 214 -87 l 214 69 q 134 85 168 71 q 81 135 100 99 q 61 239 61 171 l 61 629 q 81 721 61 689 q 134 767 100 753 q 214 782 168 781 l 214 897 l 272 897 l 272 781 q 349 763 315 776 q 401 717 382 749 q 421 629 421 686 l 421 508 l 344 508 l 344 631 q 331 699 344 676 q 294 728 317 721 q 242 735 271 735 q 188 728 211 735 q 151 699 164 721 q 138 631 138 676 l 138 222 q 151 153 138 175 q 188 123 164 131 q 242 115 211 115 q 295 123 272 115 q 331 153 318 131 q 344 222 344 175 l 344 325 l 421 325 l 421 240 q 401 138 421 174 q 349 88 382 103 q 272 71 315 74 l 272 -87 l 214 -87 z "},"ч":{"ha":465,"x_min":39,"x_max":407,"o":"m 325 0 l 325 264 q 278 205 314 229 q 192 181 243 181 q 93 204 126 181 q 49 269 60 228 q 39 367 39 311 l 39 688 l 125 688 l 125 364 q 144 273 125 304 q 221 242 163 242 q 289 265 265 242 q 319 313 313 289 l 319 688 l 407 688 l 407 0 l 325 0 z "},"ˆ":{"ha":333,"x_min":14,"x_max":319,"o":"m 14 758 l 138 886 l 196 886 l 319 758 l 263 758 l 167 844 l 72 758 l 14 758 z "},"̂":{"ha":0,"x_min":14,"x_max":319,"o":"m 14 758 l 138 886 l 196 886 l 319 758 l 263 758 l 167 844 l 72 758 l 14 758 z "},":":{"ha":246,"x_min":69,"x_max":176,"o":"m 122 381 q 85 396 100 381 q 69 432 69 411 q 85 468 69 453 q 122 483 100 483 q 160 468 144 483 q 176 432 176 453 q 160 396 176 411 q 122 381 144 381 m 122 -10 q 85 6 100 -10 q 69 42 69 21 q 85 78 69 63 q 122 93 100 93 q 160 78 144 93 q 176 42 176 63 q 160 6 176 21 q 122 -10 144 -10 z "},",":{"ha":257,"x_min":69,"x_max":188,"o":"m 69 -165 q 100 -101 85 -133 q 115 -43 115 -69 q 107 -11 115 -22 q 91 9 99 0 q 83 38 83 18 q 97 72 83 57 q 135 86 111 86 q 174 71 160 86 q 188 29 188 56 q 176 -33 188 1 q 147 -103 164 -68 q 111 -165 129 -137 l 69 -165 z "},"̦":{"ha":0,"x_min":0,"x_max":99,"o":"m 0 -226 q 26 -177 15 -200 q 38 -139 38 -154 q 31 -124 38 -129 q 17 -110 24 -118 q 10 -89 10 -103 q 22 -64 10 -75 q 53 -53 35 -53 q 86 -66 74 -53 q 99 -97 99 -79 q 90 -136 99 -112 q 67 -183 81 -160 q 38 -226 53 -207 l 0 -226 z "},"̒":{"ha":0,"x_min":-6,"x_max":93,"o":"m 93 926 q 67 877 78 900 q 56 839 56 854 q 63 824 56 831 q 76 811 69 818 q 83 789 83 804 q 71 764 83 775 q 40 753 58 753 q 7 766 19 753 q -6 797 -6 779 q 3 837 -6 814 q 27 884 13 860 q 56 926 42 908 l 93 926 z "},"©":{"ha":833,"x_min":58,"x_max":836,"o":"m 447 43 q 296 73 367 43 q 172 157 225 103 q 88 282 118 211 q 58 433 58 353 q 88 584 58 514 q 172 708 118 654 q 296 791 225 761 q 447 821 367 821 q 599 791 528 821 q 723 708 669 761 q 806 584 776 654 q 836 433 836 514 q 806 282 836 353 q 723 157 776 211 q 599 73 669 103 q 447 43 528 43 m 447 81 q 584 108 521 81 q 695 185 647 136 q 769 298 743 235 q 796 433 796 361 q 749 608 796 529 q 624 734 703 688 q 447 781 546 781 q 313 753 376 781 q 202 678 250 726 q 127 567 154 631 q 100 433 100 504 q 127 298 100 361 q 202 185 154 235 q 313 108 250 136 q 447 81 376 81 m 454 215 q 375 225 406 215 q 331 263 344 235 q 317 343 317 290 l 317 558 q 347 647 317 622 q 450 671 378 671 q 551 647 521 671 q 582 561 582 624 l 582 504 l 524 504 l 524 564 q 509 618 524 601 q 450 635 494 635 q 390 618 406 635 q 375 564 375 601 l 375 328 q 390 268 375 285 q 453 251 406 251 q 509 268 494 251 q 524 328 524 285 l 524 388 l 582 388 l 582 343 q 569 264 582 292 q 526 226 556 236 q 454 215 497 215 z "},"¤":{"ha":646,"x_min":61,"x_max":585,"o":"m 114 164 l 68 210 l 171 313 q 143 362 153 336 q 133 415 133 388 q 169 524 133 474 l 61 632 l 106 678 l 218 565 q 318 594 267 594 q 422 563 371 594 l 532 674 l 576 628 l 469 519 q 504 415 504 471 q 471 317 504 363 l 585 201 l 539 157 l 422 274 q 370 250 396 258 q 318 242 344 242 q 218 268 263 242 l 114 164 m 318 307 q 399 339 365 307 q 432 415 432 371 q 399 496 432 463 q 318 529 365 529 q 238 497 269 529 q 206 415 206 465 q 238 339 206 371 q 318 307 269 307 z "},"d":{"ha":507,"x_min":57,"x_max":435,"o":"m 226 -11 q 142 2 175 -11 q 90 40 108 15 q 64 101 71 64 q 57 185 57 138 l 57 528 q 65 597 57 565 q 90 651 72 628 q 139 687 108 674 q 217 700 169 700 q 303 683 272 700 q 349 643 335 667 l 349 875 l 435 875 l 435 0 l 375 0 l 367 65 q 342 30 358 47 q 299 1 326 13 q 226 -11 272 -11 m 242 42 q 304 56 282 42 q 335 94 326 71 q 347 147 344 118 q 349 203 349 175 l 349 579 q 334 607 344 592 q 303 633 324 622 q 246 644 282 644 q 185 633 206 644 q 155 603 164 622 q 144 561 146 585 q 143 513 143 538 l 143 174 q 147 110 143 140 q 172 60 151 79 q 242 42 193 42 z "},"†":{"ha":507,"x_min":61,"x_max":447,"o":"m 213 -171 l 213 463 l 61 463 l 61 517 l 213 517 l 213 813 l 289 813 l 289 517 l 447 517 l 447 463 l 289 463 l 289 -171 l 213 -171 z "},"‡":{"ha":511,"x_min":61,"x_max":450,"o":"m 214 -171 l 214 215 l 61 215 l 61 275 l 214 275 l 214 469 l 61 469 l 61 528 l 214 528 l 214 832 l 292 832 l 292 528 l 450 528 l 450 469 l 292 469 l 292 275 l 450 275 l 450 215 l 292 215 l 292 -171 l 214 -171 z "},"ď":{"ha":550,"x_min":57,"x_max":557,"o":"m 226 -11 q 142 2 175 -11 q 90 40 108 15 q 64 101 71 64 q 57 185 57 138 l 57 528 q 65 597 57 565 q 90 651 72 628 q 139 687 108 674 q 217 700 169 700 q 303 683 272 700 q 349 643 335 667 l 349 875 l 435 875 l 435 0 l 375 0 l 367 65 q 342 30 358 47 q 299 1 326 13 q 226 -11 272 -11 m 242 42 q 304 56 282 42 q 335 94 326 71 q 347 147 344 118 q 349 203 349 175 l 349 579 q 334 607 344 592 q 303 633 324 622 q 246 644 282 644 q 185 633 206 644 q 155 603 164 622 q 144 561 146 585 q 143 513 143 538 l 143 174 q 147 110 143 140 q 172 60 151 79 q 242 42 193 42 m 474 690 l 500 869 l 557 869 l 508 690 l 474 690 z "},"đ":{"ha":497,"x_min":57,"x_max":486,"o":"m 189 747 l 189 789 l 486 789 l 486 747 l 189 747 m 226 -11 q 142 2 175 -11 q 90 40 108 15 q 64 101 71 64 q 57 185 57 138 l 57 528 q 65 597 57 565 q 90 651 72 628 q 139 687 108 674 q 217 700 169 700 q 303 683 272 700 q 349 643 335 667 l 349 875 l 435 875 l 435 0 l 375 0 l 367 65 q 342 30 358 47 q 299 1 326 13 q 226 -11 272 -11 m 242 42 q 304 56 282 42 q 335 94 326 71 q 347 147 344 118 q 349 203 349 175 l 349 579 q 334 607 344 592 q 303 633 324 622 q 246 644 282 644 q 185 633 206 644 q 155 603 164 622 q 144 561 146 585 q 143 513 143 538 l 143 174 q 147 110 143 140 q 172 60 151 79 q 242 42 193 42 z "},"д":{"ha":694,"x_min":31,"x_max":663,"o":"m 31 -149 l 31 54 l 93 54 q 127 68 111 57 q 155 104 143 79 q 171 169 167 129 l 222 686 l 553 686 l 553 54 l 663 54 l 663 -149 l 589 -149 l 589 -14 l 106 -14 l 106 -149 l 31 -149 m 218 54 l 463 54 l 463 622 l 301 622 l 258 192 q 246 115 253 157 q 218 54 239 72 z "},"°":{"ha":450,"x_min":61,"x_max":389,"o":"m 225 501 q 101 548 140 501 q 61 660 61 594 q 99 774 61 726 q 228 821 136 821 q 324 799 289 821 q 374 742 360 778 q 389 663 389 706 q 349 547 389 592 q 225 501 310 501 m 226 544 q 307 576 278 544 q 336 661 336 608 q 308 744 336 708 q 225 779 279 779 q 144 745 174 779 q 114 660 114 711 q 147 576 114 608 q 226 544 179 544 z "},"¨":{"ha":256,"x_min":0,"x_max":225,"o":"m 46 772 q 13 785 26 772 q 0 817 0 799 q 13 847 0 835 q 46 860 26 860 q 78 847 65 860 q 90 817 90 835 q 78 785 90 799 q 46 772 65 772 m 181 772 q 148 785 161 772 q 135 817 135 799 q 148 847 135 835 q 181 860 161 860 q 213 847 200 860 q 225 817 225 835 q 213 785 225 799 q 181 772 200 772 z "},"̈":{"ha":0,"x_min":0,"x_max":225,"o":"m 46 772 q 13 785 26 772 q 0 817 0 799 q 13 847 0 835 q 46 860 26 860 q 78 847 65 860 q 90 817 90 835 q 78 785 90 799 q 46 772 65 772 m 181 772 q 148 785 161 772 q 135 817 135 799 q 148 847 135 835 q 181 860 161 860 q 213 847 200 860 q 225 817 225 835 q 213 785 225 799 q 181 772 200 772 z "},"÷":{"ha":511,"x_min":65,"x_max":446,"o":"m 65 372 l 65 435 l 446 435 l 446 372 l 65 372 m 256 124 q 219 137 233 124 q 204 171 204 150 q 219 206 204 192 q 256 219 233 219 q 292 206 276 219 q 307 171 307 192 q 292 137 307 150 q 256 124 276 124 m 256 569 q 219 583 233 569 q 204 618 204 597 q 219 652 204 638 q 256 667 233 667 q 291 652 276 667 q 306 618 306 638 q 291 583 306 597 q 256 569 276 569 z "},"∕":{"ha":563,"x_min":24,"x_max":549,"o":"m 24 -176 l 481 981 l 549 981 l 92 -176 l 24 -176 z "},"ђ":{"ha":563,"x_min":25,"x_max":501,"o":"m 350 -129 q 299 -124 321 -129 q 261 -111 276 -118 l 271 -67 q 293 -76 281 -72 q 322 -79 306 -79 q 396 -40 378 -79 q 414 72 414 0 l 414 429 q 391 508 413 478 q 308 538 369 538 q 240 521 263 538 q 208 478 217 504 q 199 426 200 453 q 197 381 197 400 l 197 0 l 110 0 l 110 719 l 25 719 l 25 769 l 110 769 l 110 875 l 197 875 l 197 769 l 331 769 l 331 719 l 197 719 l 197 518 q 246 572 211 550 q 335 593 281 593 q 431 574 394 593 q 484 517 467 556 q 501 417 501 478 l 501 89 q 489 -26 501 17 q 456 -92 476 -69 q 407 -122 435 -114 q 350 -129 379 -129 z "},"$":{"ha":479,"x_min":50,"x_max":422,"o":"m 222 -83 l 222 72 q 117 94 154 74 q 65 158 79 115 q 50 267 50 200 l 50 318 l 132 318 l 132 253 q 136 188 132 218 q 162 141 140 158 q 236 124 183 124 q 304 141 283 124 q 330 184 325 158 q 335 233 335 210 l 335 272 q 322 331 335 307 q 283 374 310 356 q 215 410 257 393 q 136 450 171 429 q 82 503 101 471 q 63 586 63 536 l 63 629 q 99 738 63 697 q 222 783 136 779 l 222 929 l 272 929 l 272 783 q 388 735 353 778 q 422 603 422 693 l 422 544 l 342 544 l 342 613 q 318 708 342 682 q 243 733 294 733 q 165 706 185 733 q 146 636 146 678 l 146 597 q 163 533 146 558 q 210 491 179 508 q 288 454 242 474 q 356 419 326 439 q 404 367 386 400 q 422 279 422 335 l 422 247 q 411 167 422 206 q 368 104 400 129 q 272 74 336 79 l 272 -83 l 222 -83 z "},"˙":{"ha":119,"x_min":0,"x_max":106,"o":"m 53 772 q 15 787 31 772 q 0 824 0 801 q 15 859 0 844 q 53 874 31 874 q 90 859 74 874 q 106 824 106 844 q 90 787 106 801 q 53 772 74 772 z "},"̇":{"ha":0,"x_min":0,"x_max":106,"o":"m 53 772 q 15 787 31 772 q 0 824 0 801 q 15 859 0 844 q 53 874 31 874 q 90 859 74 874 q 106 824 106 844 q 90 787 106 801 q 53 772 74 772 z "},"̣":{"ha":0,"x_min":14,"x_max":107,"o":"m 60 -150 q 27 -137 40 -150 q 14 -106 14 -124 q 27 -73 14 -86 q 60 -60 40 -60 q 93 -73 79 -60 q 107 -106 107 -86 q 93 -137 107 -124 q 60 -150 79 -150 z "},"↓":{"ha":715,"x_min":61,"x_max":656,"o":"m 360 0 l 61 326 l 103 368 l 325 144 l 325 992 l 393 992 l 393 146 l 614 368 l 656 325 l 360 0 z "},"ѕ":{"ha":482,"x_min":49,"x_max":431,"o":"m 240 -11 q 135 5 174 -11 q 78 48 96 21 q 54 110 60 75 q 49 183 49 144 l 49 235 l 136 235 l 136 171 q 140 105 136 135 q 165 58 143 75 q 239 40 188 40 q 308 58 286 40 q 334 101 329 75 q 339 150 339 128 l 339 189 q 326 249 339 224 q 287 292 314 274 q 217 328 260 311 q 136 367 171 346 q 81 420 101 388 q 61 504 61 453 l 61 546 q 103 660 61 618 q 247 701 146 701 q 353 683 314 701 q 412 625 393 665 q 431 519 431 585 l 431 461 l 346 461 l 346 529 q 322 624 346 599 q 247 650 299 650 q 169 622 189 650 q 149 553 149 594 l 149 515 q 166 450 149 475 q 215 408 183 425 q 292 372 247 390 q 363 336 332 356 q 413 285 394 317 q 431 196 431 253 l 431 164 q 417 78 431 118 q 363 14 403 39 q 240 -11 322 -11 z "},"џ":{"ha":510,"x_min":58,"x_max":451,"o":"m 221 -151 l 221 0 l 58 0 l 58 688 l 144 688 l 144 63 l 364 63 l 364 688 l 451 688 l 451 0 l 288 0 l 288 -151 l 221 -151 z "},"e":{"ha":482,"x_min":57,"x_max":432,"o":"m 251 -12 q 139 3 182 -12 q 76 63 96 19 q 57 188 57 106 l 57 531 q 101 663 57 626 q 246 699 144 699 q 388 663 344 699 q 432 531 432 626 l 432 353 l 143 353 l 143 158 q 164 66 143 92 q 249 40 185 40 q 326 65 307 40 q 346 158 346 90 l 346 247 l 432 247 l 432 189 q 413 65 432 108 q 353 4 393 21 q 251 -12 314 -12 m 143 397 l 346 397 l 346 538 q 326 622 346 596 q 246 649 307 649 q 164 622 185 649 q 143 538 143 596 l 143 397 z "},"é":{"ha":482,"x_min":57,"x_max":432,"o":"m 251 -12 q 139 3 182 -12 q 76 63 96 19 q 57 188 57 106 l 57 531 q 101 663 57 626 q 246 699 144 699 q 388 663 344 699 q 432 531 432 626 l 432 353 l 143 353 l 143 158 q 164 66 143 92 q 249 40 185 40 q 326 65 307 40 q 346 158 346 90 l 346 247 l 432 247 l 432 189 q 413 65 432 108 q 353 4 393 21 q 251 -12 314 -12 m 143 397 l 346 397 l 346 538 q 326 622 346 596 q 246 649 307 649 q 164 622 185 649 q 143 538 143 596 l 143 397 m 189 758 l 268 886 l 357 886 l 243 758 l 189 758 z "},"ě":{"ha":482,"x_min":57,"x_max":432,"o":"m 251 -12 q 139 3 182 -12 q 76 63 96 19 q 57 188 57 106 l 57 531 q 101 663 57 626 q 246 699 144 699 q 388 663 344 699 q 432 531 432 626 l 432 353 l 143 353 l 143 158 q 164 66 143 92 q 249 40 185 40 q 326 65 307 40 q 346 158 346 90 l 346 247 l 432 247 l 432 189 q 413 65 432 108 q 353 4 393 21 q 251 -12 314 -12 m 143 397 l 346 397 l 346 538 q 326 622 346 596 q 246 649 307 649 q 164 622 185 649 q 143 538 143 596 l 143 397 m 211 758 l 88 886 l 147 886 l 240 801 l 338 886 l 393 886 l 269 758 l 211 758 z "},"ê":{"ha":482,"x_min":57,"x_max":432,"o":"m 251 -12 q 139 3 182 -12 q 76 63 96 19 q 57 188 57 106 l 57 531 q 101 663 57 626 q 246 699 144 699 q 388 663 344 699 q 432 531 432 626 l 432 353 l 143 353 l 143 158 q 164 66 143 92 q 249 40 185 40 q 326 65 307 40 q 346 158 346 90 l 346 247 l 432 247 l 432 189 q 413 65 432 108 q 353 4 393 21 q 251 -12 314 -12 m 143 397 l 346 397 l 346 538 q 326 622 346 596 q 246 649 307 649 q 164 622 185 649 q 143 538 143 596 l 143 397 m 89 758 l 213 886 l 271 886 l 394 758 l 338 758 l 242 844 l 147 758 l 89 758 z "},"ế":{"ha":482,"x_min":57,"x_max":558,"o":"m 251 -12 q 139 3 182 -12 q 76 63 96 19 q 57 188 57 106 l 57 531 q 101 663 57 626 q 246 699 144 699 q 388 663 344 699 q 432 531 432 626 l 432 353 l 143 353 l 143 158 q 164 66 143 92 q 249 40 185 40 q 326 65 307 40 q 346 158 346 90 l 346 247 l 432 247 l 432 189 q 413 65 432 108 q 353 4 393 21 q 251 -12 314 -12 m 143 397 l 346 397 l 346 538 q 326 622 346 596 q 246 649 307 649 q 164 622 185 649 q 143 538 143 596 l 143 397 m 89 758 l 213 886 l 271 886 l 394 758 l 338 758 l 242 844 l 147 758 l 89 758 m 390 832 l 469 960 l 558 960 l 444 832 l 390 832 z "},"ệ":{"ha":482,"x_min":57,"x_max":432,"o":"m 251 -12 q 139 3 182 -12 q 76 63 96 19 q 57 188 57 106 l 57 531 q 101 663 57 626 q 246 699 144 699 q 388 663 344 699 q 432 531 432 626 l 432 353 l 143 353 l 143 158 q 164 66 143 92 q 249 40 185 40 q 326 65 307 40 q 346 158 346 90 l 346 247 l 432 247 l 432 189 q 413 65 432 108 q 353 4 393 21 q 251 -12 314 -12 m 143 397 l 346 397 l 346 538 q 326 622 346 596 q 246 649 307 649 q 164 622 185 649 q 143 538 143 596 l 143 397 m 240 -150 q 208 -137 221 -150 q 194 -106 194 -124 q 208 -73 194 -86 q 240 -60 221 -60 q 274 -73 260 -60 q 288 -106 288 -86 q 274 -137 288 -124 q 240 -150 260 -150 m 89 758 l 213 886 l 271 886 l 394 758 l 338 758 l 242 844 l 147 758 l 89 758 z "},"ề":{"ha":482,"x_min":57,"x_max":497,"o":"m 251 -12 q 139 3 182 -12 q 76 63 96 19 q 57 188 57 106 l 57 531 q 101 663 57 626 q 246 699 144 699 q 388 663 344 699 q 432 531 432 626 l 432 353 l 143 353 l 143 158 q 164 66 143 92 q 249 40 185 40 q 326 65 307 40 q 346 158 346 90 l 346 247 l 432 247 l 432 189 q 413 65 432 108 q 353 4 393 21 q 251 -12 314 -12 m 143 397 l 346 397 l 346 538 q 326 622 346 596 q 246 649 307 649 q 164 622 185 649 q 143 538 143 596 l 143 397 m 89 758 l 213 886 l 271 886 l 394 758 l 338 758 l 242 844 l 147 758 l 89 758 m 444 832 l 329 960 l 419 960 l 497 832 l 444 832 z "},"ể":{"ha":482,"x_min":57,"x_max":533,"o":"m 251 -12 q 139 3 182 -12 q 76 63 96 19 q 57 188 57 106 l 57 531 q 101 663 57 626 q 246 699 144 699 q 388 663 344 699 q 432 531 432 626 l 432 353 l 143 353 l 143 158 q 164 66 143 92 q 249 40 185 40 q 326 65 307 40 q 346 158 346 90 l 346 247 l 432 247 l 432 189 q 413 65 432 108 q 353 4 393 21 q 251 -12 314 -12 m 143 397 l 346 397 l 346 538 q 326 622 346 596 q 246 649 307 649 q 164 622 185 649 q 143 538 143 596 l 143 397 m 89 758 l 213 886 l 271 886 l 394 758 l 338 758 l 242 844 l 147 758 l 89 758 m 418 833 l 418 856 q 434 886 418 876 q 465 906 450 896 q 481 933 481 915 l 481 939 q 472 965 481 953 q 442 976 463 976 q 406 943 413 976 l 363 951 q 388 997 367 981 q 446 1013 408 1013 q 512 997 490 1013 q 533 939 533 981 l 533 936 q 517 893 533 906 q 483 874 500 881 q 467 850 467 867 l 467 833 l 418 833 z "},"ễ":{"ha":482,"x_min":57,"x_max":432,"o":"m 251 -12 q 139 3 182 -12 q 76 63 96 19 q 57 188 57 106 l 57 531 q 101 663 57 626 q 246 699 144 699 q 388 663 344 699 q 432 531 432 626 l 432 353 l 143 353 l 143 158 q 164 66 143 92 q 249 40 185 40 q 326 65 307 40 q 346 158 346 90 l 346 247 l 432 247 l 432 189 q 413 65 432 108 q 353 4 393 21 q 251 -12 314 -12 m 143 397 l 346 397 l 346 538 q 326 622 346 596 q 246 649 307 649 q 164 622 185 649 q 143 538 143 596 l 143 397 m 89 758 l 213 886 l 271 886 l 394 758 l 338 758 l 242 844 l 147 758 l 89 758 m 300 918 q 267 924 281 918 q 235 943 254 931 q 208 959 222 950 q 176 968 193 968 q 149 956 160 968 q 135 919 138 944 l 100 919 q 122 987 101 961 q 178 1013 143 1013 q 213 1005 197 1013 q 246 986 229 997 q 274 971 261 978 q 300 964 286 964 q 329 975 318 964 q 344 1010 340 986 l 381 1010 q 367 961 379 982 q 338 929 356 940 q 300 918 321 918 z "},"ë":{"ha":482,"x_min":57,"x_max":432,"o":"m 251 -12 q 139 3 182 -12 q 76 63 96 19 q 57 188 57 106 l 57 531 q 101 663 57 626 q 246 699 144 699 q 388 663 344 699 q 432 531 432 626 l 432 353 l 143 353 l 143 158 q 164 66 143 92 q 249 40 185 40 q 326 65 307 40 q 346 158 346 90 l 346 247 l 432 247 l 432 189 q 413 65 432 108 q 353 4 393 21 q 251 -12 314 -12 m 143 397 l 346 397 l 346 538 q 326 622 346 596 q 246 649 307 649 q 164 622 185 649 q 143 538 143 596 l 143 397 m 175 772 q 142 785 156 772 q 129 817 129 799 q 142 847 129 835 q 175 860 156 860 q 207 847 194 860 q 219 817 219 835 q 207 785 219 799 q 175 772 194 772 m 310 772 q 277 785 290 772 q 264 817 264 799 q 277 847 264 835 q 310 860 290 860 q 342 847 329 860 q 354 817 354 835 q 342 785 354 799 q 310 772 329 772 z "},"ė":{"ha":482,"x_min":57,"x_max":432,"o":"m 251 -12 q 139 3 182 -12 q 76 63 96 19 q 57 188 57 106 l 57 531 q 101 663 57 626 q 246 699 144 699 q 388 663 344 699 q 432 531 432 626 l 432 353 l 143 353 l 143 158 q 164 66 143 92 q 249 40 185 40 q 326 65 307 40 q 346 158 346 90 l 346 247 l 432 247 l 432 189 q 413 65 432 108 q 353 4 393 21 q 251 -12 314 -12 m 143 397 l 346 397 l 346 538 q 326 622 346 596 q 246 649 307 649 q 164 622 185 649 q 143 538 143 596 l 143 397 m 242 772 q 204 787 219 772 q 189 824 189 801 q 204 859 189 844 q 242 874 219 874 q 278 859 263 874 q 294 824 294 844 q 278 787 294 801 q 242 772 263 772 z "},"ẹ":{"ha":482,"x_min":57,"x_max":432,"o":"m 251 -12 q 139 3 182 -12 q 76 63 96 19 q 57 188 57 106 l 57 531 q 101 663 57 626 q 246 699 144 699 q 388 663 344 699 q 432 531 432 626 l 432 353 l 143 353 l 143 158 q 164 66 143 92 q 249 40 185 40 q 326 65 307 40 q 346 158 346 90 l 346 247 l 432 247 l 432 189 q 413 65 432 108 q 353 4 393 21 q 251 -12 314 -12 m 143 397 l 346 397 l 346 538 q 326 622 346 596 q 246 649 307 649 q 164 622 185 649 q 143 538 143 596 l 143 397 m 240 -150 q 208 -137 221 -150 q 194 -106 194 -124 q 208 -73 194 -86 q 240 -60 221 -60 q 274 -73 260 -60 q 288 -106 288 -86 q 274 -137 288 -124 q 240 -150 260 -150 z "},"ф":{"ha":814,"x_min":57,"x_max":757,"o":"m 364 -161 l 364 44 q 315 5 347 19 q 229 -10 282 -10 q 92 42 128 -10 q 57 189 57 94 l 57 461 q 71 561 57 519 q 123 625 85 603 q 232 647 161 647 q 317 632 283 647 q 364 589 350 617 l 364 821 l 450 821 l 450 590 q 497 632 463 617 q 579 647 531 647 q 690 625 651 647 q 742 561 728 603 q 757 461 757 519 l 757 189 q 722 42 757 94 q 583 -10 686 -10 q 499 5 532 -10 q 450 46 467 19 l 450 -161 l 364 -161 m 249 40 q 322 60 297 40 q 355 110 346 79 q 364 169 364 140 l 364 456 q 357 523 364 490 q 326 576 350 556 q 250 597 301 597 q 177 578 200 597 q 149 528 154 560 q 143 457 143 497 l 143 176 q 151 108 143 139 q 181 58 158 76 q 249 40 204 40 m 568 40 q 635 58 613 40 q 665 108 657 76 q 672 176 672 139 l 672 457 q 666 528 672 497 q 638 578 660 560 q 565 597 615 597 q 493 578 518 597 q 459 530 468 560 q 450 467 450 500 l 450 175 q 459 113 450 143 q 494 61 468 82 q 568 40 519 40 z "},"è":{"ha":482,"x_min":57,"x_max":432,"o":"m 251 -12 q 139 3 182 -12 q 76 63 96 19 q 57 188 57 106 l 57 531 q 101 663 57 626 q 246 699 144 699 q 388 663 344 699 q 432 531 432 626 l 432 353 l 143 353 l 143 158 q 164 66 143 92 q 249 40 185 40 q 326 65 307 40 q 346 158 346 90 l 346 247 l 432 247 l 432 189 q 413 65 432 108 q 353 4 393 21 q 251 -12 314 -12 m 143 397 l 346 397 l 346 538 q 326 622 346 596 q 246 649 307 649 q 164 622 185 649 q 143 538 143 596 l 143 397 m 243 758 l 128 886 l 218 886 l 296 758 l 243 758 z "},"ẻ":{"ha":482,"x_min":57,"x_max":432,"o":"m 251 -12 q 139 3 182 -12 q 76 63 96 19 q 57 188 57 106 l 57 531 q 101 663 57 626 q 246 699 144 699 q 388 663 344 699 q 432 531 432 626 l 432 353 l 143 353 l 143 158 q 164 66 143 92 q 249 40 185 40 q 326 65 307 40 q 346 158 346 90 l 346 247 l 432 247 l 432 189 q 413 65 432 108 q 353 4 393 21 q 251 -12 314 -12 m 143 397 l 346 397 l 346 538 q 326 622 346 596 q 246 649 307 649 q 164 622 185 649 q 143 538 143 596 l 143 397 m 217 760 l 217 782 q 233 813 217 803 q 264 832 249 822 q 279 860 279 842 l 279 865 q 270 891 279 879 q 240 903 261 903 q 204 869 211 903 l 161 878 q 186 923 165 907 q 244 939 207 939 q 310 923 289 939 q 332 865 332 907 l 332 863 q 315 819 332 832 q 282 800 299 807 q 265 776 265 793 l 265 760 l 217 760 z "},"л":{"ha":543,"x_min":24,"x_max":485,"o":"m 24 0 l 24 50 q 70 76 51 50 q 93 153 89 101 l 138 686 l 485 686 l 485 0 l 397 0 l 397 624 l 224 624 l 179 129 q 174 89 178 111 q 159 47 169 67 q 128 13 149 26 q 72 0 107 0 l 24 0 z "},"…":{"ha":669,"x_min":69,"x_max":600,"o":"m 122 -10 q 85 6 100 -10 q 69 42 69 21 q 85 78 69 63 q 122 93 100 93 q 160 78 144 93 q 176 42 176 63 q 160 6 176 21 q 122 -10 144 -10 m 342 -8 q 304 7 319 -8 q 289 43 289 22 q 304 79 289 64 q 342 94 319 94 q 380 79 364 94 q 396 43 396 64 q 380 7 396 22 q 342 -8 364 -8 m 546 -8 q 508 7 524 -8 q 493 43 493 22 q 508 79 493 64 q 546 94 524 94 q 584 79 568 94 q 600 43 600 64 q 584 7 600 22 q 546 -8 568 -8 z "},"м":{"ha":657,"x_min":58,"x_max":599,"o":"m 58 0 l 58 688 l 160 688 l 329 114 l 501 688 l 599 688 l 599 0 l 526 0 l 526 536 l 361 0 l 297 0 l 132 536 l 132 0 l 58 0 z "},"ē":{"ha":482,"x_min":57,"x_max":432,"o":"m 251 -12 q 139 3 182 -12 q 76 63 96 19 q 57 188 57 106 l 57 531 q 101 663 57 626 q 246 699 144 699 q 388 663 344 699 q 432 531 432 626 l 432 353 l 143 353 l 143 158 q 164 66 143 92 q 249 40 185 40 q 326 65 307 40 q 346 158 346 90 l 346 247 l 432 247 l 432 189 q 413 65 432 108 q 353 4 393 21 q 251 -12 314 -12 m 143 397 l 346 397 l 346 538 q 326 622 346 596 q 246 649 307 649 q 164 622 185 649 q 143 538 143 596 l 143 397 m 113 786 l 113 833 l 371 833 l 371 786 l 113 786 z "},"—":{"ha":832,"x_min":32,"x_max":800,"o":"m 32 336 l 32 397 l 800 397 l 800 336 l 32 336 z "},"∅":{"ha":568,"x_min":44,"x_max":535,"o":"m 44 85 l 492 782 l 524 782 l 75 85 l 44 85 m 321 -17 q 213 10 261 -17 q 137 92 165 36 q 108 238 108 149 l 108 592 q 170 774 108 715 q 324 832 232 832 q 474 773 414 832 q 535 592 535 714 l 535 238 q 507 91 535 147 q 431 9 479 35 q 321 -17 382 -17 m 321 38 q 412 81 376 38 q 447 203 447 124 l 447 611 q 410 733 447 690 q 321 776 374 776 q 232 733 268 776 q 196 611 196 690 l 196 203 q 232 81 196 124 q 321 38 268 38 z "},"н":{"ha":507,"x_min":58,"x_max":449,"o":"m 58 0 l 58 688 l 144 688 l 144 394 l 363 394 l 363 688 l 449 688 l 449 0 l 363 0 l 363 328 l 144 328 l 144 0 l 58 0 z "},"–":{"ha":507,"x_min":32,"x_max":475,"o":"m 32 336 l 32 397 l 475 397 l 475 336 l 32 336 z "},"ŋ":{"ha":497,"x_min":58,"x_max":438,"o":"m 254 -156 q 231 -154 243 -156 q 210 -150 219 -153 l 210 -104 q 218 -104 211 -104 q 234 -105 225 -104 q 246 -106 243 -106 q 324 -88 296 -106 q 351 -19 351 -71 l 351 506 q 347 567 351 538 q 322 617 343 597 q 249 636 301 636 q 192 623 213 636 q 160 592 171 610 q 144 560 150 575 l 144 0 l 58 0 l 58 688 l 131 688 l 140 613 q 194 678 156 658 q 276 699 233 699 q 384 673 350 699 q 428 606 418 647 q 438 517 438 564 l 438 4 q 413 -97 438 -62 q 347 -144 388 -132 q 254 -156 306 -156 z "},"ę":{"ha":482,"x_min":57,"x_max":432,"o":"m 251 -12 q 139 3 182 -12 q 76 63 96 19 q 57 188 57 106 l 57 531 q 101 663 57 626 q 246 699 144 699 q 388 663 344 699 q 432 531 432 626 l 432 353 l 143 353 l 143 158 q 164 66 143 92 q 249 40 185 40 q 326 65 307 40 q 346 158 346 90 l 346 247 l 432 247 l 432 189 q 413 65 432 108 q 353 4 393 21 q 251 -12 314 -12 m 143 397 l 346 397 l 346 538 q 326 622 346 596 q 246 649 307 649 q 164 622 185 649 q 143 538 143 596 l 143 397 m 267 -187 q 199 -165 226 -187 q 171 -107 171 -142 q 199 -39 171 -68 q 261 1 226 -10 l 306 0 q 250 -43 269 -17 q 231 -96 231 -69 q 249 -136 231 -122 q 285 -150 267 -150 q 306 -147 297 -150 q 319 -142 315 -144 l 333 -171 q 309 -182 325 -176 q 267 -187 293 -187 z "},"=":{"ha":579,"x_min":69,"x_max":510,"o":"m 69 513 l 69 576 l 510 576 l 510 513 l 69 513 m 69 218 l 69 282 l 510 282 l 510 218 l 69 218 z "},"р":{"ha":507,"x_min":74,"x_max":451,"o":"m 74 -161 l 74 688 l 154 688 l 157 626 q 197 676 169 656 q 289 697 225 697 q 389 675 354 697 q 438 614 424 653 q 451 524 451 575 l 451 185 q 439 83 451 128 q 392 15 426 39 q 289 -10 357 -10 q 205 7 236 -10 q 158 49 174 24 l 158 -161 l 74 -161 m 263 43 q 322 54 301 43 q 353 84 343 65 q 364 126 363 103 q 365 175 365 149 l 365 510 q 364 559 365 536 q 353 601 363 582 q 322 632 343 621 q 263 643 301 643 q 203 629 224 643 q 172 592 182 615 q 161 543 163 569 q 160 493 160 517 l 160 165 q 166 103 160 132 q 194 59 172 75 q 263 43 215 43 z "},"э":{"ha":507,"x_min":58,"x_max":449,"o":"m 256 -11 q 133 12 175 -11 q 74 81 90 35 q 58 194 58 126 l 58 240 l 144 240 l 144 172 q 151 104 144 135 q 181 56 157 74 q 256 38 204 38 q 331 56 310 38 q 358 106 353 75 q 363 169 363 136 l 363 324 l 151 324 l 151 382 l 363 382 l 363 517 q 358 580 363 550 q 331 629 353 610 q 256 649 310 649 q 181 631 204 649 q 151 583 157 613 q 144 514 144 553 l 144 460 l 58 460 l 58 513 q 74 610 58 568 q 131 675 89 651 q 256 699 174 699 q 356 684 318 699 q 413 644 393 669 q 441 586 433 619 q 449 514 449 553 l 449 192 q 441 106 449 144 q 413 42 433 68 q 354 2 392 15 q 256 -11 317 -11 z "},"с":{"ha":482,"x_min":57,"x_max":432,"o":"m 250 -12 q 139 3 182 -12 q 76 62 96 19 q 57 186 57 104 l 57 525 q 101 663 57 626 q 246 700 144 700 q 388 664 344 700 q 432 531 432 628 l 432 440 l 346 440 l 346 533 q 326 620 346 593 q 246 647 307 647 q 164 620 185 647 q 143 533 143 593 l 143 164 q 164 70 143 97 q 249 43 185 43 q 326 69 307 43 q 346 164 346 96 l 346 257 l 432 257 l 432 186 q 413 64 432 107 q 353 4 393 21 q 250 -12 313 -12 z "},"ð":{"ha":496,"x_min":57,"x_max":432,"o":"m 239 -11 q 174 -6 207 -11 q 115 16 142 -1 q 73 72 89 33 q 57 176 57 110 l 57 508 q 80 622 57 585 q 142 669 103 658 q 231 681 182 681 q 297 672 264 681 q 344 638 329 664 q 333 758 342 708 q 298 834 325 807 q 211 861 271 861 q 142 855 174 861 q 86 843 111 849 l 86 900 q 142 913 108 906 q 224 921 176 921 q 338 899 296 921 q 399 831 379 876 q 426 716 419 786 q 432 549 432 646 l 432 221 q 424 128 432 171 q 394 56 415 86 q 335 7 372 25 q 239 -11 297 -11 m 239 39 q 308 62 285 39 q 338 120 331 85 q 346 192 346 156 l 346 556 q 337 583 346 565 q 305 617 328 601 q 239 632 282 632 q 175 617 196 632 q 149 575 154 601 q 143 511 143 549 l 143 144 q 153 85 143 107 q 178 54 163 64 q 211 42 194 44 q 239 39 228 39 m 196 735 l 169 765 l 401 961 l 428 929 l 196 735 z "},"ẽ":{"ha":482,"x_min":57,"x_max":432,"o":"m 251 -12 q 139 3 182 -12 q 76 63 96 19 q 57 188 57 106 l 57 531 q 101 663 57 626 q 246 699 144 699 q 388 663 344 699 q 432 531 432 626 l 432 353 l 143 353 l 143 158 q 164 66 143 92 q 249 40 185 40 q 326 65 307 40 q 346 158 346 90 l 346 247 l 432 247 l 432 189 q 413 65 432 108 q 353 4 393 21 q 251 -12 314 -12 m 143 397 l 346 397 l 346 538 q 326 622 346 596 q 246 649 307 649 q 164 622 185 649 q 143 538 143 596 l 143 397 m 301 769 q 269 776 282 769 q 236 794 256 782 q 209 810 224 801 q 178 819 194 819 q 150 808 161 819 q 136 771 139 796 l 101 771 q 124 838 103 813 q 179 864 144 864 q 215 856 199 864 q 247 838 231 849 q 275 822 263 829 q 301 815 288 815 q 331 826 319 815 q 346 861 342 838 l 382 861 q 369 813 381 833 q 340 781 357 792 q 301 769 322 769 z "},"€":{"ha":633,"x_min":57,"x_max":572,"o":"m 365 -17 q 258 -3 306 -17 q 185 55 211 11 q 158 188 158 99 l 158 326 l 57 326 l 74 365 l 158 365 l 158 450 l 57 450 l 74 488 l 158 488 l 158 649 q 185 765 158 726 q 260 818 213 804 q 365 832 307 832 q 473 817 426 832 q 546 764 519 803 q 572 649 572 725 l 572 607 l 485 607 l 485 651 q 469 733 485 706 q 428 768 454 760 q 365 776 401 776 q 303 768 331 776 q 260 733 275 760 q 246 651 246 706 l 246 488 l 457 488 l 438 450 l 246 450 l 246 365 l 403 365 l 385 326 l 246 326 l 246 164 q 260 81 246 108 q 303 46 275 54 q 365 38 331 38 q 428 46 401 38 q 470 81 456 54 q 485 164 485 108 l 485 242 l 572 242 l 572 189 q 546 55 572 99 q 473 -3 519 11 q 365 -17 426 -17 z "},"!":{"ha":246,"x_min":68,"x_max":181,"o":"m 94 268 l 79 504 l 75 875 l 167 875 l 164 507 l 147 268 l 94 268 m 124 -8 q 84 7 100 -8 q 68 44 68 22 q 84 81 68 65 q 124 96 100 96 q 164 81 147 96 q 181 44 181 65 q 164 7 181 22 q 124 -8 147 -8 z "},"¡":{"ha":246,"x_min":68,"x_max":181,"o":"m 94 414 l 147 414 l 164 175 l 167 -193 l 75 -193 l 79 178 l 94 414 m 124 690 q 164 675 147 690 q 181 638 181 660 q 164 601 181 617 q 124 586 147 586 q 84 601 100 586 q 68 638 68 617 q 84 675 68 660 q 124 690 100 690 z "},"f":{"ha":331,"x_min":43,"x_max":326,"o":"m 86 0 l 86 607 l 43 607 l 43 661 l 86 661 l 86 744 q 95 808 86 782 q 121 851 104 835 q 160 874 138 867 q 211 881 183 881 q 256 880 233 881 q 299 877 279 879 q 326 875 318 875 l 326 826 q 297 830 326 826 q 235 833 268 833 q 185 803 199 833 q 171 742 171 774 l 171 661 l 326 661 l 326 607 l 171 607 l 171 0 l 86 0 z "},"ﬁ":{"ha":563,"x_min":43,"x_max":500,"o":"m 86 0 l 86 607 l 43 607 l 43 661 l 86 661 l 86 744 q 95 808 86 782 q 121 851 104 835 q 160 874 138 867 q 211 881 183 881 q 256 880 233 881 q 299 877 279 879 q 326 875 318 875 l 326 826 q 297 830 326 826 q 235 833 268 833 q 185 803 199 833 q 171 742 171 774 l 171 661 l 326 661 l 326 607 l 171 607 l 171 0 l 86 0 m 404 0 l 404 688 l 489 688 l 489 0 l 404 0 m 447 772 q 410 787 425 772 q 394 824 394 801 q 410 859 394 844 q 447 874 425 874 q 484 859 468 874 q 500 824 500 844 q 484 787 500 801 q 447 772 468 772 z "},"ﬂ":{"ha":563,"x_min":43,"x_max":489,"o":"m 86 0 l 86 607 l 43 607 l 43 661 l 86 661 l 86 744 q 95 808 86 782 q 121 851 104 835 q 160 874 138 867 q 211 881 183 881 q 256 880 233 881 q 299 877 279 879 q 326 875 318 875 l 326 826 q 297 830 326 826 q 235 833 268 833 q 185 803 199 833 q 171 742 171 774 l 171 661 l 326 661 l 326 607 l 171 607 l 171 0 l 86 0 m 404 0 l 404 881 l 489 881 l 489 0 l 404 0 z "},"ƒ":{"ha":438,"x_min":-132,"x_max":419,"o":"m -26 -203 q -67 -201 -44 -203 q -108 -199 -90 -200 q -132 -197 -125 -197 l -125 -143 l -43 -149 q 13 -136 -7 -150 q 44 -96 33 -122 q 60 -32 56 -69 l 132 556 l 61 556 l 65 606 l 136 606 l 154 735 q 198 840 165 806 q 288 874 231 874 q 321 874 301 874 q 359 873 340 874 q 394 871 378 872 q 419 868 410 869 l 413 815 q 376 820 403 818 q 317 822 349 822 q 258 791 275 822 q 236 724 242 760 l 219 606 l 369 606 l 365 556 l 215 556 l 142 -53 q 92 -165 133 -126 q -26 -203 51 -203 z "},"⁴":{"ha":335,"x_min":8,"x_max":307,"o":"m 194 328 l 194 428 l 8 428 l 8 476 l 197 821 l 254 821 l 254 469 l 307 469 l 307 428 l 254 428 l 254 328 l 194 328 m 60 469 l 194 469 l 194 707 l 60 469 z "},"⁄":{"ha":521,"x_min":-124,"x_max":499,"o":"m -124 0 l 436 815 l 499 815 l -62 0 l -124 0 z "},"₣":{"ha":522,"x_min":53,"x_max":472,"o":"m 119 0 l 119 199 l 53 199 l 53 243 l 119 243 l 119 821 l 472 821 l 472 758 l 210 758 l 210 464 l 419 464 l 419 394 l 210 394 l 210 243 l 336 243 l 336 199 l 210 199 l 210 0 l 119 0 z "},"g":{"ha":496,"x_min":57,"x_max":432,"o":"m 232 -162 q 196 -161 217 -162 q 155 -158 175 -160 q 120 -155 135 -157 q 101 -151 106 -153 l 101 -101 q 149 -107 118 -103 q 206 -111 181 -111 q 246 -109 222 -111 q 292 -94 269 -107 q 331 -52 315 -81 q 347 29 347 -24 l 347 124 q 322 76 339 97 q 276 44 304 56 q 208 32 249 32 q 158 37 185 32 q 108 58 131 42 q 71 112 85 75 q 57 214 57 149 l 57 533 q 69 619 57 586 q 103 668 82 651 q 151 690 124 685 q 210 696 178 696 q 293 683 253 696 q 347 631 333 671 l 357 685 l 432 685 l 432 58 q 419 -37 432 4 q 381 -106 406 -78 q 318 -149 356 -135 q 232 -162 281 -162 m 239 88 q 308 110 285 88 q 338 169 331 133 q 346 240 346 204 l 346 578 q 330 606 342 590 q 297 632 318 621 q 239 643 275 643 q 165 618 188 643 q 143 526 143 593 l 143 193 q 153 135 143 157 q 178 103 163 113 q 211 90 194 93 q 239 88 228 88 z "},"ğ":{"ha":496,"x_min":57,"x_max":432,"o":"m 232 -162 q 196 -161 217 -162 q 155 -158 175 -160 q 120 -155 135 -157 q 101 -151 106 -153 l 101 -101 q 149 -107 118 -103 q 206 -111 181 -111 q 246 -109 222 -111 q 292 -94 269 -107 q 331 -52 315 -81 q 347 29 347 -24 l 347 124 q 322 76 339 97 q 276 44 304 56 q 208 32 249 32 q 158 37 185 32 q 108 58 131 42 q 71 112 85 75 q 57 214 57 149 l 57 533 q 69 619 57 586 q 103 668 82 651 q 151 690 124 685 q 210 696 178 696 q 293 683 253 696 q 347 631 333 671 l 357 685 l 432 685 l 432 58 q 419 -37 432 4 q 381 -106 406 -78 q 318 -149 356 -135 q 232 -162 281 -162 m 239 88 q 308 110 285 88 q 338 169 331 133 q 346 240 346 204 l 346 578 q 330 606 342 590 q 297 632 318 621 q 239 643 275 643 q 165 618 188 643 q 143 526 143 593 l 143 193 q 153 135 143 157 q 178 103 163 113 q 211 90 194 93 q 239 88 228 88 m 250 757 q 168 778 197 757 q 127 828 139 799 q 114 881 115 857 l 165 881 q 194 822 171 842 q 251 803 218 803 q 310 822 286 803 q 338 881 333 840 l 389 881 q 374 824 388 853 q 330 776 360 796 q 250 757 300 757 z "},"ģ":{"ha":496,"x_min":57,"x_max":432,"o":"m 300 926 q 274 877 285 900 q 263 839 263 854 q 269 824 263 831 q 283 811 276 818 q 290 789 290 804 q 278 764 290 775 q 247 753 265 753 q 214 766 226 753 q 201 797 201 779 q 210 837 201 814 q 234 884 219 860 q 263 926 249 908 l 300 926 m 232 -162 q 196 -161 217 -162 q 155 -158 175 -160 q 120 -155 135 -157 q 101 -151 106 -153 l 101 -101 q 149 -107 118 -103 q 206 -111 181 -111 q 246 -109 222 -111 q 292 -94 269 -107 q 331 -52 315 -81 q 347 29 347 -24 l 347 124 q 322 76 339 97 q 276 44 304 56 q 208 32 249 32 q 158 37 185 32 q 108 58 131 42 q 71 112 85 75 q 57 214 57 149 l 57 533 q 69 619 57 586 q 103 668 82 651 q 151 690 124 685 q 210 696 178 696 q 293 683 253 696 q 347 631 333 671 l 357 685 l 432 685 l 432 58 q 419 -37 432 4 q 381 -106 406 -78 q 318 -149 356 -135 q 232 -162 281 -162 m 239 88 q 308 110 285 88 q 338 169 331 133 q 346 240 346 204 l 346 578 q 330 606 342 590 q 297 632 318 621 q 239 643 275 643 q 165 618 188 643 q 143 526 143 593 l 143 193 q 153 135 143 157 q 178 103 163 113 q 211 90 194 93 q 239 88 228 88 z "},"ġ":{"ha":496,"x_min":57,"x_max":432,"o":"m 232 -162 q 196 -161 217 -162 q 155 -158 175 -160 q 120 -155 135 -157 q 101 -151 106 -153 l 101 -101 q 149 -107 118 -103 q 206 -111 181 -111 q 246 -109 222 -111 q 292 -94 269 -107 q 331 -52 315 -81 q 347 29 347 -24 l 347 124 q 322 76 339 97 q 276 44 304 56 q 208 32 249 32 q 158 37 185 32 q 108 58 131 42 q 71 112 85 75 q 57 214 57 149 l 57 533 q 69 619 57 586 q 103 668 82 651 q 151 690 124 685 q 210 696 178 696 q 293 683 253 696 q 347 631 333 671 l 357 685 l 432 685 l 432 58 q 419 -37 432 4 q 381 -106 406 -78 q 318 -149 356 -135 q 232 -162 281 -162 m 239 88 q 308 110 285 88 q 338 169 331 133 q 346 240 346 204 l 346 578 q 330 606 342 590 q 297 632 318 621 q 239 643 275 643 q 165 618 188 643 q 143 526 143 593 l 143 193 q 153 135 143 157 q 178 103 163 113 q 211 90 194 93 q 239 88 228 88 m 253 772 q 215 787 231 772 q 200 824 200 801 q 215 859 200 844 q 253 874 231 874 q 290 859 274 874 q 306 824 306 844 q 290 787 306 801 q 253 772 274 772 z "},"г":{"ha":401,"x_min":58,"x_max":378,"o":"m 58 0 l 58 688 l 378 688 l 378 624 l 150 624 l 150 0 l 58 0 z "},"ß":{"ha":543,"x_min":-53,"x_max":508,"o":"m 21 -204 q -18 -202 6 -204 q -53 -199 -42 -200 l -53 -147 q -43 -149 -47 -149 q -33 -150 -39 -149 q -16 -152 -26 -151 q 8 -153 -6 -153 q 76 -124 60 -153 q 93 -54 93 -94 l 93 625 l 43 625 l 43 688 l 93 688 l 93 725 q 108 811 93 778 q 165 860 122 844 q 290 876 208 876 q 438 847 388 876 q 489 740 489 817 l 489 608 q 463 514 489 550 q 404 475 438 478 l 404 469 q 453 451 429 467 q 492 408 476 436 q 508 339 508 381 l 508 168 q 485 60 508 96 q 419 12 461 24 q 318 0 376 0 l 224 0 l 224 50 l 310 50 q 368 61 344 50 q 404 104 392 72 q 417 200 417 136 l 417 332 q 401 399 417 374 q 358 433 385 424 q 293 443 331 443 l 242 443 l 242 494 l 313 494 q 386 526 368 494 q 404 614 404 558 l 404 718 q 378 802 404 775 q 292 829 353 829 q 217 813 242 829 q 186 772 193 797 q 179 721 179 747 l 179 -39 q 167 -117 179 -85 q 133 -168 154 -149 q 83 -196 113 -187 q 21 -204 54 -204 z "},"ѓ":{"ha":401,"x_min":58,"x_max":378,"o":"m 58 0 l 58 688 l 378 688 l 378 624 l 150 624 l 150 0 l 58 0 m 149 758 l 228 886 l 317 886 l 203 758 l 149 758 z "},"`":{"ha":199,"x_min":0,"x_max":168,"o":"m 115 758 l 0 886 l 90 886 l 168 758 l 115 758 z "},"̀":{"ha":0,"x_min":0,"x_max":168,"o":"m 115 758 l 0 886 l 90 886 l 168 758 l 115 758 z "},">":{"ha":472,"x_min":71,"x_max":401,"o":"m 71 200 l 71 288 l 325 456 l 71 625 l 71 710 l 401 485 l 401 425 l 71 200 z "},"≥":{"ha":472,"x_min":69,"x_max":401,"o":"m 69 -3 l 69 58 l 392 58 l 392 -3 l 69 -3 m 71 200 l 71 288 l 325 456 l 71 625 l 71 710 l 401 485 l 401 425 l 71 200 z "},"«":{"ha":658,"x_min":61,"x_max":597,"o":"m 503 151 l 331 399 l 514 663 l 597 663 l 415 399 l 586 151 l 503 151 m 233 151 l 61 399 l 244 663 l 328 663 l 147 399 l 317 151 l 233 151 z "},"»":{"ha":658,"x_min":61,"x_max":597,"o":"m 342 151 l 511 399 l 331 663 l 414 663 l 597 399 l 425 151 l 342 151 m 71 151 l 243 399 l 61 663 l 144 663 l 328 399 l 156 151 l 71 151 z "},"‹":{"ha":388,"x_min":61,"x_max":326,"o":"m 233 151 l 61 399 l 243 663 l 326 663 l 147 399 l 317 151 l 233 151 z "},"›":{"ha":388,"x_min":61,"x_max":326,"o":"m 71 151 l 242 399 l 61 663 l 144 663 l 326 399 l 154 151 l 71 151 z "},"h":{"ha":514,"x_min":74,"x_max":451,"o":"m 74 0 l 74 875 l 156 875 l 156 629 q 204 680 169 661 q 290 699 239 699 q 398 673 364 699 q 442 606 432 647 q 451 517 451 565 l 451 0 l 365 0 l 365 499 q 364 542 365 519 q 353 585 363 565 q 323 617 344 604 q 263 629 301 629 q 204 618 226 629 q 172 591 182 607 q 160 564 161 575 l 160 0 l 74 0 z "},"х":{"ha":439,"x_min":11,"x_max":425,"o":"m 11 0 l 167 363 l 33 688 l 117 688 l 221 432 l 332 688 l 414 688 l 275 363 l 425 0 l 342 0 l 221 286 l 96 0 l 11 0 z "},"ъ":{"ha":561,"x_min":24,"x_max":503,"o":"m 113 0 l 113 632 l 24 632 l 24 688 l 200 688 l 200 471 l 338 471 q 432 453 396 471 q 485 397 468 435 q 503 297 503 358 l 503 204 q 493 107 503 146 q 463 44 483 68 q 408 10 442 21 q 328 0 375 0 l 113 0 m 200 50 l 311 50 q 380 67 357 50 q 410 115 403 85 q 417 183 417 146 l 417 281 q 411 347 417 317 q 383 397 406 378 q 310 415 360 415 l 200 415 l 200 50 z "},"ħ":{"ha":500,"x_min":7,"x_max":451,"o":"m 7 760 l 7 808 l 254 808 l 254 760 l 7 760 m 74 0 l 74 875 l 156 875 l 156 629 q 204 680 169 661 q 290 699 239 699 q 398 673 364 699 q 442 606 432 647 q 451 517 451 565 l 451 0 l 365 0 l 365 499 q 364 542 365 519 q 353 585 363 565 q 323 617 344 604 q 263 629 301 629 q 204 618 226 629 q 172 591 182 607 q 160 564 161 575 l 160 0 l 74 0 z "},"̉":{"ha":0,"x_min":21,"x_max":192,"o":"m 76 760 l 76 782 q 92 813 76 803 q 124 832 108 822 q 139 860 139 842 l 139 865 q 130 891 139 879 q 100 903 121 903 q 64 869 71 903 l 21 878 q 46 923 25 907 q 104 939 67 939 q 170 923 149 939 q 192 865 192 907 l 192 863 q 175 819 192 832 q 142 800 158 807 q 125 776 125 793 l 125 760 l 76 760 z "},"̛":{"ha":0,"x_min":14,"x_max":160,"o":"m 18 636 l 14 679 l 31 679 q 99 742 99 679 l 99 765 l 160 765 l 160 747 q 123 663 160 692 q 18 636 86 635 z "},"˝":{"ha":221,"x_min":0,"x_max":221,"o":"m 0 758 l 39 886 l 115 886 l 39 758 l 0 758 m 99 758 l 146 886 l 221 886 l 142 758 l 99 758 z "},"̋":{"ha":0,"x_min":0,"x_max":221,"o":"m 0 758 l 39 886 l 115 886 l 39 758 l 0 758 m 99 758 l 146 886 l 221 886 l 142 758 l 99 758 z "},"-":{"ha":404,"x_min":61,"x_max":343,"o":"m 61 336 l 61 397 l 343 397 l 343 336 l 61 336 z "},"i":{"ha":232,"x_min":64,"x_max":169,"o":"m 74 0 l 74 688 l 158 688 l 158 0 l 74 0 m 117 772 q 79 787 94 772 q 64 824 64 801 q 79 859 64 844 q 117 874 94 874 q 153 859 138 874 q 169 824 169 844 q 153 787 169 801 q 117 772 138 772 z "},"і":{"ha":232,"x_min":64,"x_max":169,"o":"m 74 0 l 74 688 l 158 688 l 158 0 l 74 0 m 117 772 q 79 787 94 772 q 64 824 64 801 q 79 859 64 844 q 117 874 94 874 q 153 859 138 874 q 169 824 169 844 q 153 787 169 801 q 117 772 138 772 z "},"я":{"ha":536,"x_min":50,"x_max":476,"o":"m 50 0 l 136 239 q 174 303 153 281 q 222 329 194 326 q 119 372 154 333 q 85 488 85 410 l 85 535 q 128 652 85 617 q 242 688 171 688 l 476 688 l 476 0 l 386 0 l 386 319 l 299 308 q 248 260 268 296 q 211 175 228 225 l 150 0 l 50 0 m 288 361 l 386 361 l 386 635 l 257 635 q 196 608 221 635 q 171 532 171 581 l 171 489 q 202 390 171 419 q 288 361 233 361 z "},"í":{"ha":232,"x_min":64,"x_max":232,"o":"m 74 0 l 74 688 l 158 688 l 158 0 l 74 0 m 64 758 l 143 886 l 232 886 l 118 758 l 64 758 z "},"ǐ":{"ha":232,"x_min":-37,"x_max":268,"o":"m 74 0 l 74 688 l 158 688 l 158 0 l 74 0 m 86 758 l -37 886 l 22 886 l 115 801 l 213 886 l 268 886 l 144 758 l 86 758 z "},"î":{"ha":232,"x_min":-37,"x_max":268,"o":"m 74 0 l 74 688 l 158 688 l 158 0 l 74 0 m -37 758 l 86 886 l 144 886 l 268 758 l 211 758 l 115 844 l 21 758 l -37 758 z "},"ï":{"ha":232,"x_min":3,"x_max":229,"o":"m 74 0 l 74 688 l 158 688 l 158 0 l 74 0 m 49 772 q 16 785 29 772 q 3 817 3 799 q 16 847 3 835 q 49 860 29 860 q 81 847 68 860 q 93 817 93 835 q 81 785 93 799 q 49 772 68 772 m 183 772 q 151 785 164 772 q 138 817 138 799 q 151 847 138 835 q 183 860 164 860 q 215 847 203 860 q 228 817 228 835 q 215 785 228 799 q 183 772 203 772 z "},"ị":{"ha":232,"x_min":64,"x_max":172,"o":"m 74 0 l 74 688 l 158 688 l 158 0 l 74 0 m 117 772 q 79 787 94 772 q 64 824 64 801 q 79 859 64 844 q 117 874 94 874 q 153 859 138 874 q 169 824 169 844 q 153 787 169 801 q 117 772 138 772 m 125 -150 q 92 -137 106 -150 q 79 -106 79 -124 q 92 -73 79 -86 q 125 -60 106 -60 q 158 -73 144 -60 q 172 -106 172 -86 q 158 -137 172 -124 q 125 -150 144 -150 z "},"ı":{"ha":232,"x_min":74,"x_max":158,"o":"m 74 0 l 74 688 l 158 688 l 158 0 l 74 0 z "},"е":{"ha":482,"x_min":57,"x_max":432,"o":"m 251 -12 q 139 3 182 -12 q 76 63 96 19 q 57 188 57 106 l 57 531 q 101 663 57 626 q 246 699 144 699 q 388 663 344 699 q 432 531 432 626 l 432 353 l 143 353 l 143 158 q 164 66 143 92 q 249 40 185 40 q 326 65 307 40 q 346 158 346 90 l 346 247 l 432 247 l 432 189 q 413 65 432 108 q 353 4 393 21 q 251 -12 314 -12 m 143 397 l 346 397 l 346 538 q 326 622 346 596 q 246 649 307 649 q 164 622 185 649 q 143 538 143 596 l 143 397 z "},"ѐ":{"ha":482,"x_min":57,"x_max":432,"o":"m 251 -12 q 139 3 182 -12 q 76 63 96 19 q 57 188 57 106 l 57 531 q 101 663 57 626 q 246 699 144 699 q 388 663 344 699 q 432 531 432 626 l 432 353 l 143 353 l 143 158 q 164 66 143 92 q 249 40 185 40 q 326 65 307 40 q 346 158 346 90 l 346 247 l 432 247 l 432 189 q 413 65 432 108 q 353 4 393 21 q 251 -12 314 -12 m 143 397 l 346 397 l 346 538 q 326 622 346 596 q 246 649 307 649 q 164 622 185 649 q 143 538 143 596 l 143 397 m 243 758 l 128 886 l 218 886 l 296 758 l 243 758 z "},"ì":{"ha":232,"x_min":3,"x_max":171,"o":"m 74 0 l 74 688 l 158 688 l 158 0 l 74 0 m 118 758 l 3 886 l 93 886 l 171 758 l 118 758 z "},"ỉ":{"ha":232,"x_min":36,"x_max":207,"o":"m 74 0 l 74 688 l 158 688 l 158 0 l 74 0 m 92 760 l 92 782 q 108 813 92 803 q 139 832 124 822 q 154 860 154 842 l 154 865 q 145 891 154 879 q 115 903 136 903 q 79 869 86 903 l 36 878 q 61 923 40 907 q 119 939 82 939 q 185 923 164 939 q 207 865 207 907 l 207 863 q 190 819 207 832 q 157 800 174 807 q 140 776 140 793 l 140 760 l 92 760 z "},"и":{"ha":503,"x_min":58,"x_max":444,"o":"m 58 0 l 58 686 l 136 686 l 136 158 l 367 686 l 444 686 l 444 0 l 368 0 l 368 547 q 251 274 308 410 q 132 0 193 138 l 58 0 z "},"ѝ":{"ha":503,"x_min":58,"x_max":444,"o":"m 58 0 l 58 686 l 136 686 l 136 158 l 367 686 l 444 686 l 444 0 l 368 0 l 368 547 q 251 274 308 410 q 132 0 193 138 l 58 0 m 253 758 l 138 886 l 228 886 l 306 758 l 253 758 z "},"й":{"ha":503,"x_min":58,"x_max":444,"o":"m 58 0 l 58 686 l 136 686 l 136 158 l 367 686 l 444 686 l 444 0 l 368 0 l 368 547 q 251 274 308 410 q 132 0 193 138 l 58 0 m 250 757 q 168 778 197 757 q 127 828 139 799 q 114 881 115 857 l 165 881 q 194 822 171 842 q 251 803 218 803 q 310 822 286 803 q 338 881 333 840 l 389 881 q 374 824 388 853 q 330 776 360 796 q 250 757 300 757 z "},"ī":{"ha":232,"x_min":-12,"x_max":244,"o":"m 74 0 l 74 688 l 158 688 l 158 0 l 74 0 m -12 786 l -12 833 l 246 833 l 246 786 l -12 786 z "},"∞":{"ha":986,"x_min":60,"x_max":928,"o":"m 229 139 q 103 188 147 139 q 60 336 60 236 q 100 482 60 428 q 231 536 140 536 q 318 519 279 536 q 398 465 357 501 q 493 375 439 429 q 590 467 549 432 q 669 519 631 501 q 757 536 708 536 q 888 482 847 536 q 928 336 928 428 q 888 192 928 246 q 757 139 847 139 q 669 156 708 139 q 589 210 629 174 q 494 300 549 246 q 398 208 440 244 q 317 156 356 172 q 229 139 278 139 m 232 196 q 335 233 288 196 q 449 339 382 269 q 381 402 415 371 q 310 454 346 433 q 232 475 275 475 q 144 435 172 475 q 117 335 117 396 q 144 236 117 276 q 232 196 172 196 m 756 199 q 841 236 811 199 q 871 339 871 274 q 842 438 871 397 q 756 478 814 478 q 707 471 728 478 q 664 449 686 464 q 612 406 642 433 q 538 336 582 379 q 624 257 589 288 q 690 213 660 226 q 756 199 719 199 z "},"∫":{"ha":539,"x_min":-126,"x_max":506,"o":"m -28 -406 q -78 -402 -53 -404 q -126 -396 -103 -400 l -117 -339 l -25 -346 q 36 -315 17 -344 q 61 -256 56 -286 l 235 740 q 267 822 244 792 q 324 864 289 851 q 406 876 360 876 q 458 873 432 875 q 506 867 483 871 l 496 808 l 404 815 q 342 786 361 815 q 318 725 324 757 l 143 -271 q 112 -351 135 -321 q 54 -393 89 -381 q -28 -406 19 -406 z "},"ё":{"ha":482,"x_min":57,"x_max":432,"o":"m 251 -12 q 139 3 182 -12 q 76 63 96 19 q 57 188 57 106 l 57 531 q 101 663 57 626 q 246 699 144 699 q 388 663 344 699 q 432 531 432 626 l 432 353 l 143 353 l 143 158 q 164 66 143 92 q 249 40 185 40 q 326 65 307 40 q 346 158 346 90 l 346 247 l 432 247 l 432 189 q 413 65 432 108 q 353 4 393 21 q 251 -12 314 -12 m 143 397 l 346 397 l 346 538 q 326 622 346 596 q 246 649 307 649 q 164 622 185 649 q 143 538 143 596 l 143 397 m 175 772 q 142 785 156 772 q 129 817 129 799 q 142 847 129 835 q 175 860 156 860 q 207 847 194 860 q 219 817 219 835 q 207 785 219 799 q 175 772 194 772 m 310 772 q 277 785 290 772 q 264 817 264 799 q 277 847 264 835 q 310 860 290 860 q 342 847 329 860 q 354 817 354 835 q 342 785 354 799 q 310 772 329 772 z "},"į":{"ha":232,"x_min":25,"x_max":186,"o":"m 74 0 l 74 688 l 158 688 l 158 0 l 74 0 m 117 772 q 79 787 94 772 q 64 824 64 801 q 79 859 64 844 q 117 874 94 874 q 153 859 138 874 q 169 824 169 844 q 153 787 169 801 q 117 772 138 772 m 121 -187 q 53 -165 81 -187 q 25 -107 25 -142 q 53 -39 25 -68 q 115 1 81 -10 l 160 0 q 104 -43 124 -17 q 85 -96 85 -69 q 103 -136 85 -122 q 139 -150 121 -150 q 160 -147 151 -150 q 174 -142 169 -144 l 188 -171 q 163 -182 179 -176 q 121 -187 147 -187 z "},"ĩ":{"ha":232,"x_min":-24,"x_max":256,"o":"m 74 0 l 74 688 l 158 688 l 158 0 l 74 0 m 176 769 q 144 776 157 769 q 111 794 131 782 q 84 810 99 801 q 53 819 69 819 q 25 808 36 819 q 11 771 14 796 l -24 771 q -1 838 -22 813 q 54 864 19 864 q 90 856 74 864 q 122 838 106 849 q 150 822 138 829 q 176 815 163 815 q 206 826 194 815 q 221 861 217 838 l 257 861 q 244 813 256 833 q 215 781 232 792 q 176 769 197 769 z "},"ю":{"ha":804,"x_min":58,"x_max":746,"o":"m 557 -11 q 438 13 479 -11 q 383 81 397 36 q 368 190 368 126 l 368 517 q 383 609 368 568 q 438 674 397 650 q 557 699 478 699 q 676 674 636 699 q 731 609 717 650 q 746 517 746 568 l 746 190 q 731 81 746 126 q 675 13 715 36 q 557 -11 635 -11 m 58 0 l 58 688 l 144 688 l 144 394 l 392 394 l 392 328 l 144 328 l 144 0 l 58 0 m 557 38 q 626 56 604 38 q 654 105 649 75 q 660 168 660 135 l 660 521 q 654 583 660 554 q 626 631 649 613 q 557 649 604 649 q 488 631 510 649 q 460 583 465 613 q 454 521 454 554 l 454 168 q 460 105 454 135 q 488 56 465 75 q 557 38 510 38 z "},"j":{"ha":231,"x_min":-74,"x_max":168,"o":"m -36 -154 q -56 -153 -43 -154 q -74 -150 -69 -151 l -74 -103 q -56 -103 -68 -103 q -33 -103 -43 -104 q 45 -84 17 -103 q 74 -14 74 -65 l 74 688 l 158 688 l 158 4 q 131 -100 158 -65 q 60 -145 104 -135 q -36 -154 17 -156 m 115 772 q 78 787 93 772 q 63 824 63 801 q 78 859 63 844 q 115 874 93 874 q 152 859 136 874 q 168 824 168 844 q 152 787 168 801 q 115 772 136 772 z "},"ȷ":{"ha":231,"x_min":-74,"x_max":158,"o":"m -36 -154 q -56 -153 -43 -154 q -74 -150 -69 -151 l -74 -103 q -56 -103 -68 -103 q -33 -103 -43 -104 q 45 -84 17 -103 q 74 -14 74 -65 l 74 688 l 158 688 l 158 4 q 131 -100 158 -65 q 60 -145 104 -135 q -36 -154 17 -156 z "},"ј":{"ha":231,"x_min":-74,"x_max":168,"o":"m -36 -154 q -56 -153 -43 -154 q -74 -150 -69 -151 l -74 -103 q -56 -103 -68 -103 q -33 -103 -43 -104 q 45 -84 17 -103 q 74 -14 74 -65 l 74 688 l 158 688 l 158 4 q 131 -100 158 -65 q 60 -145 104 -135 q -36 -154 17 -156 m 115 772 q 78 787 93 772 q 63 824 63 801 q 78 859 63 844 q 115 874 93 874 q 152 859 136 874 q 168 824 168 844 q 152 787 168 801 q 115 772 136 772 z "},"k":{"ha":467,"x_min":74,"x_max":446,"o":"m 354 0 l 182 399 l 358 688 l 444 688 l 267 399 l 446 0 l 354 0 m 74 0 l 74 881 l 158 881 l 158 0 l 74 0 z "},"к":{"ha":488,"x_min":58,"x_max":450,"o":"m 58 0 l 58 688 l 144 688 l 144 386 q 238 533 185 469 q 347 633 290 597 q 450 669 404 668 l 450 608 q 383 577 414 599 q 326 526 353 556 q 293 485 308 507 q 264 439 278 463 l 446 0 l 347 0 l 190 346 q 165 297 178 324 q 144 258 151 271 l 144 0 l 58 0 z "},"ķ":{"ha":467,"x_min":74,"x_max":446,"o":"m 354 0 l 182 399 l 358 688 l 444 688 l 267 399 l 446 0 l 354 0 m 74 0 l 74 881 l 158 881 l 158 0 l 74 0 m 192 -226 q 218 -177 207 -200 q 229 -139 229 -154 q 222 -124 229 -129 q 208 -110 215 -118 q 201 -89 201 -103 q 214 -64 201 -75 q 244 -53 226 -53 q 278 -66 265 -53 q 290 -97 290 -79 q 281 -136 290 -112 q 258 -183 272 -160 q 229 -226 244 -207 l 192 -226 z "},"ќ":{"ha":488,"x_min":58,"x_max":450,"o":"m 58 0 l 58 688 l 144 688 l 144 386 q 238 533 185 469 q 347 633 290 597 q 450 669 404 668 l 450 608 q 383 577 414 599 q 326 526 353 556 q 293 485 308 507 q 264 439 278 463 l 446 0 l 347 0 l 190 346 q 165 297 178 324 q 144 258 151 271 l 144 0 l 58 0 m 192 758 l 271 886 l 360 886 l 246 758 l 192 758 z "},"l":{"ha":232,"x_min":74,"x_max":158,"o":"m 74 0 l 74 881 l 158 881 l 158 0 l 74 0 z "},"ĺ":{"ha":232,"x_min":50,"x_max":250,"o":"m 74 0 l 74 881 l 158 881 l 158 0 l 74 0 m 50 935 l 161 1050 l 250 1050 l 106 935 l 50 935 z "},"ľ":{"ha":276,"x_min":74,"x_max":292,"o":"m 74 0 l 74 881 l 158 881 l 158 0 l 74 0 m 208 717 l 235 896 l 292 896 l 243 717 l 208 717 z "},"ļ":{"ha":232,"x_min":63,"x_max":161,"o":"m 74 0 l 74 881 l 158 881 l 158 0 l 74 0 m 63 -226 q 89 -177 78 -200 q 100 -139 100 -154 q 93 -124 100 -129 q 79 -110 86 -118 q 72 -89 72 -103 q 85 -64 72 -75 q 115 -53 97 -53 q 149 -66 136 -53 q 161 -97 161 -79 q 152 -136 161 -112 q 129 -183 143 -160 q 100 -226 115 -207 l 63 -226 z "},"←":{"ha":1115,"x_min":61,"x_max":1053,"o":"m 388 88 l 61 383 l 388 683 l 431 640 l 206 421 l 1053 418 l 1051 350 l 206 351 l 431 131 l 388 88 z "},"↔":{"ha":1354,"x_min":60,"x_max":1293,"o":"m 390 78 l 60 375 l 390 672 l 433 631 l 208 410 l 1144 410 l 919 631 l 964 672 l 1293 375 l 964 78 l 919 119 l 1143 340 l 211 340 l 433 119 l 390 78 z "},"<":{"ha":472,"x_min":71,"x_max":401,"o":"m 401 200 l 71 425 l 71 485 l 401 710 l 401 624 l 147 453 l 401 286 l 401 200 z "},"≤":{"ha":454,"x_min":63,"x_max":394,"o":"m 393 200 l 63 425 l 63 485 l 393 710 l 393 625 l 139 456 l 393 288 l 393 200 m 394 -3 l 72 -3 l 72 58 l 394 58 l 394 -3 z "},"љ":{"ha":846,"x_min":24,"x_max":788,"o":"m 24 0 l 24 50 q 70 76 51 50 q 93 153 89 101 l 138 686 l 485 686 l 485 471 l 621 471 q 721 451 685 471 q 772 393 757 432 q 788 297 788 354 l 788 228 q 779 126 788 169 q 751 56 771 83 q 699 14 732 28 q 614 0 665 0 l 397 0 l 397 624 l 224 624 l 179 129 q 174 89 178 111 q 159 47 169 67 q 128 13 149 26 q 72 0 107 0 l 24 0 m 485 50 l 596 50 q 664 67 642 50 q 694 115 686 85 q 701 183 701 146 l 701 281 q 696 347 701 317 q 667 397 690 378 q 594 415 644 415 l 485 415 l 485 50 z "},"¬":{"ha":774,"x_min":64,"x_max":714,"o":"m 653 244 l 653 497 l 64 497 l 64 563 l 714 563 l 714 244 l 653 244 z "},"ſ":{"ha":472,"x_min":13,"x_max":444,"o":"m 118 -203 q 61 -201 90 -203 q 13 -196 32 -200 l 13 -146 l 49 -149 q 78 -148 63 -149 q 108 -146 93 -147 q 153 -117 140 -143 q 167 -64 165 -90 l 167 556 l 118 556 l 118 611 l 167 611 l 167 744 q 184 826 167 796 q 234 868 201 856 q 311 881 267 881 q 381 876 349 881 q 444 864 414 871 l 435 811 q 378 822 406 818 q 315 826 350 826 q 265 795 278 826 q 253 732 253 764 l 253 -39 q 237 -128 253 -93 q 191 -182 221 -164 q 118 -203 161 -200 z "},"◊":{"ha":657,"x_min":61,"x_max":596,"o":"m 294 -49 l 61 406 l 294 858 l 363 858 l 596 406 l 363 -49 l 294 -49 m 329 36 l 511 408 l 331 771 l 146 406 l 329 36 z "},"ł":{"ha":388,"x_min":54,"x_max":333,"o":"m 150 0 l 150 244 l 54 201 l 54 249 l 150 292 l 150 881 l 235 881 l 235 329 l 333 374 l 333 328 l 235 283 l 235 0 l 150 0 z "},"m":{"ha":792,"x_min":74,"x_max":729,"o":"m 74 0 l 74 688 l 146 688 l 156 610 q 206 674 171 650 q 293 697 242 697 q 406 664 374 697 q 440 567 439 631 l 425 567 q 478 661 439 625 q 581 697 518 697 q 698 657 667 697 q 729 535 729 617 l 729 0 l 643 0 l 643 519 q 623 609 643 585 q 554 633 603 633 q 478 607 508 633 q 444 540 447 581 l 444 0 l 358 0 l 358 529 q 338 610 358 586 q 267 633 318 633 q 195 611 219 633 q 160 558 171 589 l 160 0 l 74 0 z "},"¯":{"ha":286,"x_min":14,"x_max":272,"o":"m 14 786 l 14 833 l 272 833 l 272 786 l 14 786 z "},"̄":{"ha":0,"x_min":14,"x_max":272,"o":"m 14 786 l 14 833 l 272 833 l 272 786 l 14 786 z "},"µ":{"ha":497,"x_min":61,"x_max":438,"o":"m 61 -179 l 61 688 l 147 688 l 147 129 q 185 72 158 93 q 254 51 211 51 q 305 59 283 51 q 339 92 326 67 q 351 168 351 118 l 351 688 l 438 688 l 438 172 q 425 69 438 110 q 379 10 413 29 q 282 -10 346 -10 q 199 10 239 -10 q 142 75 160 31 l 133 -179 l 61 -179 z "},"−":{"ha":636,"x_min":78,"x_max":522,"o":"m 78 319 l 78 386 l 522 386 l 522 319 l 78 319 z "},"×":{"ha":501,"x_min":61,"x_max":442,"o":"m 394 174 l 250 317 l 115 182 l 68 229 l 203 364 l 61 507 l 108 554 l 250 411 l 388 549 l 435 501 l 300 364 l 442 219 l 394 174 z "},"n":{"ha":514,"x_min":74,"x_max":451,"o":"m 74 0 l 74 688 l 144 688 l 156 613 q 208 678 169 658 q 290 699 247 699 q 398 673 364 699 q 442 606 432 647 q 451 517 451 565 l 451 0 l 365 0 l 365 506 q 364 553 365 529 q 353 595 363 576 q 324 625 344 614 q 263 636 303 636 q 206 623 228 636 q 174 592 185 610 q 160 560 164 575 l 160 0 l 74 0 z "},"ń":{"ha":514,"x_min":74,"x_max":451,"o":"m 74 0 l 74 688 l 144 688 l 156 613 q 208 678 169 658 q 290 699 247 699 q 398 673 364 699 q 442 606 432 647 q 451 517 451 565 l 451 0 l 365 0 l 365 506 q 364 553 365 529 q 353 595 363 576 q 324 625 344 614 q 263 636 303 636 q 206 623 228 636 q 174 592 185 610 q 160 560 164 575 l 160 0 l 74 0 m 204 758 l 283 886 l 372 886 l 258 758 l 204 758 z "},"ň":{"ha":514,"x_min":74,"x_max":451,"o":"m 74 0 l 74 688 l 144 688 l 156 613 q 208 678 169 658 q 290 699 247 699 q 398 673 364 699 q 442 606 432 647 q 451 517 451 565 l 451 0 l 365 0 l 365 506 q 364 553 365 529 q 353 595 363 576 q 324 625 344 614 q 263 636 303 636 q 206 623 228 636 q 174 592 185 610 q 160 560 164 575 l 160 0 l 74 0 m 228 758 l 104 886 l 164 886 l 257 801 l 354 886 l 410 886 l 286 758 l 228 758 z "},"ņ":{"ha":514,"x_min":74,"x_max":451,"o":"m 74 0 l 74 688 l 144 688 l 156 613 q 208 678 169 658 q 290 699 247 699 q 398 673 364 699 q 442 606 432 647 q 451 517 451 565 l 451 0 l 365 0 l 365 506 q 364 553 365 529 q 353 595 363 576 q 324 625 344 614 q 263 636 303 636 q 206 623 228 636 q 174 592 185 610 q 160 560 164 575 l 160 0 l 74 0 m 206 -226 q 232 -177 221 -200 q 243 -139 243 -154 q 236 -124 243 -129 q 222 -110 229 -118 q 215 -89 215 -103 q 228 -64 215 -75 q 258 -53 240 -53 q 292 -66 279 -53 q 304 -97 304 -79 q 295 -136 304 -112 q 272 -183 286 -160 q 243 -226 258 -207 l 206 -226 z "},"њ":{"ha":810,"x_min":58,"x_max":751,"o":"m 58 0 l 58 688 l 144 688 l 144 394 l 363 394 l 363 688 l 449 688 l 449 471 l 586 471 q 684 451 647 471 q 736 393 721 432 q 751 297 751 354 l 751 228 q 743 126 751 169 q 715 56 735 83 q 663 14 696 28 q 576 0 629 0 l 363 0 l 363 328 l 144 328 l 144 0 l 58 0 m 449 50 l 560 50 q 629 67 607 50 q 658 115 651 85 q 665 183 665 146 l 665 281 q 660 347 665 317 q 631 397 654 378 q 558 415 608 415 l 449 415 l 449 50 z "},"↗":{"ha":821,"x_min":42,"x_max":769,"o":"m 92 106 l 42 156 l 642 753 l 328 751 l 328 810 l 769 832 l 749 390 l 688 390 l 692 706 l 92 106 z "},"↖":{"ha":839,"x_min":65,"x_max":792,"o":"m 743 93 l 146 693 l 147 379 l 86 379 l 65 821 l 508 800 l 508 739 l 194 743 l 792 142 l 743 93 z "},"≠":{"ha":564,"x_min":67,"x_max":501,"o":"m 67 -11 l 188 218 l 79 218 l 79 282 l 222 282 l 342 513 l 79 513 l 79 576 l 375 576 l 451 724 l 501 724 l 424 576 l 501 576 l 501 513 l 389 513 l 268 282 l 501 282 l 501 218 l 235 218 l 115 -11 l 67 -11 z "},"ñ":{"ha":514,"x_min":74,"x_max":451,"o":"m 74 0 l 74 688 l 144 688 l 156 613 q 208 678 169 658 q 290 699 247 699 q 398 673 364 699 q 442 606 432 647 q 451 517 451 565 l 451 0 l 365 0 l 365 506 q 364 553 365 529 q 353 595 363 576 q 324 625 344 614 q 263 636 303 636 q 206 623 228 636 q 174 592 185 610 q 160 560 164 575 l 160 0 l 74 0 m 317 769 q 284 776 297 769 q 251 794 271 782 q 224 810 239 801 q 193 819 210 819 q 165 808 176 819 q 151 771 154 796 l 117 771 q 139 838 118 813 q 194 864 160 864 q 230 856 214 864 q 263 838 246 849 q 290 822 278 829 q 317 815 303 815 q 346 826 335 815 q 361 861 357 838 l 397 861 q 384 813 396 833 q 355 781 372 792 q 317 769 338 769 z "},"#":{"ha":963,"x_min":58,"x_max":904,"o":"m 179 0 l 263 261 l 58 261 l 75 315 l 279 315 l 349 538 l 144 539 l 163 593 l 367 593 l 431 796 l 485 796 l 421 593 l 649 593 l 713 796 l 768 796 l 703 593 l 904 593 l 886 538 l 686 538 l 617 315 l 818 315 l 800 261 l 599 261 l 518 0 l 461 0 l 544 261 l 317 261 l 233 0 l 179 0 m 333 315 l 561 315 l 631 538 l 403 538 l 333 315 z "},"o":{"ha":490,"x_min":57,"x_max":435,"o":"m 246 -10 q 127 14 168 -10 q 72 83 86 38 q 57 192 57 128 l 57 513 q 71 608 57 567 q 126 674 85 650 q 246 699 168 699 q 365 674 325 699 q 420 608 406 650 q 435 513 435 567 l 435 192 q 419 83 435 128 q 363 14 404 38 q 246 -10 322 -10 m 246 43 q 315 63 294 43 q 342 112 336 82 q 349 174 349 142 l 349 517 q 342 578 349 549 q 315 626 336 607 q 246 644 294 644 q 176 626 199 644 q 149 578 154 607 q 143 517 143 549 l 143 174 q 149 112 143 142 q 176 63 154 82 q 246 43 199 43 z "},"о":{"ha":490,"x_min":57,"x_max":435,"o":"m 246 -10 q 127 14 168 -10 q 72 83 86 38 q 57 192 57 128 l 57 513 q 71 608 57 567 q 126 674 85 650 q 246 699 168 699 q 365 674 325 699 q 420 608 406 650 q 435 513 435 567 l 435 192 q 419 83 435 128 q 363 14 404 38 q 246 -10 322 -10 m 246 43 q 315 63 294 43 q 342 112 336 82 q 349 174 349 142 l 349 517 q 342 578 349 549 q 315 626 336 607 q 246 644 294 644 q 176 626 199 644 q 149 578 154 607 q 143 517 143 549 l 143 174 q 149 112 143 142 q 176 63 154 82 q 246 43 199 43 z "},"ó":{"ha":490,"x_min":57,"x_max":435,"o":"m 246 -10 q 127 14 168 -10 q 72 83 86 38 q 57 192 57 128 l 57 513 q 71 608 57 567 q 126 674 85 650 q 246 699 168 699 q 365 674 325 699 q 420 608 406 650 q 435 513 435 567 l 435 192 q 419 83 435 128 q 363 14 404 38 q 246 -10 322 -10 m 246 43 q 315 63 294 43 q 342 112 336 82 q 349 174 349 142 l 349 517 q 342 578 349 549 q 315 626 336 607 q 246 644 294 644 q 176 626 199 644 q 149 578 154 607 q 143 517 143 549 l 143 174 q 149 112 143 142 q 176 63 154 82 q 246 43 199 43 m 193 758 l 272 886 l 361 886 l 247 758 l 193 758 z "},"ǒ":{"ha":490,"x_min":57,"x_max":435,"o":"m 246 -10 q 127 14 168 -10 q 72 83 86 38 q 57 192 57 128 l 57 513 q 71 608 57 567 q 126 674 85 650 q 246 699 168 699 q 365 674 325 699 q 420 608 406 650 q 435 513 435 567 l 435 192 q 419 83 435 128 q 363 14 404 38 q 246 -10 322 -10 m 246 43 q 315 63 294 43 q 342 112 336 82 q 349 174 349 142 l 349 517 q 342 578 349 549 q 315 626 336 607 q 246 644 294 644 q 176 626 199 644 q 149 578 154 607 q 143 517 143 549 l 143 174 q 149 112 143 142 q 176 63 154 82 q 246 43 199 43 m 215 758 l 92 886 l 151 886 l 244 801 l 342 886 l 397 886 l 274 758 l 215 758 z "},"ô":{"ha":490,"x_min":57,"x_max":435,"o":"m 246 -10 q 127 14 168 -10 q 72 83 86 38 q 57 192 57 128 l 57 513 q 71 608 57 567 q 126 674 85 650 q 246 699 168 699 q 365 674 325 699 q 420 608 406 650 q 435 513 435 567 l 435 192 q 419 83 435 128 q 363 14 404 38 q 246 -10 322 -10 m 246 43 q 315 63 294 43 q 342 112 336 82 q 349 174 349 142 l 349 517 q 342 578 349 549 q 315 626 336 607 q 246 644 294 644 q 176 626 199 644 q 149 578 154 607 q 143 517 143 549 l 143 174 q 149 112 143 142 q 176 63 154 82 q 246 43 199 43 m 92 758 l 215 886 l 274 886 l 397 758 l 340 758 l 244 844 l 150 758 l 92 758 z "},"ố":{"ha":490,"x_min":57,"x_max":563,"o":"m 246 -10 q 127 14 168 -10 q 72 83 86 38 q 57 192 57 128 l 57 513 q 71 608 57 567 q 126 674 85 650 q 246 699 168 699 q 365 674 325 699 q 420 608 406 650 q 435 513 435 567 l 435 192 q 419 83 435 128 q 363 14 404 38 q 246 -10 322 -10 m 246 43 q 315 63 294 43 q 342 112 336 82 q 349 174 349 142 l 349 517 q 342 578 349 549 q 315 626 336 607 q 246 644 294 644 q 176 626 199 644 q 149 578 154 607 q 143 517 143 549 l 143 174 q 149 112 143 142 q 176 63 154 82 q 246 43 199 43 m 92 758 l 215 886 l 274 886 l 397 758 l 340 758 l 244 844 l 150 758 l 92 758 m 393 832 l 472 960 l 561 960 l 447 832 l 393 832 z "},"ộ":{"ha":490,"x_min":57,"x_max":435,"o":"m 246 -10 q 127 14 168 -10 q 72 83 86 38 q 57 192 57 128 l 57 513 q 71 608 57 567 q 126 674 85 650 q 246 699 168 699 q 365 674 325 699 q 420 608 406 650 q 435 513 435 567 l 435 192 q 419 83 435 128 q 363 14 404 38 q 246 -10 322 -10 m 246 43 q 315 63 294 43 q 342 112 336 82 q 349 174 349 142 l 349 517 q 342 578 349 549 q 315 626 336 607 q 246 644 294 644 q 176 626 199 644 q 149 578 154 607 q 143 517 143 549 l 143 174 q 149 112 143 142 q 176 63 154 82 q 246 43 199 43 m 244 -150 q 212 -137 225 -150 q 199 -106 199 -124 q 212 -73 199 -86 q 244 -60 225 -60 q 278 -73 264 -60 q 292 -106 292 -86 q 278 -137 292 -124 q 244 -150 264 -150 m 92 758 l 215 886 l 274 886 l 397 758 l 340 758 l 244 844 l 150 758 l 92 758 z "},"ồ":{"ha":490,"x_min":57,"x_max":501,"o":"m 246 -10 q 127 14 168 -10 q 72 83 86 38 q 57 192 57 128 l 57 513 q 71 608 57 567 q 126 674 85 650 q 246 699 168 699 q 365 674 325 699 q 420 608 406 650 q 435 513 435 567 l 435 192 q 419 83 435 128 q 363 14 404 38 q 246 -10 322 -10 m 246 43 q 315 63 294 43 q 342 112 336 82 q 349 174 349 142 l 349 517 q 342 578 349 549 q 315 626 336 607 q 246 644 294 644 q 176 626 199 644 q 149 578 154 607 q 143 517 143 549 l 143 174 q 149 112 143 142 q 176 63 154 82 q 246 43 199 43 m 92 758 l 215 886 l 274 886 l 397 758 l 340 758 l 244 844 l 150 758 l 92 758 m 447 832 l 332 960 l 422 960 l 500 832 l 447 832 z "},"ổ":{"ha":490,"x_min":57,"x_max":538,"o":"m 246 -10 q 127 14 168 -10 q 72 83 86 38 q 57 192 57 128 l 57 513 q 71 608 57 567 q 126 674 85 650 q 246 699 168 699 q 365 674 325 699 q 420 608 406 650 q 435 513 435 567 l 435 192 q 419 83 435 128 q 363 14 404 38 q 246 -10 322 -10 m 246 43 q 315 63 294 43 q 342 112 336 82 q 349 174 349 142 l 349 517 q 342 578 349 549 q 315 626 336 607 q 246 644 294 644 q 176 626 199 644 q 149 578 154 607 q 143 517 143 549 l 143 174 q 149 112 143 142 q 176 63 154 82 q 246 43 199 43 m 92 758 l 215 886 l 274 886 l 397 758 l 340 758 l 244 844 l 150 758 l 92 758 m 421 833 l 421 856 q 437 886 421 876 q 468 906 453 896 q 483 933 483 915 l 483 939 q 474 965 483 953 q 444 976 465 976 q 408 943 415 976 l 365 951 q 390 997 369 981 q 449 1013 411 1013 q 515 997 493 1013 q 536 939 536 981 l 536 936 q 519 893 536 906 q 486 874 503 881 q 469 850 469 867 l 469 833 l 421 833 z "},"ỗ":{"ha":490,"x_min":57,"x_max":435,"o":"m 246 -10 q 127 14 168 -10 q 72 83 86 38 q 57 192 57 128 l 57 513 q 71 608 57 567 q 126 674 85 650 q 246 699 168 699 q 365 674 325 699 q 420 608 406 650 q 435 513 435 567 l 435 192 q 419 83 435 128 q 363 14 404 38 q 246 -10 322 -10 m 246 43 q 315 63 294 43 q 342 112 336 82 q 349 174 349 142 l 349 517 q 342 578 349 549 q 315 626 336 607 q 246 644 294 644 q 176 626 199 644 q 149 578 154 607 q 143 517 143 549 l 143 174 q 149 112 143 142 q 176 63 154 82 q 246 43 199 43 m 92 758 l 215 886 l 274 886 l 397 758 l 340 758 l 244 844 l 150 758 l 92 758 m 304 918 q 272 924 285 918 q 239 943 258 931 q 212 959 226 950 q 181 968 197 968 q 153 956 164 968 q 139 919 142 944 l 104 919 q 126 987 106 961 q 182 1013 147 1013 q 217 1005 201 1013 q 250 986 233 997 q 278 971 265 978 q 304 964 290 964 q 333 975 322 964 q 349 1010 344 986 l 385 1010 q 372 961 383 982 q 342 929 360 940 q 304 918 325 918 z "},"ö":{"ha":490,"x_min":57,"x_max":435,"o":"m 246 -10 q 127 14 168 -10 q 72 83 86 38 q 57 192 57 128 l 57 513 q 71 608 57 567 q 126 674 85 650 q 246 699 168 699 q 365 674 325 699 q 420 608 406 650 q 435 513 435 567 l 435 192 q 419 83 435 128 q 363 14 404 38 q 246 -10 322 -10 m 246 43 q 315 63 294 43 q 342 112 336 82 q 349 174 349 142 l 349 517 q 342 578 349 549 q 315 626 336 607 q 246 644 294 644 q 176 626 199 644 q 149 578 154 607 q 143 517 143 549 l 143 174 q 149 112 143 142 q 176 63 154 82 q 246 43 199 43 m 178 772 q 145 785 158 772 q 132 817 132 799 q 145 847 132 835 q 178 860 158 860 q 210 847 197 860 q 222 817 222 835 q 210 785 222 799 q 178 772 197 772 m 313 772 q 280 785 293 772 q 267 817 267 799 q 280 847 267 835 q 313 860 293 860 q 344 847 332 860 q 357 817 357 835 q 344 785 357 799 q 313 772 332 772 z "},"ọ":{"ha":490,"x_min":57,"x_max":435,"o":"m 246 -10 q 127 14 168 -10 q 72 83 86 38 q 57 192 57 128 l 57 513 q 71 608 57 567 q 126 674 85 650 q 246 699 168 699 q 365 674 325 699 q 420 608 406 650 q 435 513 435 567 l 435 192 q 419 83 435 128 q 363 14 404 38 q 246 -10 322 -10 m 246 43 q 315 63 294 43 q 342 112 336 82 q 349 174 349 142 l 349 517 q 342 578 349 549 q 315 626 336 607 q 246 644 294 644 q 176 626 199 644 q 149 578 154 607 q 143 517 143 549 l 143 174 q 149 112 143 142 q 176 63 154 82 q 246 43 199 43 m 244 -150 q 212 -137 225 -150 q 199 -106 199 -124 q 212 -73 199 -86 q 244 -60 225 -60 q 278 -73 264 -60 q 292 -106 292 -86 q 278 -137 292 -124 q 244 -150 264 -150 z "}}}
